<?xml version="1.0" encoding="UTF-8" standalone="no"?>
<!-- Created with Inkscape (http://www.inkscape.org/) -->

<svg
   xmlns:dc="http://purl.org/dc/elements/1.1/"
   xmlns:cc="http://creativecommons.org/ns#"
   xmlns:rdf="http://www.w3.org/1999/02/22-rdf-syntax-ns#"
   xmlns:svg="http://www.w3.org/2000/svg"
   xmlns="http://www.w3.org/2000/svg"
   xmlns:sodipodi="http://sodipodi.sourceforge.net/DTD/sodipodi-0.dtd"
   xmlns:inkscape="http://www.inkscape.org/namespaces/inkscape"
   width="744.09448819"
   height="1052.3622047"
   id="svg2"
   version="1.1"
   inkscape:version="0.48.4 r9939"
   sodipodi:docname="figure-first-pulses.svg">
  <defs
     id="defs4">
    <clipPath
       id="clipPath4519"
       clipPathUnits="userSpaceOnUse">
      <path
         id="path4521"
         d="M 0,0 400,0 400,300 0,300 0,0 z" />
    </clipPath>
    <clipPath
       id="clipPath4511"
       clipPathUnits="userSpaceOnUse">
      <path
         id="path4513"
         clip-rule="evenodd"
         d="m 181.5038,-991.85558 41.1496,0 0,-9.64432 -41.1496,0 0,9.64432 z" />
    </clipPath>
    <clipPath
       id="clipPath4499"
       clipPathUnits="userSpaceOnUse">
      <path
         id="path4501"
         d="M 0,0 400,0 400,300 0,300 0,0 z" />
    </clipPath>
    <clipPath
       id="clipPath4491"
       clipPathUnits="userSpaceOnUse">
      <path
         id="path4493"
         clip-rule="evenodd"
         d="m 247.64161,-3713.9386 28.1222,0 0,-6.5613 -28.1222,0 0,6.5613 z" />
    </clipPath>
    <clipPath
       id="clipPath4431"
       clipPathUnits="userSpaceOnUse">
      <path
         id="path4433"
         d="M 0,0 400,0 400,300 0,300 0,0 z" />
    </clipPath>
    <clipPath
       id="clipPath4427"
       clipPathUnits="userSpaceOnUse">
      <path
         id="path4429"
         clip-rule="evenodd"
         d="m 812.62795,-2236 10,0 0,-41.3609 -10,0 0,41.3609 z" />
    </clipPath>
    <clipPath
       id="clipPath4423"
       clipPathUnits="userSpaceOnUse">
      <path
         id="path4425"
         d="M 0,0 400,0 400,300 0,300 0,0 z" />
    </clipPath>
    <clipPath
       id="clipPath4419"
       clipPathUnits="userSpaceOnUse">
      <path
         id="path4421"
         clip-rule="evenodd"
         d="m 929.46653,-2306.8931 43.4195,0 0,-10 -43.4195,0 0,10 z" />
    </clipPath>
    <clipPath
       id="clipPath4415"
       clipPathUnits="userSpaceOnUse">
      <path
         id="path4417"
         d="M 0,0 400,0 400,300 0,300 0,0 z" />
    </clipPath>
    <clipPath
       id="clipPath4411"
       clipPathUnits="userSpaceOnUse">
      <path
         id="path4413"
         clip-rule="evenodd"
         d="m 835.28556,-2225.4584 232.59404,0 0,-69.2776 -232.59404,0 0,69.2776 z" />
    </clipPath>
    <clipPath
       id="clipPath4407"
       clipPathUnits="userSpaceOnUse">
      <path
         id="path4409"
         d="M 0,0 400,0 400,300 0,300 0,0 z" />
    </clipPath>
    <clipPath
       id="clipPath4403"
       clipPathUnits="userSpaceOnUse">
      <path
         id="path4405"
         clip-rule="evenodd"
         d="m 835.18125,-2225.1232 233.03305,0 0,-69.8784 -233.03305,0 0,69.8784 z" />
    </clipPath>
    <clipPath
       id="clipPath4399"
       clipPathUnits="userSpaceOnUse">
      <path
         id="path4401"
         d="M 0,0 400,0 400,300 0,300 0,0 z" />
    </clipPath>
    <clipPath
       id="clipPath4391"
       clipPathUnits="userSpaceOnUse">
      <path
         id="path4393"
         clip-rule="evenodd"
         d="m 812.62795,-2225.1232 255.58705,0 0,-91.77 -255.58705,0 0,91.77 z" />
    </clipPath>
    <clipPath
       id="clipPath4053"
       clipPathUnits="userSpaceOnUse">
      <path
         id="path4055"
         d="M 0,0 400,0 400,300 0,300 0,0 z" />
    </clipPath>
    <clipPath
       id="clipPath4045"
       clipPathUnits="userSpaceOnUse">
      <path
         id="path4047"
         clip-rule="evenodd"
         d="m 126.26905,1431.2732 54.0257,0 0,-10.0057 -54.0257,0 0,10.0057 z" />
    </clipPath>
    <clipPath
       id="clipPath4033"
       clipPathUnits="userSpaceOnUse">
      <path
         id="path4035"
         d="M 0,0 400,0 400,300 0,300 0,0 z" />
    </clipPath>
    <clipPath
       id="clipPath4025"
       clipPathUnits="userSpaceOnUse">
      <path
         id="path4027"
         clip-rule="evenodd"
         d="m 53.25,1499.6157 8.0805,0 0,-33.708 -8.0805,0 0,33.708 z" />
    </clipPath>
    <clipPath
       id="clipPath3121"
       clipPathUnits="userSpaceOnUse">
      <path
         id="path3123"
         d="M 0,0 400,0 400,300 0,300 0,0 z" />
    </clipPath>
    <clipPath
       id="clipPath3113"
       clipPathUnits="userSpaceOnUse">
      <path
         id="path3115"
         clip-rule="evenodd"
         d="m 102.07542,2992.2729 88.0591,0 0,-19.6225 -88.0591,0 0,19.6225 z" />
    </clipPath>
    <clipPath
       id="clipPath3101"
       clipPathUnits="userSpaceOnUse">
      <path
         id="path3103"
         d="M 0,0 400,0 400,300 0,300 0,0 z" />
    </clipPath>
    <clipPath
       id="clipPath3093"
       clipPathUnits="userSpaceOnUse">
      <path
         id="path3095"
         clip-rule="evenodd"
         d="m 27.42857,2993 34.6491,0 0,-23.99 -34.6491,0 0,23.99 z" />
    </clipPath>
    <clipPath
       id="clipPath3069"
       clipPathUnits="userSpaceOnUse">
      <path
         id="path3071"
         d="M 0,0 400,0 400,300 0,300 0,0 z" />
    </clipPath>
    <clipPath
       id="clipPath3061"
       clipPathUnits="userSpaceOnUse">
      <path
         id="path3063"
         clip-rule="evenodd"
         d="m 42,116.48926 61.5,0 0,-32 -61.5,0 0,32 z" />
    </clipPath>
    <clipPath
       id="clipPath3039"
       clipPathUnits="userSpaceOnUse">
      <path
         id="path3041"
         d="M 0,0 400,0 400,300 0,300 0,0 z" />
    </clipPath>
  </defs>
  <sodipodi:namedview
     id="base"
     pagecolor="#ffffff"
     bordercolor="#666666"
     borderopacity="1.0"
     inkscape:pageopacity="0.0"
     inkscape:pageshadow="2"
     inkscape:zoom="1.4"
     inkscape:cx="163.27888"
     inkscape:cy="385.14043"
     inkscape:document-units="px"
     inkscape:current-layer="g3033"
     showgrid="false"
     inkscape:window-width="1492"
     inkscape:window-height="789"
     inkscape:window-x="0"
     inkscape:window-y="142"
     inkscape:window-maximized="0" />
  <metadata
     id="metadata7">
    <rdf:RDF>
      <cc:Work
         rdf:about="">
        <dc:format>image/svg+xml</dc:format>
        <dc:type
           rdf:resource="http://purl.org/dc/dcmitype/StillImage" />
        <dc:title />
      </cc:Work>
    </rdf:RDF>
  </metadata>
  <g
     inkscape:label="Layer 1"
     inkscape:groupmode="layer"
     id="layer1">
    <g
       transform="matrix(1.25,0,0,-1.25,150.29438,726.63565)"
       inkscape:label="2013-spw-venkatraman"
       id="g3031">
      <g
         id="g3033">
        <g
           id="g3049">
          <g
             transform="translate(31.75991,128.11302)"
             id="g3051">
            <path
               id="path3053"
               style="fill:#161412;fill-opacity:1;fill-rule:evenodd;stroke:none"
               d="m 0,0 81.9802,0 0,-55.2475 L 0,-55.2475 0,0 z"
               inkscape:connector-curvature="0" />
            <path
               id="path3055"
               style="fill:none;stroke:#161412;stroke-width:1;stroke-linecap:butt;stroke-linejoin:miter;stroke-miterlimit:10;stroke-opacity:1;stroke-dasharray:none"
               d="m 0,0 81.9802,0 0,-55.2475 L 0,-55.2475 0,0 z"
               inkscape:connector-curvature="0" />
          </g>
        </g>
        <g
           id="g3057">
          <g
             clip-path="url(#clipPath3061)"
             id="g3059">
            <g
               id="g3065">
              <g
                 id="g3067" />
              <g
                 id="g3073">
                <g
                   id="g3075"
                   clip-path="url(#clipPath3069)">
                  <g
                     id="g3077">
                    <g
                       id="g3079"
                       transform="translate(42,116.48926)">
                      <path
                         id="path3081"
                         style="fill:#d8d9da;fill-opacity:1;fill-rule:nonzero;stroke:none"
                         d="M 43.7837,-6.39943 43.7837,0 61.5,0 l 0,-6.39943 -17.7163,0 z m -32.8271,-15.46697 0,21.8664 6.7153,0 0,-21.8664 -6.7153,0 z M 21.914,-32 l 0,32 6.7149,0 0,-32 -6.7149,0 z M 0,-32 0,0 l 6.71534,0 0,-32 L 0,-32 z m 0,0 0,32 6.71534,0 0,-32 L 0,-32 z m 43.828,0 0,21.8664 6.7151,0 0,-21.8664 -6.7151,0 z m -11.0019,25.60057 0,6.39943 6.7598,0 0,-6.39943 -6.7598,0 z"
                         inkscape:connector-curvature="0" />
                    </g>
                  </g>
                  <g
                     id="g3083">
                    <g
                       id="g3085"
                       transform="translate(74.88351,106.38743)">
                      <path
                         id="path3087"
                         style="fill:#ffffff;fill-opacity:1;fill-rule:nonzero;stroke:none"
                         d="M 0,-21.8664 0,0 l 6.7153,0 0,-21.8664 -6.7153,0 z"
                         inkscape:connector-curvature="0" />
                    </g>
                  </g>
                </g>
              </g>
            </g>
          </g>
        </g>
        <g
           id="g3089">
          <g
             clip-path="url(#clipPath3093)"
             id="g3091">
            <g
               id="g3097">
              <g
                 id="g3099" />
              <g
                 id="g3105">
                <g
                   id="g3107"
                   clip-path="url(#clipPath3101)" />
              </g>
            </g>
          </g>
        </g>
        <g
           id="g3109">
          <g
             clip-path="url(#clipPath3113)"
             id="g3111">
            <g
               id="g3117">
              <g
                 id="g3119" />
              <g
                 id="g3125">
                <g
                   id="g3127"
                   clip-path="url(#clipPath3121)" />
              </g>
            </g>
          </g>
        </g>
        <g
           id="g3557">
          <g
             transform="translate(275.31683,138.16832)"
             id="g3559">
            <path
               id="path3561"
               style="fill:#ff0000;fill-opacity:1;fill-rule:evenodd;stroke:none"
               d="m 0,0 1.33663,0 0,-16.4851 L 0,-16.4851 0,0 z"
               inkscape:connector-curvature="0" />
          </g>
        </g>
        <g
           id="g3563">
          <g
             transform="matrix(0.86603,0.5,-0.5,0.86603,91.49033,121.93664)"
             id="g3565">
            <path
               id="path3567"
               style="fill:none;stroke:#ff6600;stroke-width:1;stroke-linecap:butt;stroke-linejoin:miter;stroke-miterlimit:10;stroke-opacity:1;stroke-dasharray:none"
               d="M 0,0 46.78874,0"
               inkscape:connector-curvature="0" />
            <path
               id="path3569"
               style="fill:#ff6600;fill-opacity:1;fill-rule:evenodd;stroke:none"
               d="m -2.45,0 c 0,-1.38 1.12,-2.5 2.5,-2.5 1.38,0 2.5,1.12 2.5,2.5 0,1.38 -1.12,2.5 -2.5,2.5 -1.38,0 -2.5,-1.12 -2.5,-2.5 z"
               inkscape:connector-curvature="0" />
            <path
               id="path3571"
               style="fill:#ff6600;fill-opacity:1;fill-rule:evenodd;stroke:none"
               d="m 49.67374,0 0,0 -4.325,-2.5 0,5 4.325,-2.5 z"
               inkscape:connector-curvature="0" />
          </g>
        </g>
        <g
           id="g3573">
          <g
             transform="matrix(0.78588,-0.61838,0.61838,0.78588,91.49033,112.93664)"
             id="g3575">
            <path
               id="path3577"
               style="fill:none;stroke:#ff6600;stroke-width:1;stroke-linecap:butt;stroke-linejoin:miter;stroke-miterlimit:10;stroke-opacity:1;stroke-dasharray:none"
               d="M 0,0 51.59745,0"
               inkscape:connector-curvature="0" />
            <path
               id="path3579"
               style="fill:#ff6600;fill-opacity:1;fill-rule:evenodd;stroke:none"
               d="m -2.45,0 c 0,-1.38 1.12,-2.5 2.5,-2.5 1.38,0 2.5,1.12 2.5,2.5 0,1.38 -1.12,2.5 -2.5,2.5 -1.38,0 -2.5,-1.12 -2.5,-2.5 z"
               inkscape:connector-curvature="0" />
            <path
               id="path3581"
               style="fill:#ff6600;fill-opacity:1;fill-rule:evenodd;stroke:none"
               d="m 54.48245,0 0,0 -4.325,-2.5 0,5 4.325,-2.5 z"
               inkscape:connector-curvature="0" />
          </g>
        </g>
        <g
           id="g3583">
          <g
             transform="translate(141.48502,115.55446)"
             id="g3585">
            <path
               id="path3587"
               style="fill:none;stroke:#3771c8;stroke-width:1;stroke-linecap:butt;stroke-linejoin:miter;stroke-miterlimit:10;stroke-opacity:1;stroke-dasharray:none"
               d="M 0,0 118.51504,0"
               inkscape:connector-curvature="0" />
            <path
               id="path3589"
               style="fill:#3771c8;fill-opacity:1;fill-rule:evenodd;stroke:none"
               d="m -2.885,0 0,0 4.325,-2.5 0,5 L -2.885,0 z"
               inkscape:connector-curvature="0" />
            <path
               id="path3591"
               style="fill:#3771c8;fill-opacity:1;fill-rule:evenodd;stroke:none"
               d="m 121.40004,0 0,0 -4.325,-2.5 0,5 4.325,-2.5 z"
               inkscape:connector-curvature="0" />
          </g>
        </g>
        <g
           id="g3679">
          <g
             transform="translate(138.31683,130.16832)"
             id="g3681">
            <path
               id="path3683"
               style="fill:#7f7f7f;fill-opacity:1;fill-rule:evenodd;stroke:none"
               d="m 0,0 1.33663,0 0,-7.99998 L 0,-7.99998 0,0 z"
               inkscape:connector-curvature="0" />
          </g>
        </g>
        <g
           id="g3685">
          <g
             transform="translate(163.20572,130.16832)"
             id="g3687">
            <path
               id="path3689"
               style="fill:#7f7f7f;fill-opacity:1;fill-rule:evenodd;stroke:none"
               d="m 0,0 1.33663,0 0,-7.99998 L 0,-7.99998 0,0 z"
               inkscape:connector-curvature="0" />
          </g>
        </g>
        <g
           id="g3691">
          <g
             transform="translate(188.09461,130.16832)"
             id="g3693">
            <path
               id="path3695"
               style="fill:#7f7f7f;fill-opacity:1;fill-rule:evenodd;stroke:none"
               d="m 0,0 1.33663,0 0,-7.99998 L 0,-7.99998 0,0 z"
               inkscape:connector-curvature="0" />
          </g>
        </g>
        <g
           id="g3697">
          <g
             transform="translate(212.9835,130.16832)"
             id="g3699">
            <path
               id="path3701"
               style="fill:#7f7f7f;fill-opacity:1;fill-rule:evenodd;stroke:none"
               d="m 0,0 1.33663,0 0,-7.99998 L 0,-7.99998 0,0 z"
               inkscape:connector-curvature="0" />
          </g>
        </g>
        <g
           id="g3703">
          <g
             transform="translate(237.87239,130.16832)"
             id="g3705">
            <path
               id="path3707"
               style="fill:#7f7f7f;fill-opacity:1;fill-rule:evenodd;stroke:none"
               d="m 0,0 1.33663,0 0,-7.99998 L 0,-7.99998 0,0 z"
               inkscape:connector-curvature="0" />
          </g>
        </g>
        <g
           id="g3709">
          <g
             transform="translate(262.76128,130.16832)"
             id="g3711">
            <path
               id="path3713"
               style="fill:#7f7f7f;fill-opacity:1;fill-rule:evenodd;stroke:none"
               d="m 0,0 1.33663,0 0,-7.99998 L 0,-7.99998 0,0 z"
               inkscape:connector-curvature="0" />
          </g>
        </g>
        <g
           id="g3715">
          <g
             transform="translate(138.36634,123.12871)"
             id="g3717">
            <path
               id="path3719"
               style="fill:#161412;fill-opacity:1;fill-rule:evenodd;stroke:none"
               d="m 0,0 150,0 0,-1.78218 -150,0 L 0,0 z"
               inkscape:connector-curvature="0" />
          </g>
        </g>
        <g
           id="g3721">
          <g
             transform="translate(138.31683,59.16832)"
             id="g3723">
            <path
               id="path3725"
               style="fill:#7f7f7f;fill-opacity:1;fill-rule:evenodd;stroke:none"
               d="m 0,0 1.33663,0 0,-8 L 0,-8 0,0 z"
               inkscape:connector-curvature="0" />
          </g>
        </g>
        <g
           id="g3727">
          <g
             transform="translate(163.20572,59.16832)"
             id="g3729">
            <path
               id="path3731"
               style="fill:#7f7f7f;fill-opacity:1;fill-rule:evenodd;stroke:none"
               d="m 0,0 1.33663,0 0,-8 L 0,-8 0,0 z"
               inkscape:connector-curvature="0" />
          </g>
        </g>
        <g
           id="g3733">
          <g
             transform="translate(264.48501,115.55446)"
             id="g3735">
            <path
               id="path3737"
               style="fill:none;stroke:#008e00;stroke-width:1;stroke-linecap:butt;stroke-linejoin:miter;stroke-miterlimit:10;stroke-opacity:1;stroke-dasharray:none"
               d="M 0,0 9.52418,0"
               inkscape:connector-curvature="0" />
            <path
               id="path3739"
               style="fill:#008e00;fill-opacity:1;fill-rule:evenodd;stroke:none"
               d="m -2.885,0 0,0 4.325,-2.5 0,5 L -2.885,0 z"
               inkscape:connector-curvature="0" />
            <path
               id="path3741"
               style="fill:#008e00;fill-opacity:1;fill-rule:evenodd;stroke:none"
               d="m 12.40918,0 0,0 -4.325,-2.5 0,5 4.325,-2.5 z"
               inkscape:connector-curvature="0" />
          </g>
        </g>
        <g
           id="g3813">
          <g
             transform="translate(178.31683,67.16832)"
             id="g3815">
            <path
               id="path3817"
               style="fill:#ff0000;fill-opacity:1;fill-rule:evenodd;stroke:none"
               d="m 0,0 1.33663,0 0,-16.4851 L 0,-16.4851 0,0 z"
               inkscape:connector-curvature="0" />
          </g>
        </g>
        <g
           id="g3819">
          <g
             transform="translate(141.48502,44.55446)"
             id="g3821">
            <path
               id="path3823"
               style="fill:none;stroke:#3771c8;stroke-width:1;stroke-linecap:butt;stroke-linejoin:miter;stroke-miterlimit:10;stroke-opacity:1;stroke-dasharray:none"
               d="M 0,0 19.34269,0"
               inkscape:connector-curvature="0" />
            <path
               id="path3825"
               style="fill:#3771c8;fill-opacity:1;fill-rule:evenodd;stroke:none"
               d="m -2.885,0 0,0 4.325,-2.5 0,5 L -2.885,0 z"
               inkscape:connector-curvature="0" />
            <path
               id="path3827"
               style="fill:#3771c8;fill-opacity:1;fill-rule:evenodd;stroke:none"
               d="m 22.22769,0 0,0 -4.325,-2.5 0,5 4.325,-2.5 z"
               inkscape:connector-curvature="0" />
          </g>
        </g>
        <g
           id="g3829">
          <g
             transform="translate(166.48501,44.55446)"
             id="g3831">
            <path
               id="path3833"
               style="fill:none;stroke:#008e00;stroke-width:1;stroke-linecap:butt;stroke-linejoin:miter;stroke-miterlimit:10;stroke-opacity:1;stroke-dasharray:none"
               d="M 0,0 9.52418,0"
               inkscape:connector-curvature="0" />
            <path
               id="path3835"
               style="fill:#008e00;fill-opacity:1;fill-rule:evenodd;stroke:none"
               d="m -2.885,0 0,0 4.325,-2.5 0,5 L -2.885,0 z"
               inkscape:connector-curvature="0" />
            <path
               id="path3837"
               style="fill:#008e00;fill-opacity:1;fill-rule:evenodd;stroke:none"
               d="m 12.40918,0 0,0 -4.325,-2.5 0,5 4.325,-2.5 z"
               inkscape:connector-curvature="0" />
          </g>
        </g>
        <g
           id="g3839">
          <g
             transform="translate(138.36634,52.12871)"
             id="g3841">
            <path
               id="path3843"
               style="fill:#161412;fill-opacity:1;fill-rule:evenodd;stroke:none"
               d="m 0,0 50,0 0,-1.78218 -50,0 L 0,0 z"
               inkscape:connector-curvature="0" />
          </g>
        </g>
        <g
           id="g4021">
          <g
             clip-path="url(#clipPath4025)"
             id="g4023">
            <g
               id="g4029">
              <g
                 id="g4031" />
              <g
                 id="g4037">
                <g
                   id="g4039"
                   clip-path="url(#clipPath4033)" />
              </g>
            </g>
          </g>
        </g>
        <g
           id="g4041">
          <g
             clip-path="url(#clipPath4045)"
             id="g4043">
            <g
               id="g4049">
              <g
                 id="g4051" />
              <g
                 id="g4057">
                <g
                   id="g4059"
                   clip-path="url(#clipPath4053)" />
              </g>
            </g>
          </g>
        </g>
        <g
           id="g4387">
          <g
             clip-path="url(#clipPath4391)"
             id="g4389">
            <g
               id="g4395">
              <g
                 id="g4397" />
              <g
                 id="g4435">
                <g
                   id="g4437"
                   clip-path="url(#clipPath4399)">
                  <g
                     id="g4439">
                    <g
                       id="g4441"
                       clip-path="url(#clipPath4403)">
                      <g
                         id="g4443">
                        <g
                           id="g4445" />
                        <g
                           id="g4447">
                          <g
                             id="g4449"
                             clip-path="url(#clipPath4407)">
                            <g
                               id="g4451">
                              <g
                                 id="g4453"
                                 clip-path="url(#clipPath4411)">
                                <g
                                   id="g4455">
                                <g
                                   id="g4457" />
                                <g
                                   id="g4459">
                                <g
                                   id="g4461"
                                   clip-path="url(#clipPath4415)" />
                                </g>
                                </g>
                              </g>
                            </g>
                          </g>
                        </g>
                      </g>
                    </g>
                  </g>
                  <g
                     id="g4463">
                    <g
                       id="g4465"
                       clip-path="url(#clipPath4419)">
                      <g
                         id="g4467">
                        <g
                           id="g4469" />
                        <g
                           id="g4471">
                          <g
                             id="g4473"
                             clip-path="url(#clipPath4423)" />
                        </g>
                      </g>
                    </g>
                  </g>
                  <g
                     id="g4475">
                    <g
                       id="g4477"
                       clip-path="url(#clipPath4427)">
                      <g
                         id="g4479">
                        <g
                           id="g4481" />
                        <g
                           id="g4483">
                          <g
                             id="g4485"
                             clip-path="url(#clipPath4431)" />
                        </g>
                      </g>
                    </g>
                  </g>
                </g>
              </g>
            </g>
          </g>
        </g>
        <g
           id="g4487">
          <g
             clip-path="url(#clipPath4491)"
             id="g4489">
            <g
               id="g4495">
              <g
                 id="g4497" />
              <g
                 id="g4503">
                <g
                   id="g4505"
                   clip-path="url(#clipPath4499)" />
              </g>
            </g>
          </g>
        </g>
        <g
           id="g4507">
          <g
             clip-path="url(#clipPath4511)"
             id="g4509">
            <g
               id="g4515">
              <g
                 id="g4517" />
              <g
                 id="g4523">
                <g
                   id="g4525"
                   clip-path="url(#clipPath4519)" />
              </g>
            </g>
          </g>
        </g>
        <text
           xml:space="preserve"
           style="font-size:8.1231966px;font-style:normal;font-weight:normal;line-height:125%;letter-spacing:0px;word-spacing:0px;fill:#008e00;fill-opacity:1;stroke:none;font-family:Sans"
           x="260.66782"
           y="-100.48863"
           id="text5275"
           sodipodi:linespacing="125%"
           transform="scale(1,-1)"><tspan
             sodipodi:role="line"
             id="tspan5277"
             x="260.66782"
             y="-100.48863"
             style="fill:#008e00;fill-opacity:1;font-family:Latin Modern Roman;-inkscape-font-specification:Latin Modern Roman">Depth information</tspan></text>
        <text
           xml:space="preserve"
           style="font-size:8.1231966px;font-style:normal;font-weight:normal;line-height:125%;letter-spacing:0px;word-spacing:0px;fill:#3771c8;fill-opacity:1;stroke:none;font-family:Sans"
           x="141.44421"
           y="-100.39928"
           id="text5275-2"
           sodipodi:linespacing="125%"
           transform="scale(1,-1)"><tspan
             sodipodi:role="line"
             id="tspan5277-7"
             x="141.44421"
             y="-100.39928"
             style="fill:#3771c8;fill-opacity:1;font-family:Latin Modern Roman;-inkscape-font-specification:Latin Modern Roman">Reflectivity information</tspan></text>
        <text
           xml:space="preserve"
           style="font-size:8.1231966px;font-style:normal;font-weight:normal;line-height:125%;letter-spacing:0px;word-spacing:0px;fill:#008e00;fill-opacity:1;stroke:none;font-family:Sans"
           x="166.16066"
           y="-30.736277"
           id="text5275-9"
           sodipodi:linespacing="125%"
           transform="scale(1,-1)"><tspan
             sodipodi:role="line"
             id="tspan5277-1"
             x="166.16066"
             y="-30.736277"
             style="fill:#008e00;fill-opacity:1;font-family:Latin Modern Roman;-inkscape-font-specification:Latin Modern Roman">Depth information</tspan></text>
        <text
           xml:space="preserve"
           style="font-size:8.1231966px;font-style:normal;font-weight:normal;line-height:125%;letter-spacing:0px;word-spacing:0px;fill:#3771c8;fill-opacity:1;stroke:none;font-family:Sans"
           x="78.518219"
           y="-30.646921"
           id="text5275-2-2"
           sodipodi:linespacing="125%"
           transform="scale(1,-1)"><tspan
             sodipodi:role="line"
             id="tspan5277-7-1"
             x="78.518219"
             y="-30.646921"
             style="fill:#3771c8;fill-opacity:1;font-family:Latin Modern Roman;-inkscape-font-specification:Latin Modern Roman">Reflectivity information</tspan></text>
        <g
           transform="scale(1,-1)"
           style="font-size:8.1231966px;font-style:normal;font-weight:normal;line-height:125%;letter-spacing:0px;word-spacing:0px;fill:#3771c8;fill-opacity:1;stroke:none;font-family:Sans"
           id="text5275-2-1">
          <path
             d="m 143.78065,-146.32853 -0.20308,0 c -0.0894,0.82857 -0.20308,1.84397 -1.63276,1.84397 l -0.66611,0 c -0.38179,0 -0.39803,-0.0569 -0.39803,-0.32493 l 0,-4.32966 c 0,-0.27619 0,-0.38992 0.7717,-0.38992 l 0.26807,0 0,-0.25182 c -0.29244,0.0244 -1.03165,0.0244 -1.3647,0.0244 -0.3168,0 -0.95041,0 -1.23473,-0.0244 l 0,0.25182 0.19496,0 c 0.62549,0 0.64173,0.0894 0.64173,0.38179 l 0,4.28093 c 0,0.29243 -0.0162,0.38179 -0.64173,0.38179 l -0.19496,0 0,0.25182 4.23219,0 0.22745,-2.09579"
             style="font-family:Latin Modern Roman;-inkscape-font-specification:Latin Modern Roman"
             id="path3458" />
          <path
             d="m 147.95597,-145.97111 c 0,-1.03976 -0.81232,-1.90082 -1.79523,-1.90082 -1.01539,0 -1.80334,0.88543 -1.80334,1.90082 0,1.04789 0.84481,1.82772 1.79522,1.82772 0.98291,0 1.80335,-0.79607 1.80335,-1.82772 m -0.67422,-0.065 c 0,0.29243 0,0.73109 -0.17871,1.08851 -0.17871,0.36554 -0.53614,0.60111 -0.9423,0.60111 -0.34929,0 -0.70671,-0.17058 -0.92604,-0.54425 -0.20308,-0.35742 -0.20308,-0.85294 -0.20308,-1.14537 0,-0.31681 0,-0.75546 0.19496,-1.11288 0.21932,-0.37367 0.60111,-0.54425 0.92604,-0.54425 0.35742,0 0.70672,0.17871 0.91792,0.528 0.21121,0.3493 0.21121,0.82045 0.21121,1.12913"
             style="font-family:Latin Modern Roman;-inkscape-font-specification:Latin Modern Roman"
             id="path3460" />
          <path
             d="m 153.68003,-147.48202 0,-0.25182 c -0.17871,0.0162 -0.41428,0.0244 -0.59299,0.0244 l -0.75546,-0.0244 0,0.25182 c 0.29244,0.008 0.47115,0.15434 0.47115,0.38991 0,0.0487 0,0.065 -0.0406,0.17059 l -0.73921,2.07954 -0.8042,-2.26637 c -0.0325,-0.0975 -0.0406,-0.11373 -0.0406,-0.15434 0,-0.21933 0.3168,-0.21933 0.47927,-0.21933 l 0,-0.25182 -0.84482,0.0244 c -0.24369,0 -0.47926,-0.008 -0.72296,-0.0244 l 0,0.25182 c 0.30056,0 0.43053,0.0163 0.51176,0.12185 0.0406,0.0487 0.12997,0.29243 0.18683,0.44677 l -0.69859,1.96582 -0.7717,-2.1689 c -0.0406,-0.0975 -0.0406,-0.11372 -0.0406,-0.14621 0,-0.21933 0.3168,-0.21933 0.47927,-0.21933 l 0,-0.25182 -0.88543,0.0244 -0.75546,-0.0244 0,0.25182 c 0.40616,0 0.50364,0.0244 0.60112,0.28431 l 1.02352,2.87561 c 0.0406,0.11373 0.065,0.17871 0.17059,0.17871 0.1056,0 0.12185,-0.0487 0.16246,-0.16246 l 0.82045,-2.29887 0.82856,2.30699 c 0.0325,0.0894 0.0569,0.15434 0.16247,0.15434 0.1056,0 0.12997,-0.0731 0.16246,-0.15434 l 0.95041,-2.66441 c 0.14622,-0.40616 0.39804,-0.51176 0.68235,-0.51988"
             style="font-family:Latin Modern Roman;-inkscape-font-specification:Latin Modern Roman"
             id="path3462" />
          <path
             d="m 159.50957,-147.32768 c 0,-0.25994 -0.25182,-0.49552 -0.60112,-0.49552 -0.59299,0 -0.88543,0.54426 -0.99915,0.89356 l 0,-0.89356 -1.12913,0.0894 0,0.25182 c 0.56863,0 0.63361,0.0569 0.63361,0.4549 l 0,2.17701 c 0,0.36555 -0.0893,0.36555 -0.63361,0.36555 l 0,0.25182 0.92605,-0.0244 c 0.32493,0 0.70672,0 1.03164,0.0244 l 0,-0.25182 -0.17058,0 c -0.60112,0 -0.61737,-0.0894 -0.61737,-0.38179 l 0,-1.25097 c 0,-0.8042 0.34118,-1.52716 0.95854,-1.52716 0.0569,0 0.0731,0 0.0894,0.008 -0.0244,0.008 -0.18684,0.1056 -0.18684,0.3168 0,0.22745 0.17059,0.3493 0.3493,0.3493 0.14622,0 0.3493,-0.0975 0.3493,-0.35742"
             style="font-family:Latin Modern Roman;-inkscape-font-specification:Latin Modern Roman"
             id="path3464" />
          <path
             d="m 163.11284,-145.1994 c 0,-0.0812 -0.065,-0.0975 -0.1056,-0.0975 -0.0731,0 -0.0894,0.0487 -0.1056,0.11372 -0.28431,0.83669 -1.0154,0.83669 -1.09663,0.83669 -0.40616,0 -0.73109,-0.24369 -0.91792,-0.54425 -0.2437,-0.38991 -0.2437,-0.92605 -0.2437,-1.21848 l 2.26637,0 c 0.17871,0 0.20308,0 0.20308,-0.17059 0,-0.80419 -0.43865,-1.59214 -1.45405,-1.59214 -0.94229,0 -1.68963,0.83669 -1.68963,1.85208 0,1.08851 0.85294,1.87646 1.78711,1.87646 0.99103,0 1.35657,-0.90167 1.35657,-1.05601 m -0.53613,-1.08039 -1.9252,0 c 0.0487,-1.21035 0.73109,-1.41343 1.00728,-1.41343 0.83669,0 0.91792,1.09663 0.91792,1.41343"
             style="font-family:Latin Modern Roman;-inkscape-font-specification:Latin Modern Roman"
             id="path3466" />
          <path
             d="m 167.62413,-144.23274 0,-0.25182 c -0.54425,0 -0.6336,0 -0.6336,-0.36555 l 0,-5.02013 -0.29244,0.0487 c -0.0325,0 -0.0406,-0.008 -0.0731,-0.0244 -0.25994,-0.11373 -0.59299,-0.11373 -0.68235,-0.11373 -0.85293,0 -1.73836,0.4549 -1.73836,1.29972 l 0,0.92604 -0.64173,0 0,0.25182 0.64173,0 0,2.63191 c 0,0.36555 -0.0894,0.36555 -0.63361,0.36555 l 0,0.25182 0.90167,-0.0244 0.90168,0.0244 0,-0.25182 c -0.54425,0 -0.63361,0 -0.63361,-0.36555 l 0,-2.63191 1.71399,0 0,2.63191 c 0,0.36555 -0.0893,0.36555 -0.6336,0.36555 l 0,0.25182 0.90167,-0.0244 0.90167,0.0244 m -1.16974,-3.5011 -1.73836,0 0,-0.91792 c 0,-0.75546 0.61736,-1.12913 1.21848,-1.12913 0.0731,0 0.29244,0 0.51988,0.0731 -0.0731,0.0325 -0.20308,0.11373 -0.20308,0.32493 0,0.14622 0.065,0.26807 0.20308,0.31681 l 0,1.3322"
             style="font-family:Latin Modern Roman;-inkscape-font-specification:Latin Modern Roman"
             id="path3468" />
          <path
             d="m 171.23604,-145.1994 c 0,-0.0812 -0.065,-0.0975 -0.1056,-0.0975 -0.0731,0 -0.0894,0.0487 -0.10561,0.11372 -0.28431,0.83669 -1.0154,0.83669 -1.09663,0.83669 -0.40616,0 -0.73109,-0.24369 -0.91792,-0.54425 -0.24369,-0.38991 -0.2437,-0.92605 -0.2437,-1.21848 l 2.26638,0 c 0.17871,0 0.20308,0 0.20308,-0.17059 0,-0.80419 -0.43866,-1.59214 -1.45406,-1.59214 -0.94229,0 -1.68962,0.83669 -1.68962,1.85208 0,1.08851 0.85294,1.87646 1.7871,1.87646 0.99103,0 1.35658,-0.90167 1.35658,-1.05601 m -0.53613,-1.08039 -1.9252,0 c 0.0487,-1.21035 0.73109,-1.41343 1.00727,-1.41343 0.83669,0 0.91793,1.09663 0.91793,1.41343"
             style="font-family:Latin Modern Roman;-inkscape-font-specification:Latin Modern Roman"
             id="path3470" />
          <path
             d="m 174.83753,-145.1994 c 0,-0.0812 -0.0812,-0.0812 -0.1056,-0.0812 -0.0731,0 -0.0893,0.0325 -0.1056,0.0812 -0.23557,0.75545 -0.76358,0.85293 -1.06414,0.85293 -0.43053,0 -1.14537,-0.3493 -1.14537,-1.65713 0,-1.32408 0.6661,-1.66525 1.09663,-1.66525 0.0731,0 0.58487,0.008 0.86919,0.30055 -0.33306,0.0244 -0.38179,0.26807 -0.38179,0.37367 0,0.2112 0.14621,0.37367 0.37366,0.37367 0.21121,0 0.37367,-0.1381 0.37367,-0.38179 0,-0.55238 -0.61736,-0.86918 -1.24285,-0.86918 -1.0154,0 -1.76273,0.8773 -1.76273,1.88458 0,1.03977 0.80419,1.84396 1.74648,1.84396 1.08851,0 1.34845,-0.97478 1.34845,-1.05601"
             style="font-family:Latin Modern Roman;-inkscape-font-specification:Latin Modern Roman"
             id="path3472" />
          <path
             d="m 177.7648,-145.24002 0,-0.46302 -0.20308,0 0,0.44677 c 0,0.60112 -0.24369,0.9098 -0.54425,0.9098 -0.54425,0 -0.54426,-0.73921 -0.54426,-0.8773 l 0,-2.25825 1.16162,0 0,-0.25182 -1.16162,0 0,-1.49467 -0.20308,0 c -0.008,0.6661 -0.25182,1.53529 -1.04789,1.56778 l 0,0.17871 0.69047,0 0,2.242 c 0,0.99915 0.75546,1.09663 1.0479,1.09663 0.57674,0 0.80419,-0.57674 0.80419,-1.09663"
             style="font-family:Latin Modern Roman;-inkscape-font-specification:Latin Modern Roman"
             id="path3474" />
          <path
             d="m 180.23159,-144.23274 0,-0.25182 c -0.53613,0 -0.56863,-0.0406 -0.56863,-0.35742 l 0,-2.98122 -1.13724,0.0894 0,0.25182 c 0.528,0 0.60111,0.0487 0.60111,0.44677 l 0,2.18514 c 0,0.36555 -0.0894,0.36555 -0.63361,0.36555 l 0,0.25182 0.89356,-0.0244 c 0.28431,0 0.56862,0.0162 0.84481,0.0244 m -0.44678,-4.90641 c 0,-0.21933 -0.18683,-0.43053 -0.43053,-0.43053 -0.27619,0 -0.43865,0.22745 -0.43865,0.43053 0,0.21932 0.18683,0.43053 0.43053,0.43053 0.27619,0 0.43865,-0.22745 0.43865,-0.43053"
             style="font-family:Latin Modern Roman;-inkscape-font-specification:Latin Modern Roman"
             id="path3476" />
          <path
             d="m 184.60466,-147.48202 0,-0.25182 c -0.18683,0.0162 -0.42241,0.0244 -0.60924,0.0244 l -0.70672,-0.0244 0,0.25182 c 0.30056,0.008 0.38992,0.19496 0.38992,0.3493 0,0.0731 -0.0162,0.1056 -0.0487,0.19495 l -0.82857,2.07142 -0.9098,-2.26637 c -0.0487,-0.1056 -0.0487,-0.1381 -0.0487,-0.1381 0,-0.2112 0.31681,-0.2112 0.46303,-0.2112 l 0,-0.25182 -0.88543,0.0244 c -0.21933,0 -0.54426,-0.008 -0.78795,-0.0244 l 0,0.25182 c 0.51176,0 0.54425,0.0487 0.64985,0.30056 l 1.16974,2.88373 c 0.0487,0.11373 0.065,0.15434 0.17059,0.15434 0.1056,0 0.1381,-0.0731 0.17059,-0.15434 l 1.06414,-2.64004 c 0.0731,-0.18683 0.2112,-0.53613 0.74733,-0.54425"
             style="font-family:Latin Modern Roman;-inkscape-font-specification:Latin Modern Roman"
             id="path3478" />
          <path
             d="m 186.76822,-144.23274 0,-0.25182 c -0.53613,0 -0.56862,-0.0406 -0.56862,-0.35742 l 0,-2.98122 -1.13725,0.0894 0,0.25182 c 0.52801,0 0.60112,0.0487 0.60112,0.44677 l 0,2.18514 c 0,0.36555 -0.0894,0.36555 -0.63361,0.36555 l 0,0.25182 0.89355,-0.0244 c 0.28431,0 0.56863,0.0162 0.84481,0.0244 m -0.44677,-4.90641 c 0,-0.21933 -0.18683,-0.43053 -0.43053,-0.43053 -0.27619,0 -0.43865,0.22745 -0.43865,0.43053 0,0.21932 0.18683,0.43053 0.43053,0.43053 0.27618,0 0.43865,-0.22745 0.43865,-0.43053"
             style="font-family:Latin Modern Roman;-inkscape-font-specification:Latin Modern Roman"
             id="path3480" />
          <path
             d="m 189.71161,-145.24002 0,-0.46302 -0.20308,0 0,0.44677 c 0,0.60112 -0.24369,0.9098 -0.54425,0.9098 -0.54425,0 -0.54425,-0.73921 -0.54425,-0.8773 l 0,-2.25825 1.16161,0 0,-0.25182 -1.16161,0 0,-1.49467 -0.20308,0 c -0.008,0.6661 -0.25182,1.53529 -1.0479,1.56778 l 0,0.17871 0.69048,0 0,2.242 c 0,0.99915 0.75545,1.09663 1.04789,1.09663 0.57674,0 0.80419,-0.57674 0.80419,-1.09663"
             style="font-family:Latin Modern Roman;-inkscape-font-specification:Latin Modern Roman"
             id="path3482" />
          <path
             d="m 194.07644,-147.48202 0,-0.25182 c -0.18684,0.0162 -0.42241,0.0244 -0.60924,0.0244 l -0.70672,-0.0244 0,0.25182 c 0.25182,0.008 0.38179,0.14622 0.38179,0.3493 0,0.0812 -0.008,0.0975 -0.0487,0.19495 l -0.82044,1.99831 -0.90168,-2.18514 c -0.0325,-0.0812 -0.0487,-0.11373 -0.0487,-0.14622 0,-0.2112 0.30056,-0.2112 0.4549,-0.2112 l 0,-0.25182 -0.88543,0.0244 c -0.21932,0 -0.54425,-0.008 -0.78795,-0.0244 l 0,0.25182 c 0.38992,0 0.54426,0 0.65798,0.28431 l 1.21848,2.96497 -0.20308,0.47927 c -0.17871,0.44677 -0.40616,1.00727 -0.92604,1.00727 -0.0406,0 -0.22745,0 -0.38179,-0.14621 0.25182,-0.0325 0.3168,-0.21121 0.3168,-0.34118 0,-0.2112 -0.15434,-0.34117 -0.34117,-0.34117 -0.16247,0 -0.34118,0.1056 -0.34118,0.34929 0,0.36555 0.34118,0.65798 0.74734,0.65798 0.51176,0 0.84481,-0.46302 1.03977,-0.92604 l 1.42968,-3.46861 c 0.2112,-0.51176 0.62548,-0.51988 0.75546,-0.51988"
             style="font-family:Latin Modern Roman;-inkscape-font-specification:Latin Modern Roman"
             id="path3484" />
          <path
             d="m 199.90343,-147.32768 c 0,-0.25994 -0.25182,-0.49552 -0.60111,-0.49552 -0.593,0 -0.88543,0.54426 -0.99916,0.89356 l 0,-0.89356 -1.12912,0.0894 0,0.25182 c 0.56862,0 0.63361,0.0569 0.63361,0.4549 l 0,2.17701 c 0,0.36555 -0.0894,0.36555 -0.63361,0.36555 l 0,0.25182 0.92604,-0.0244 c 0.32493,0 0.70672,0 1.03165,0.0244 l 0,-0.25182 -0.17059,0 c -0.60111,0 -0.61736,-0.0894 -0.61736,-0.38179 l 0,-1.25097 c 0,-0.8042 0.34118,-1.52716 0.95854,-1.52716 0.0569,0 0.0731,0 0.0893,0.008 -0.0244,0.008 -0.18683,0.1056 -0.18683,0.3168 0,0.22745 0.17059,0.3493 0.3493,0.3493 0.14621,0 0.34929,-0.0975 0.34929,-0.35742"
             style="font-family:Latin Modern Roman;-inkscape-font-specification:Latin Modern Roman"
             id="path3486" />
          <path
             d="m 203.5067,-145.1994 c 0,-0.0812 -0.065,-0.0975 -0.1056,-0.0975 -0.0731,0 -0.0894,0.0487 -0.1056,0.11372 -0.28431,0.83669 -1.0154,0.83669 -1.09663,0.83669 -0.40616,0 -0.73109,-0.24369 -0.91792,-0.54425 -0.2437,-0.38991 -0.2437,-0.92605 -0.2437,-1.21848 l 2.26637,0 c 0.17871,0 0.20308,0 0.20308,-0.17059 0,-0.80419 -0.43865,-1.59214 -1.45405,-1.59214 -0.94229,0 -1.68962,0.83669 -1.68962,1.85208 0,1.08851 0.85293,1.87646 1.7871,1.87646 0.99103,0 1.35657,-0.90167 1.35657,-1.05601 m -0.53613,-1.08039 -1.92519,0 c 0.0487,-1.21035 0.73108,-1.41343 1.00727,-1.41343 0.83669,0 0.91792,1.09663 0.91792,1.41343"
             style="font-family:Latin Modern Roman;-inkscape-font-specification:Latin Modern Roman"
             id="path3488" />
          <path
             d="m 207.67683,-147.51451 c 0,-0.1381 -0.0975,-0.39804 -0.41429,-0.39804 -0.16246,0 -0.51988,0.0487 -0.86106,0.38179 -0.34117,-0.26807 -0.68234,-0.29244 -0.86105,-0.29244 -0.75546,0 -1.31596,0.56051 -1.31596,1.18599 0,0.35742 0.17871,0.6661 0.38179,0.83669 -0.1056,0.12185 -0.25182,0.38991 -0.25182,0.67423 0,0.25181 0.1056,0.5605 0.35742,0.72296 -0.48739,0.13809 -0.74733,0.48739 -0.74733,0.81232 0,0.58487 0.80419,1.03165 1.79522,1.03165 0.95854,0 1.80335,-0.41429 1.80335,-1.0479 0,-0.28431 -0.11372,-0.69859 -0.52801,-0.92604 -0.43053,-0.22745 -0.90167,-0.22745 -1.39719,-0.22745 -0.20308,0 -0.55237,0 -0.60924,-0.008 -0.25994,-0.0325 -0.43053,-0.28432 -0.43053,-0.54426 0,-0.0325 0,-0.21932 0.1381,-0.38179 0.3168,0.22745 0.64985,0.25182 0.8042,0.25182 0.75545,0 1.31595,-0.5605 1.31595,-1.18599 0,-0.30055 -0.12997,-0.60111 -0.33305,-0.78795 0.29244,-0.27618 0.58487,-0.3168 0.73109,-0.3168 0,0 0.0569,0 0.0812,0.008 -0.0893,0.0325 -0.12997,0.12185 -0.12997,0.21933 0,0.13809 0.1056,0.23557 0.23557,0.23557 0.0812,0 0.23558,-0.0569 0.23558,-0.24369 m -1.42969,0.8773 c 0,0.21933 -0.008,0.47927 -0.12997,0.68235 -0.065,0.0975 -0.25182,0.32493 -0.57674,0.32493 -0.70672,0 -0.70672,-0.81232 -0.70672,-0.99916 0,-0.21932 0.008,-0.47926 0.12997,-0.68234 0.065,-0.0975 0.25182,-0.32493 0.57675,-0.32493 0.70671,0 0.70671,0.81232 0.70671,0.99915 m 0.89356,3.0462 c 0,0.43865 -0.57675,0.84481 -1.37283,0.84481 -0.82044,0 -1.38094,-0.41428 -1.38094,-0.84481 0,-0.37367 0.30868,-0.67423 0.6661,-0.69859 l 0.47927,0 c 0.6986,0 1.6084,0 1.6084,0.69859"
             style="font-family:Latin Modern Roman;-inkscape-font-specification:Latin Modern Roman"
             id="path3490" />
          <path
             d="m 209.80511,-144.23274 0,-0.25182 c -0.53614,0 -0.56863,-0.0406 -0.56863,-0.35742 l 0,-2.98122 -1.13725,0.0894 0,0.25182 c 0.52801,0 0.60112,0.0487 0.60112,0.44677 l 0,2.18514 c 0,0.36555 -0.0894,0.36555 -0.63361,0.36555 l 0,0.25182 0.89355,-0.0244 c 0.28431,0 0.56863,0.0162 0.84482,0.0244 m -0.44678,-4.90641 c 0,-0.21933 -0.18683,-0.43053 -0.43053,-0.43053 -0.27619,0 -0.43865,0.22745 -0.43865,0.43053 0,0.21932 0.18683,0.43053 0.43053,0.43053 0.27619,0 0.43865,-0.22745 0.43865,-0.43053"
             style="font-family:Latin Modern Roman;-inkscape-font-specification:Latin Modern Roman"
             id="path3492" />
          <path
             d="m 213.87762,-145.97111 c 0,-1.03976 -0.81233,-1.90082 -1.79523,-1.90082 -1.0154,0 -1.80335,0.88543 -1.80335,1.90082 0,1.04789 0.84481,1.82772 1.79523,1.82772 0.9829,0 1.80335,-0.79607 1.80335,-1.82772 m -0.67423,-0.065 c 0,0.29243 0,0.73109 -0.17871,1.08851 -0.17871,0.36554 -0.53613,0.60111 -0.94229,0.60111 -0.3493,0 -0.70672,-0.17058 -0.92605,-0.54425 -0.20308,-0.35742 -0.20308,-0.85294 -0.20308,-1.14537 0,-0.31681 0,-0.75546 0.19496,-1.11288 0.21933,-0.37367 0.60112,-0.54425 0.92605,-0.54425 0.35742,0 0.70671,0.17871 0.91792,0.528 0.2112,0.3493 0.2112,0.82045 0.2112,1.12913"
             style="font-family:Latin Modern Roman;-inkscape-font-specification:Latin Modern Roman"
             id="path3494" />
          <path
             d="m 218.4591,-144.23274 0,-0.25182 c -0.42241,0 -0.62549,0 -0.63361,-0.2437 l 0,-1.55153 c 0,-0.69859 0,-0.95041 -0.25182,-1.24285 -0.11372,-0.13809 -0.38179,-0.30056 -0.85293,-0.30056 -0.593,0 -0.97479,0.3493 -1.20224,0.85294 l 0,-0.85294 -1.14537,0.0894 0,0.25182 c 0.56863,0 0.63361,0.0569 0.63361,0.4549 l 0,2.17701 c 0,0.36555 -0.0893,0.36555 -0.63361,0.36555 l 0,0.25182 0.91792,-0.0244 0.9098,0.0244 0,-0.25182 c -0.54425,0 -0.63361,0 -0.63361,-0.36555 l 0,-1.49466 c 0,-0.84482 0.57675,-1.29971 1.09663,-1.29971 0.51176,0 0.60112,0.43865 0.60112,0.90167 l 0,1.8927 c 0,0.36555 -0.0894,0.36555 -0.63361,0.36555 l 0,0.25182 0.91792,-0.0244 0.9098,0.0244"
             style="font-family:Latin Modern Roman;-inkscape-font-specification:Latin Modern Roman"
             id="path3496" />
        </g>
        <text
           xml:space="preserve"
           style="font-size:8.1231966px;font-style:normal;font-weight:normal;line-height:125%;letter-spacing:0px;word-spacing:0px;fill:#3771c8;fill-opacity:1;stroke:none;font-family:Sans"
           x="139.05295"
           y="-78.039841"
           id="text5275-2-1-6"
           sodipodi:linespacing="125%"
           transform="scale(1,-1)"><tspan
             sodipodi:role="line"
             id="tspan5277-7-19-3"
             x="139.05295"
             y="-78.039841"
             style="fill:#000000;fill-opacity:1;font-family:Latin Modern Roman;-inkscape-font-specification:Latin Modern Roman">High reflectivity region</tspan></text>
      </g>
    </g>
  </g>
</svg>
