<?xml version="1.0" encoding="UTF-8" standalone="no"?>
<!-- Created with Inkscape (http://www.inkscape.org/) -->

<svg
   xmlns:dc="http://purl.org/dc/elements/1.1/"
   xmlns:cc="http://creativecommons.org/ns#"
   xmlns:rdf="http://www.w3.org/1999/02/22-rdf-syntax-ns#"
   xmlns:svg="http://www.w3.org/2000/svg"
   xmlns="http://www.w3.org/2000/svg"
   xmlns:sodipodi="http://sodipodi.sourceforge.net/DTD/sodipodi-0.dtd"
   xmlns:inkscape="http://www.inkscape.org/namespaces/inkscape"
   id="svg10748"
   version="1.1"
   inkscape:version="0.48.4 r9939"
   width="703.75"
   height="732.5"
   xml:space="preserve"
   sodipodi:docname="figure-pcoct-dpplot.svg"><metadata
     id="metadata10754"><rdf:RDF><cc:Work
         rdf:about=""><dc:format>image/svg+xml</dc:format><dc:type
           rdf:resource="http://purl.org/dc/dcmitype/StillImage" /><dc:title></dc:title></cc:Work></rdf:RDF></metadata><defs
     id="defs10752" /><sodipodi:namedview
     pagecolor="#ffffff"
     bordercolor="#666666"
     borderopacity="1"
     objecttolerance="10"
     gridtolerance="10"
     guidetolerance="10"
     inkscape:pageopacity="0"
     inkscape:pageshadow="2"
     inkscape:window-width="1920"
     inkscape:window-height="1025"
     id="namedview10750"
     showgrid="false"
     inkscape:zoom="0.6443686"
     inkscape:cx="865.13491"
     inkscape:cy="521.38004"
     inkscape:window-x="0"
     inkscape:window-y="26"
     inkscape:window-maximized="1"
     inkscape:current-layer="g10758" /><g
     id="g10756"
     inkscape:groupmode="layer"
     inkscape:label="figure-pcoct-dpplot"
     transform="matrix(1.25,0,0,-1.25,0,732.5)"><g
       id="g10758"
       transform="scale(0.1,0.1)"><g
         id="g11764"><path
           id="path10760"
           style="fill:none;stroke:#ffffff;stroke-opacity:1;stroke-width:5;stroke-linecap:butt;stroke-linejoin:round;stroke-miterlimit:10;stroke-dasharray:none"
           d="m 404,4364 0,1464 5120,0 0,-1464 -5120,0" /><path
           id="path10762"
           style="fill:none;stroke:#000000;stroke-opacity:1;stroke-width:5;stroke-linecap:butt;stroke-linejoin:round;stroke-miterlimit:10;stroke-dasharray:none"
           d="m 404,4364 5120,0" /><path
           id="path10764"
           style="fill:none;stroke:#000000;stroke-opacity:1;stroke-width:5;stroke-linecap:butt;stroke-linejoin:round;stroke-miterlimit:10;stroke-dasharray:none"
           d="m 404,5828 5120,0" /><path
           id="path10766"
           style="fill:none;stroke:#000000;stroke-opacity:1;stroke-width:5;stroke-linecap:butt;stroke-linejoin:round;stroke-miterlimit:10;stroke-dasharray:none"
           d="m 404,4364 0,1464" /><path
           id="path10768"
           style="fill:none;stroke:#000000;stroke-opacity:1;stroke-width:5;stroke-linecap:butt;stroke-linejoin:round;stroke-miterlimit:10;stroke-dasharray:none"
           d="m 5524,4364 0,1464" /><path
           id="path10770"
           style="fill:none;stroke:#000000;stroke-opacity:1;stroke-width:5;stroke-linecap:butt;stroke-linejoin:round;stroke-miterlimit:10;stroke-dasharray:none"
           d="m 404,4364 5120,0" /><path
           id="path10772"
           style="fill:none;stroke:#000000;stroke-opacity:1;stroke-width:5;stroke-linecap:butt;stroke-linejoin:round;stroke-miterlimit:10;stroke-dasharray:none"
           d="m 404,4364 0,1464" /><path
           id="path10774"
           style="fill:none;stroke:#000000;stroke-opacity:1;stroke-width:5;stroke-linecap:butt;stroke-linejoin:round;stroke-miterlimit:10;stroke-dasharray:none"
           d="m 404,4364 0,56" /><path
           id="path10776"
           style="fill:none;stroke:#000000;stroke-opacity:1;stroke-width:5;stroke-linecap:butt;stroke-linejoin:round;stroke-miterlimit:10;stroke-dasharray:none"
           d="m 404,5828 0,-48" /><path
           id="path10778"
           style="fill:#000000;fill-opacity:1;fill-rule:nonzero;stroke:none"
           d="m 407.5,4290.9 c -6.602,0 -12.602,-2.9 -16.301,-7.8 -4.597,-6.2 -6.898,-15.7 -6.898,-28.8 0,-23.9 8,-36.6 23.199,-36.6 15,0 23.199,12.7 23.199,36 0,13.8 -2.199,23 -6.898,29.4 -3.699,5 -9.602,7.8 -16.301,7.8 m 0,-7.8 c 9.5,0 14.199,-9.6 14.199,-28.6 0,-20.1 -4.597,-29.5 -14.398,-29.5 -9.301,0 -14,9.8 -14,29.2 0,19.4 4.699,28.9 14.199,28.9" /><path
           id="path10780"
           style="fill:none;stroke:#000000;stroke-opacity:1;stroke-width:5;stroke-linecap:butt;stroke-linejoin:round;stroke-miterlimit:10;stroke-dasharray:none"
           d="m 1044,4364 0,56" /><path
           id="path10782"
           style="fill:none;stroke:#000000;stroke-opacity:1;stroke-width:5;stroke-linecap:butt;stroke-linejoin:round;stroke-miterlimit:10;stroke-dasharray:none"
           d="m 1044,5828 0,-48" /><path
           id="path10784"
           style="fill:#000000;fill-opacity:1;fill-rule:nonzero;stroke:none"
           d="m 1038.6,4228.7 -37.3,0 c 0.9,5.8 4.1,9.5 12.8,14.6 l 10,5.4 c 9.9,5.4 15,12.7 15,21.4 0,5.9 -2.4,11.4 -6.6,15.2 -4.2,3.8 -9.4,5.6 -16.1,5.6 -9,0 -15.7,-3.2 -19.599,-9.2 -2.5,-3.8 -3.602,-8.2 -3.801,-15.4 l 8.8,0 c 0.3,4.8 0.9,7.7 2.1,10 2.3,4.3 6.9,6.9 12.2,6.9 8,0 14,-5.7 14,-13.3 0,-5.6 -3.3,-10.4 -9.6,-14 l -9.2,-5.2 c -14.8,-8.4 -19.101,-15.1 -19.902,-30.7 l 47.202,0 0,8.7" /><path
           id="path10786"
           style="fill:#000000;fill-opacity:1;fill-rule:nonzero;stroke:none"
           d="m 1071.1,4290.9 c -6.6,0 -12.6,-2.9 -16.3,-7.8 -4.6,-6.2 -6.9,-15.7 -6.9,-28.8 0,-23.9 8,-36.6 23.2,-36.6 15,0 23.2,12.7 23.2,36 0,13.8 -2.2,23 -6.9,29.4 -3.7,5 -9.6,7.8 -16.3,7.8 m 0,-7.8 c 9.5,0 14.2,-9.6 14.2,-28.6 0,-20.1 -4.6,-29.5 -14.4,-29.5 -9.3,0 -14,9.8 -14,29.2 0,19.4 4.7,28.9 14.2,28.9" /><path
           id="path10788"
           style="fill:none;stroke:#000000;stroke-opacity:1;stroke-width:5;stroke-linecap:butt;stroke-linejoin:round;stroke-miterlimit:10;stroke-dasharray:none"
           d="m 1684,4364 0,56" /><path
           id="path10790"
           style="fill:none;stroke:#000000;stroke-opacity:1;stroke-width:5;stroke-linecap:butt;stroke-linejoin:round;stroke-miterlimit:10;stroke-dasharray:none"
           d="m 1684,5828 0,-48" /><path
           id="path10792"
           style="fill:#000000;fill-opacity:1;fill-rule:nonzero;stroke:none"
           d="m 1660.7,4237 0,-17 8.8,0 0,17 10.5,0 0,7.9 -10.5,0 0,46 -6.5,0 -32.2,-44.6 0,-9.3 29.9,0 m 0,7.9 -22.2,0 22.2,31 0,-31" /><path
           id="path10794"
           style="fill:#000000;fill-opacity:1;fill-rule:nonzero;stroke:none"
           d="m 1711.1,4290.9 c -6.6,0 -12.6,-2.9 -16.3,-7.8 -4.6,-6.2 -6.9,-15.7 -6.9,-28.8 0,-23.9 8,-36.6 23.2,-36.6 15,0 23.2,12.7 23.2,36 0,13.8 -2.2,23 -6.9,29.4 -3.7,5 -9.6,7.8 -16.3,7.8 m 0,-7.8 c 9.5,0 14.2,-9.6 14.2,-28.6 0,-20.1 -4.6,-29.5 -14.4,-29.5 -9.3,0 -14,9.8 -14,29.2 0,19.4 4.7,28.9 14.2,28.9" /><path
           id="path10796"
           style="fill:none;stroke:#000000;stroke-opacity:1;stroke-width:5;stroke-linecap:butt;stroke-linejoin:round;stroke-miterlimit:10;stroke-dasharray:none"
           d="m 2324,4364 0,56" /><path
           id="path10798"
           style="fill:none;stroke:#000000;stroke-opacity:1;stroke-width:5;stroke-linecap:butt;stroke-linejoin:round;stroke-miterlimit:10;stroke-dasharray:none"
           d="m 2324,5828 0,-48" /><path
           id="path10800"
           style="fill:#000000;fill-opacity:1;fill-rule:nonzero;stroke:none"
           d="m 2317.8,4272.4 c -1.7,11.6 -9.3,18.5 -20.1,18.5 -7.8,0 -14.8,-3.8 -19,-10.1 -4.4,-6.9 -6.4,-15.6 -6.4,-28.5 0,-11.9 1.8,-19.5 6,-25.8 3.8,-5.7 10,-8.8 17.8,-8.8 13.5,0 23.2,10 23.2,23.9 0,13.2 -9,22.5 -21.7,22.5 -7,0 -12.5,-2.7 -16.3,-7.9 0.1,17.3 5.7,26.9 15.8,26.9 6.2,0 10.5,-3.9 11.9,-10.7 l 8.8,0 m -21.3,-16.1 c 8.5,0 13.8,-5.9 13.8,-15.4 0,-8.9 -6,-15.4 -14.1,-15.4 -8.2,0 -14.4,6.8 -14.4,15.9 0,8.8 6,14.9 14.7,14.9" /><path
           id="path10802"
           style="fill:#000000;fill-opacity:1;fill-rule:nonzero;stroke:none"
           d="m 2351.1,4290.9 c -6.6,0 -12.6,-2.9 -16.3,-7.8 -4.6,-6.2 -6.9,-15.7 -6.9,-28.8 0,-23.9 8,-36.6 23.2,-36.6 15,0 23.2,12.7 23.2,36 0,13.8 -2.2,23 -6.9,29.4 -3.7,5 -9.6,7.8 -16.3,7.8 m 0,-7.8 c 9.5,0 14.2,-9.6 14.2,-28.6 0,-20.1 -4.6,-29.5 -14.4,-29.5 -9.3,0 -14,9.8 -14,29.2 0,19.4 4.7,28.9 14.2,28.9" /><path
           id="path10804"
           style="fill:none;stroke:#000000;stroke-opacity:1;stroke-width:5;stroke-linecap:butt;stroke-linejoin:round;stroke-miterlimit:10;stroke-dasharray:none"
           d="m 2964,4364 0,56" /><path
           id="path10806"
           style="fill:none;stroke:#000000;stroke-opacity:1;stroke-width:5;stroke-linecap:butt;stroke-linejoin:round;stroke-miterlimit:10;stroke-dasharray:none"
           d="m 2964,5828 0,-48" /><path
           id="path10808"
           style="fill:#000000;fill-opacity:1;fill-rule:nonzero;stroke:none"
           d="m 2947.1,4257.3 c 7.3,4.4 9.7,8 9.7,14.7 0,11.1 -8.7,18.9 -21.3,18.9 -12.5,0 -21.3,-7.8 -21.3,-18.9 0,-6.6 2.4,-10.2 9.6,-14.7 -8.1,-3.9 -12.1,-9.8 -12.1,-17.6 0,-13 9.8,-22 23.8,-22 14,0 23.8,9 23.8,21.9 0,7.9 -4,13.8 -12.2,17.7 m -11.6,25.8 c 7.5,0 12.3,-4.4 12.3,-11.3 0,-6.6 -4.9,-11 -12.3,-11 -7.4,0 -12.3,4.4 -12.3,11.1 0,6.8 4.9,11.2 12.3,11.2 m 0,-29.7 c 8.8,0 14.8,-5.6 14.8,-13.9 0,-8.4 -6,-14 -15,-14 -8.6,0 -14.6,5.7 -14.6,14 0,8.3 6,13.9 14.8,13.9" /><path
           id="path10810"
           style="fill:#000000;fill-opacity:1;fill-rule:nonzero;stroke:none"
           d="m 2991.1,4290.9 c -6.6,0 -12.6,-2.9 -16.3,-7.8 -4.6,-6.2 -6.9,-15.7 -6.9,-28.8 0,-23.9 8,-36.6 23.2,-36.6 15,0 23.2,12.7 23.2,36 0,13.8 -2.2,23 -6.9,29.4 -3.7,5 -9.6,7.8 -16.3,7.8 m 0,-7.8 c 9.5,0 14.2,-9.6 14.2,-28.6 0,-20.1 -4.6,-29.5 -14.4,-29.5 -9.3,0 -14,9.8 -14,29.2 0,19.4 4.7,28.9 14.2,28.9" /><path
           id="path10812"
           style="fill:none;stroke:#000000;stroke-opacity:1;stroke-width:5;stroke-linecap:butt;stroke-linejoin:round;stroke-miterlimit:10;stroke-dasharray:none"
           d="m 3604,4364 0,56" /><path
           id="path10814"
           style="fill:none;stroke:#000000;stroke-opacity:1;stroke-width:5;stroke-linecap:butt;stroke-linejoin:round;stroke-miterlimit:10;stroke-dasharray:none"
           d="m 3604,5828 0,-48" /><path
           id="path10816"
           style="fill:#000000;fill-opacity:1;fill-rule:nonzero;stroke:none"
           d="m 3549.9,4270.5 0,-50.5 8.8,0 0,70.9 -5.8,0 c -3.1,-10.9 -5.1,-12.4 -18.7,-14.1 l 0,-6.3 15.7,0" /><path
           id="path10818"
           style="fill:#000000;fill-opacity:1;fill-rule:nonzero;stroke:none"
           d="m 3607.1,4290.9 c -6.6,0 -12.6,-2.9 -16.3,-7.8 -4.6,-6.2 -6.9,-15.7 -6.9,-28.8 0,-23.9 8,-36.6 23.2,-36.6 15,0 23.2,12.7 23.2,36 0,13.8 -2.2,23 -6.9,29.4 -3.7,5 -9.6,7.8 -16.3,7.8 m 0,-7.8 c 9.5,0 14.2,-9.6 14.2,-28.6 0,-20.1 -4.6,-29.5 -14.4,-29.5 -9.3,0 -14,9.8 -14,29.2 0,19.4 4.7,28.9 14.2,28.9" /><path
           id="path10820"
           style="fill:#000000;fill-opacity:1;fill-rule:nonzero;stroke:none"
           d="m 3662.7,4290.9 c -6.6,0 -12.6,-2.9 -16.3,-7.8 -4.6,-6.2 -6.9,-15.7 -6.9,-28.8 0,-23.9 8,-36.6 23.2,-36.6 15,0 23.2,12.7 23.2,36 0,13.8 -2.2,23 -6.9,29.4 -3.7,5 -9.6,7.8 -16.3,7.8 m 0,-7.8 c 9.5,0 14.2,-9.6 14.2,-28.6 0,-20.1 -4.6,-29.5 -14.4,-29.5 -9.3,0 -14,9.8 -14,29.2 0,19.4 4.7,28.9 14.2,28.9" /><path
           id="path10822"
           style="fill:none;stroke:#000000;stroke-opacity:1;stroke-width:5;stroke-linecap:butt;stroke-linejoin:round;stroke-miterlimit:10;stroke-dasharray:none"
           d="m 4244,4364 0,56" /><path
           id="path10824"
           style="fill:none;stroke:#000000;stroke-opacity:1;stroke-width:5;stroke-linecap:butt;stroke-linejoin:round;stroke-miterlimit:10;stroke-dasharray:none"
           d="m 4244,5828 0,-48" /><path
           id="path10826"
           style="fill:#000000;fill-opacity:1;fill-rule:nonzero;stroke:none"
           d="m 4189.9,4270.5 0,-50.5 8.8,0 0,70.9 -5.8,0 c -3.1,-10.9 -5.1,-12.4 -18.7,-14.1 l 0,-6.3 15.7,0" /><path
           id="path10828"
           style="fill:#000000;fill-opacity:1;fill-rule:nonzero;stroke:none"
           d="m 4270.2,4228.7 -37.3,0 c 0.9,5.8 4.1,9.5 12.8,14.6 l 10,5.4 c 9.9,5.4 15,12.7 15,21.4 0,5.9 -2.4,11.4 -6.6,15.2 -4.2,3.8 -9.4,5.6 -16.1,5.6 -9,0 -15.7,-3.2 -19.6,-9.2 -2.5,-3.8 -3.6,-8.2 -3.8,-15.4 l 8.8,0 c 0.3,4.8 0.9,7.7 2.1,10 2.3,4.3 6.9,6.9 12.2,6.9 8,0 14,-5.7 14,-13.3 0,-5.6 -3.3,-10.4 -9.6,-14 l -9.2,-5.2 c -14.8,-8.4 -19.1,-15.1 -19.9,-30.7 l 47.2,0 0,8.7" /><path
           id="path10830"
           style="fill:#000000;fill-opacity:1;fill-rule:nonzero;stroke:none"
           d="m 4302.7,4290.9 c -6.6,0 -12.6,-2.9 -16.3,-7.8 -4.6,-6.2 -6.9,-15.7 -6.9,-28.8 0,-23.9 8,-36.6 23.2,-36.6 15,0 23.2,12.7 23.2,36 0,13.8 -2.2,23 -6.9,29.4 -3.7,5 -9.6,7.8 -16.3,7.8 m 0,-7.8 c 9.5,0 14.2,-9.6 14.2,-28.6 0,-20.1 -4.6,-29.5 -14.4,-29.5 -9.3,0 -14,9.8 -14,29.2 0,19.4 4.7,28.9 14.2,28.9" /><path
           id="path10832"
           style="fill:none;stroke:#000000;stroke-opacity:1;stroke-width:5;stroke-linecap:butt;stroke-linejoin:round;stroke-miterlimit:10;stroke-dasharray:none"
           d="m 4884,4364 0,56" /><path
           id="path10834"
           style="fill:none;stroke:#000000;stroke-opacity:1;stroke-width:5;stroke-linecap:butt;stroke-linejoin:round;stroke-miterlimit:10;stroke-dasharray:none"
           d="m 4884,5828 0,-48" /><path
           id="path10836"
           style="fill:#000000;fill-opacity:1;fill-rule:nonzero;stroke:none"
           d="m 4829.9,4270.5 0,-50.5 8.8,0 0,70.9 -5.8,0 c -3.1,-10.9 -5.1,-12.4 -18.7,-14.1 l 0,-6.3 15.7,0" /><path
           id="path10838"
           style="fill:#000000;fill-opacity:1;fill-rule:nonzero;stroke:none"
           d="m 4892.3,4237 0,-17 8.8,0 0,17 10.5,0 0,7.9 -10.5,0 0,46 -6.5,0 -32.2,-44.6 0,-9.3 29.9,0 m 0,7.9 -22.2,0 22.2,31 0,-31" /><path
           id="path10840"
           style="fill:#000000;fill-opacity:1;fill-rule:nonzero;stroke:none"
           d="m 4942.7,4290.9 c -6.6,0 -12.6,-2.9 -16.3,-7.8 -4.6,-6.2 -6.9,-15.7 -6.9,-28.8 0,-23.9 8,-36.6 23.2,-36.6 15,0 23.2,12.7 23.2,36 0,13.8 -2.2,23 -6.9,29.4 -3.7,5 -9.6,7.8 -16.3,7.8 m 0,-7.8 c 9.5,0 14.2,-9.6 14.2,-28.6 0,-20.1 -4.6,-29.5 -14.4,-29.5 -9.3,0 -14,9.8 -14,29.2 0,19.4 4.7,28.9 14.2,28.9" /><path
           id="path10842"
           style="fill:none;stroke:#000000;stroke-opacity:1;stroke-width:5;stroke-linecap:butt;stroke-linejoin:round;stroke-miterlimit:10;stroke-dasharray:none"
           d="m 5524,4364 0,56" /><path
           id="path10844"
           style="fill:none;stroke:#000000;stroke-opacity:1;stroke-width:5;stroke-linecap:butt;stroke-linejoin:round;stroke-miterlimit:10;stroke-dasharray:none"
           d="m 5524,5828 0,-48" /><path
           id="path10846"
           style="fill:#000000;fill-opacity:1;fill-rule:nonzero;stroke:none"
           d="m 5469.9,4270.5 0,-50.5 8.8,0 0,70.9 -5.8,0 c -3.1,-10.9 -5.1,-12.4 -18.7,-14.1 l 0,-6.3 15.7,0" /><path
           id="path10848"
           style="fill:#000000;fill-opacity:1;fill-rule:nonzero;stroke:none"
           d="m 5549.4,4272.4 c -1.7,11.6 -9.3,18.5 -20.1,18.5 -7.8,0 -14.8,-3.8 -19,-10.1 -4.4,-6.9 -6.4,-15.6 -6.4,-28.5 0,-11.9 1.8,-19.5 6,-25.8 3.8,-5.7 10,-8.8 17.8,-8.8 13.5,0 23.2,10 23.2,23.9 0,13.2 -9,22.5 -21.7,22.5 -7,0 -12.5,-2.7 -16.3,-7.9 0.1,17.3 5.7,26.9 15.8,26.9 6.2,0 10.5,-3.9 11.9,-10.7 l 8.8,0 m -21.3,-16.1 c 8.5,0 13.8,-5.9 13.8,-15.4 0,-8.9 -6,-15.4 -14.1,-15.4 -8.2,0 -14.4,6.8 -14.4,15.9 0,8.8 6,14.9 14.7,14.9" /><path
           id="path10850"
           style="fill:#000000;fill-opacity:1;fill-rule:nonzero;stroke:none"
           d="m 5582.7,4290.9 c -6.6,0 -12.6,-2.9 -16.3,-7.8 -4.6,-6.2 -6.9,-15.7 -6.9,-28.8 0,-23.9 8,-36.6 23.2,-36.6 15,0 23.2,12.7 23.2,36 0,13.8 -2.2,23 -6.9,29.4 -3.7,5 -9.6,7.8 -16.3,7.8 m 0,-7.8 c 9.5,0 14.2,-9.6 14.2,-28.6 0,-20.1 -4.6,-29.5 -14.4,-29.5 -9.3,0 -14,9.8 -14,29.2 0,19.4 4.7,28.9 14.2,28.9" /><path
           id="path10852"
           style="fill:none;stroke:#000000;stroke-opacity:1;stroke-width:5;stroke-linecap:butt;stroke-linejoin:round;stroke-miterlimit:10;stroke-dasharray:none"
           d="m 404,4364 48,0" /><path
           id="path10854"
           style="fill:none;stroke:#000000;stroke-opacity:1;stroke-width:5;stroke-linecap:butt;stroke-linejoin:round;stroke-miterlimit:10;stroke-dasharray:none"
           d="m 5524,4364 -56,0" /><path
           id="path10856"
           style="fill:#000000;fill-opacity:1;fill-rule:nonzero;stroke:none"
           d="m 363.602,4386.9 -36.602,0 -5.301,-38.6 8.102,0 c 4.097,4.9 7.5,6.6 13,6.6 9.5,0 15.5,-6.5 15.5,-17 0,-10.2 -5.903,-16.4 -15.5,-16.4 -7.699,0 -12.403,3.9 -14.5,11.9 l -8.801,0 c 1.199,-5.8 2.199,-8.6 4.301,-11.2 4,-5.4 11.199,-8.5 19.199,-8.5 14.301,0 24.301,10.4 24.301,25.4 0,14 -9.301,23.6 -22.903,23.6 -5,0 -9,-1.3 -13.097,-4.3 l 2.801,19.8 29.5,0 0,8.7" /><path
           id="path10858"
           style="fill:none;stroke:#000000;stroke-opacity:1;stroke-width:5;stroke-linecap:butt;stroke-linejoin:round;stroke-miterlimit:10;stroke-dasharray:none"
           d="m 404,4732 48,0" /><path
           id="path10860"
           style="fill:none;stroke:#000000;stroke-opacity:1;stroke-width:5;stroke-linecap:butt;stroke-linejoin:round;stroke-miterlimit:10;stroke-dasharray:none"
           d="m 5524,4732 -56,0" /><path
           id="path10862"
           style="fill:#000000;fill-opacity:1;fill-rule:nonzero;stroke:none"
           d="m 283.602,4754.9 -36.602,0 -5.301,-38.6 8.102,0 c 4.097,4.9 7.5,6.6 13,6.6 9.5,0 15.5,-6.5 15.5,-17 0,-10.2 -5.903,-16.4 -15.5,-16.4 -7.699,0 -12.403,3.9 -14.5,11.9 l -8.801,0 c 1.199,-5.8 2.199,-8.6 4.301,-11.2 4,-5.4 11.199,-8.5 19.199,-8.5 14.301,0 24.301,10.4 24.301,25.4 0,14 -9.301,23.6 -22.903,23.6 -5,0 -9,-1.3 -13.097,-4.3 l 2.801,19.8 29.5,0 0,8.7" /><path
           id="path10864"
           style="fill:#000000;fill-opacity:1;fill-rule:nonzero;stroke:none"
           d="m 300.301,4684 10.3984,0 0,10.3984 -10.3984,0 0,-10.3984 z" /><path
           id="path10866"
           style="fill:#000000;fill-opacity:1;fill-rule:nonzero;stroke:none"
           d="m 367,4754.9 -36.602,0 -5.296,-38.6 8.097,0 c 4.102,4.9 7.5,6.6 13,6.6 9.5,0 15.5,-6.5 15.5,-17 0,-10.2 -5.898,-16.4 -15.5,-16.4 -7.699,0 -12.398,3.9 -14.5,11.9 l -8.801,0 c 1.204,-5.8 2.204,-8.6 4.301,-11.2 4,-5.4 11.199,-8.5 19.199,-8.5 14.301,0 24.301,10.4 24.301,25.4 0,14 -9.301,23.6 -22.898,23.6 -5,0 -9,-1.3 -13.102,-4.3 l 2.801,19.8 29.5,0 0,8.7" /><path
           id="path10868"
           style="fill:none;stroke:#000000;stroke-opacity:1;stroke-width:5;stroke-linecap:butt;stroke-linejoin:round;stroke-miterlimit:10;stroke-dasharray:none"
           d="m 404,5100 48,0" /><path
           id="path10870"
           style="fill:none;stroke:#000000;stroke-opacity:1;stroke-width:5;stroke-linecap:butt;stroke-linejoin:round;stroke-miterlimit:10;stroke-dasharray:none"
           d="m 5524,5100 -56,0" /><path
           id="path10872"
           style="fill:#000000;fill-opacity:1;fill-rule:nonzero;stroke:none"
           d="m 365.801,5104.4 c -1.699,11.6 -9.301,18.5 -20.102,18.5 -7.801,0 -14.801,-3.8 -19,-10.1 -4.398,-6.9 -6.398,-15.6 -6.398,-28.5 0,-11.9 1.801,-19.5 6,-25.8 3.801,-5.7 10,-8.8 17.801,-8.8 13.5,0 23.199,10 23.199,23.9 0,13.2 -9,22.5 -21.699,22.5 -7,0 -12.5,-2.7 -16.301,-7.9 0.097,17.3 5.699,26.9 15.801,26.9 6.199,0 10.5,-3.9 11.898,-10.7 l 8.801,0 M 344.5,5088.3 c 8.5,0 13.801,-5.9 13.801,-15.4 0,-8.9 -6,-15.4 -14.102,-15.4 -8.199,0 -14.398,6.8 -14.398,15.9 0,8.8 6,14.9 14.699,14.9" /><path
           id="path10874"
           style="fill:none;stroke:#000000;stroke-opacity:1;stroke-width:5;stroke-linecap:butt;stroke-linejoin:round;stroke-miterlimit:10;stroke-dasharray:none"
           d="m 404,5468 48,0" /><path
           id="path10876"
           style="fill:none;stroke:#000000;stroke-opacity:1;stroke-width:5;stroke-linecap:butt;stroke-linejoin:round;stroke-miterlimit:10;stroke-dasharray:none"
           d="m 5524,5468 -56,0" /><path
           id="path10878"
           style="fill:#000000;fill-opacity:1;fill-rule:nonzero;stroke:none"
           d="m 285.801,5472.4 c -1.699,11.6 -9.301,18.5 -20.102,18.5 -7.801,0 -14.801,-3.8 -19,-10.1 -4.398,-6.9 -6.398,-15.6 -6.398,-28.5 0,-11.9 1.801,-19.5 6,-25.8 3.801,-5.7 10,-8.8 17.801,-8.8 13.5,0 23.199,10 23.199,23.9 0,13.2 -9,22.5 -21.699,22.5 -7,0 -12.5,-2.7 -16.301,-7.9 0.097,17.3 5.699,26.9 15.801,26.9 6.199,0 10.5,-3.9 11.898,-10.7 l 8.801,0 M 264.5,5456.3 c 8.5,0 13.801,-5.9 13.801,-15.4 0,-8.9 -6,-15.4 -14.102,-15.4 -8.199,0 -14.398,6.8 -14.398,15.9 0,8.8 6,14.9 14.699,14.9" /><path
           id="path10880"
           style="fill:#000000;fill-opacity:1;fill-rule:nonzero;stroke:none"
           d="m 300.301,5420 10.3984,0 0,10.3984 -10.3984,0 0,-10.3984 z" /><path
           id="path10882"
           style="fill:#000000;fill-opacity:1;fill-rule:nonzero;stroke:none"
           d="m 367,5490.9 -36.602,0 -5.296,-38.6 8.097,0 c 4.102,4.9 7.5,6.6 13,6.6 9.5,0 15.5,-6.5 15.5,-17 0,-10.2 -5.898,-16.4 -15.5,-16.4 -7.699,0 -12.398,3.9 -14.5,11.9 l -8.801,0 c 1.204,-5.8 2.204,-8.6 4.301,-11.2 4,-5.4 11.199,-8.5 19.199,-8.5 14.301,0 24.301,10.4 24.301,25.4 0,14 -9.301,23.6 -22.898,23.6 -5,0 -9,-1.3 -13.102,-4.3 l 2.801,19.8 29.5,0 0,8.7" /><path
           id="path10884"
           style="fill:none;stroke:#000000;stroke-opacity:1;stroke-width:5;stroke-linecap:butt;stroke-linejoin:round;stroke-miterlimit:10;stroke-dasharray:none"
           d="m 404,5828 48,0" /><path
           id="path10886"
           style="fill:none;stroke:#000000;stroke-opacity:1;stroke-width:5;stroke-linecap:butt;stroke-linejoin:round;stroke-miterlimit:10;stroke-dasharray:none"
           d="m 5524,5828 -56,0" /><path
           id="path10888"
           style="fill:#000000;fill-opacity:1;fill-rule:nonzero;stroke:none"
           d="m 368,5850.9 -47.398,0 0,-8.7 38.296,0 C 342,5818.1 335.102,5803.3 329.801,5780 l 9.398,0 c 3.903,22.7 12.801,42.2 28.801,63.5 l 0,7.4" /><path
           id="path10890"
           style="fill:none;stroke:#000000;stroke-opacity:1;stroke-width:5;stroke-linecap:butt;stroke-linejoin:round;stroke-miterlimit:10;stroke-dasharray:none"
           d="m 404,4364 5120,0" /><path
           id="path10892"
           style="fill:none;stroke:#000000;stroke-opacity:1;stroke-width:5;stroke-linecap:butt;stroke-linejoin:round;stroke-miterlimit:10;stroke-dasharray:none"
           d="m 404,5828 5120,0" /><path
           id="path10894"
           style="fill:none;stroke:#000000;stroke-opacity:1;stroke-width:5;stroke-linecap:butt;stroke-linejoin:round;stroke-miterlimit:10;stroke-dasharray:none"
           d="m 404,4364 0,1464" /><path
           id="path10896"
           style="fill:none;stroke:#000000;stroke-opacity:1;stroke-width:5;stroke-linecap:butt;stroke-linejoin:round;stroke-miterlimit:10;stroke-dasharray:none"
           d="m 5524,4364 0,1464" /><path
           id="path10898"
           style="fill:none;stroke:#000000;stroke-opacity:1;stroke-width:5;stroke-linecap:butt;stroke-linejoin:round;stroke-miterlimit:10;stroke-dasharray:none"
           d="m 404,5484 128,-40 128,-56 128,-24 128,-24 128,-40 128,-16 128,-32 128,-32 128,-120 128,-8 128,56 128,88 128,224 128,56 128,-16 128,-32 128,-40 128,-48 128,-32 128,-32 128,-24 128,-8 128,-16 128,-40 128,-24 128,-96 128,-32 128,40 128,88 128,224 128,80 128,0 128,-56 128,-48 128,-32 128,-32 128,-24 128,-32" /><path
           id="path10900"
           style="fill:#000000;fill-opacity:1;fill-rule:nonzero;stroke:none"
           d="m 420,5484 c 0,-8.84 -7.164,-16 -16,-16 -8.836,0 -16,7.16 -16,16 0,8.84 7.164,16 16,16 8.836,0 16,-7.16 16,-16" /><path
           id="path10902"
           style="fill:#000000;fill-opacity:1;fill-rule:nonzero;stroke:none"
           d="m 548,5444 c 0,-8.84 -7.164,-16 -16,-16 -8.836,0 -16,7.16 -16,16 0,8.84 7.164,16 16,16 8.836,0 16,-7.16 16,-16" /><path
           id="path10904"
           style="fill:#000000;fill-opacity:1;fill-rule:nonzero;stroke:none"
           d="m 676,5388 c 0,-8.84 -7.164,-16 -16,-16 -8.836,0 -16,7.16 -16,16 0,8.84 7.164,16 16,16 8.836,0 16,-7.16 16,-16" /><path
           id="path10906"
           style="fill:#000000;fill-opacity:1;fill-rule:nonzero;stroke:none"
           d="m 804,5364 c 0,-8.84 -7.164,-16 -16,-16 -8.836,0 -16,7.16 -16,16 0,8.84 7.164,16 16,16 8.836,0 16,-7.16 16,-16" /><path
           id="path10908"
           style="fill:#000000;fill-opacity:1;fill-rule:nonzero;stroke:none"
           d="m 932,5340 c 0,-8.84 -7.16,-16 -16,-16 -8.84,0 -16,7.16 -16,16 0,8.84 7.16,16 16,16 8.84,0 16,-7.16 16,-16" /><path
           id="path10910"
           style="fill:#000000;fill-opacity:1;fill-rule:nonzero;stroke:none"
           d="m 1060,5300 c 0,-8.84 -7.16,-16 -16,-16 -8.84,0 -16,7.16 -16,16 0,8.84 7.16,16 16,16 8.84,0 16,-7.16 16,-16" /><path
           id="path10912"
           style="fill:#000000;fill-opacity:1;fill-rule:nonzero;stroke:none"
           d="m 1188,5284 c 0,-8.84 -7.16,-16 -16,-16 -8.84,0 -16,7.16 -16,16 0,8.84 7.16,16 16,16 8.84,0 16,-7.16 16,-16" /><path
           id="path10914"
           style="fill:#000000;fill-opacity:1;fill-rule:nonzero;stroke:none"
           d="m 1316,5252 c 0,-8.84 -7.16,-16 -16,-16 -8.84,0 -16,7.16 -16,16 0,8.84 7.16,16 16,16 8.84,0 16,-7.16 16,-16" /><path
           id="path10916"
           style="fill:#000000;fill-opacity:1;fill-rule:nonzero;stroke:none"
           d="m 1444,5220 c 0,-8.84 -7.16,-16 -16,-16 -8.84,0 -16,7.16 -16,16 0,8.84 7.16,16 16,16 8.84,0 16,-7.16 16,-16" /><path
           id="path10918"
           style="fill:#000000;fill-opacity:1;fill-rule:nonzero;stroke:none"
           d="m 1572,5100 c 0,-8.84 -7.16,-16 -16,-16 -8.84,0 -16,7.16 -16,16 0,8.84 7.16,16 16,16 8.84,0 16,-7.16 16,-16" /><path
           id="path10920"
           style="fill:#000000;fill-opacity:1;fill-rule:nonzero;stroke:none"
           d="m 1700,5092 c 0,-8.84 -7.16,-16 -16,-16 -8.84,0 -16,7.16 -16,16 0,8.84 7.16,16 16,16 8.84,0 16,-7.16 16,-16" /><path
           id="path10922"
           style="fill:#000000;fill-opacity:1;fill-rule:nonzero;stroke:none"
           d="m 1828,5148 c 0,-8.84 -7.16,-16 -16,-16 -8.84,0 -16,7.16 -16,16 0,8.84 7.16,16 16,16 8.84,0 16,-7.16 16,-16" /><path
           id="path10924"
           style="fill:#000000;fill-opacity:1;fill-rule:nonzero;stroke:none"
           d="m 1956,5236 c 0,-8.84 -7.16,-16 -16,-16 -8.84,0 -16,7.16 -16,16 0,8.84 7.16,16 16,16 8.84,0 16,-7.16 16,-16" /><path
           id="path10926"
           style="fill:#000000;fill-opacity:1;fill-rule:nonzero;stroke:none"
           d="m 2084,5460 c 0,-8.84 -7.16,-16 -16,-16 -8.84,0 -16,7.16 -16,16 0,8.84 7.16,16 16,16 8.84,0 16,-7.16 16,-16" /><path
           id="path10928"
           style="fill:#000000;fill-opacity:1;fill-rule:nonzero;stroke:none"
           d="m 2212,5516 c 0,-8.84 -7.16,-16 -16,-16 -8.84,0 -16,7.16 -16,16 0,8.84 7.16,16 16,16 8.84,0 16,-7.16 16,-16" /><path
           id="path10930"
           style="fill:#000000;fill-opacity:1;fill-rule:nonzero;stroke:none"
           d="m 2340,5500 c 0,-8.84 -7.16,-16 -16,-16 -8.84,0 -16,7.16 -16,16 0,8.84 7.16,16 16,16 8.84,0 16,-7.16 16,-16" /><path
           id="path10932"
           style="fill:#000000;fill-opacity:1;fill-rule:nonzero;stroke:none"
           d="m 2468,5468 c 0,-8.84 -7.16,-16 -16,-16 -8.84,0 -16,7.16 -16,16 0,8.84 7.16,16 16,16 8.84,0 16,-7.16 16,-16" /><path
           id="path10934"
           style="fill:#000000;fill-opacity:1;fill-rule:nonzero;stroke:none"
           d="m 2596,5428 c 0,-8.84 -7.16,-16 -16,-16 -8.84,0 -16,7.16 -16,16 0,8.84 7.16,16 16,16 8.84,0 16,-7.16 16,-16" /><path
           id="path10936"
           style="fill:#000000;fill-opacity:1;fill-rule:nonzero;stroke:none"
           d="m 2724,5380 c 0,-8.84 -7.16,-16 -16,-16 -8.84,0 -16,7.16 -16,16 0,8.84 7.16,16 16,16 8.84,0 16,-7.16 16,-16" /><path
           id="path10938"
           style="fill:#000000;fill-opacity:1;fill-rule:nonzero;stroke:none"
           d="m 2852,5348 c 0,-8.84 -7.16,-16 -16,-16 -8.84,0 -16,7.16 -16,16 0,8.84 7.16,16 16,16 8.84,0 16,-7.16 16,-16" /><path
           id="path10940"
           style="fill:#000000;fill-opacity:1;fill-rule:nonzero;stroke:none"
           d="m 2980,5316 c 0,-8.84 -7.16,-16 -16,-16 -8.84,0 -16,7.16 -16,16 0,8.84 7.16,16 16,16 8.84,0 16,-7.16 16,-16" /><path
           id="path10942"
           style="fill:#000000;fill-opacity:1;fill-rule:nonzero;stroke:none"
           d="m 3108,5292 c 0,-8.84 -7.16,-16 -16,-16 -8.84,0 -16,7.16 -16,16 0,8.84 7.16,16 16,16 8.84,0 16,-7.16 16,-16" /><path
           id="path10944"
           style="fill:#000000;fill-opacity:1;fill-rule:nonzero;stroke:none"
           d="m 3236,5284 c 0,-8.84 -7.16,-16 -16,-16 -8.84,0 -16,7.16 -16,16 0,8.84 7.16,16 16,16 8.84,0 16,-7.16 16,-16" /><path
           id="path10946"
           style="fill:#000000;fill-opacity:1;fill-rule:nonzero;stroke:none"
           d="m 3364,5268 c 0,-8.84 -7.16,-16 -16,-16 -8.84,0 -16,7.16 -16,16 0,8.84 7.16,16 16,16 8.84,0 16,-7.16 16,-16" /><path
           id="path10948"
           style="fill:#000000;fill-opacity:1;fill-rule:nonzero;stroke:none"
           d="m 3492,5228 c 0,-8.84 -7.16,-16 -16,-16 -8.84,0 -16,7.16 -16,16 0,8.84 7.16,16 16,16 8.84,0 16,-7.16 16,-16" /><path
           id="path10950"
           style="fill:#000000;fill-opacity:1;fill-rule:nonzero;stroke:none"
           d="m 3620,5204 c 0,-8.84 -7.16,-16 -16,-16 -8.84,0 -16,7.16 -16,16 0,8.84 7.16,16 16,16 8.84,0 16,-7.16 16,-16" /><path
           id="path10952"
           style="fill:#000000;fill-opacity:1;fill-rule:nonzero;stroke:none"
           d="m 3748,5108 c 0,-8.84 -7.16,-16 -16,-16 -8.84,0 -16,7.16 -16,16 0,8.84 7.16,16 16,16 8.84,0 16,-7.16 16,-16" /><path
           id="path10954"
           style="fill:#000000;fill-opacity:1;fill-rule:nonzero;stroke:none"
           d="m 3876,5076 c 0,-8.84 -7.16,-16 -16,-16 -8.84,0 -16,7.16 -16,16 0,8.84 7.16,16 16,16 8.84,0 16,-7.16 16,-16" /><path
           id="path10956"
           style="fill:#000000;fill-opacity:1;fill-rule:nonzero;stroke:none"
           d="m 4004,5116 c 0,-8.84 -7.16,-16 -16,-16 -8.84,0 -16,7.16 -16,16 0,8.84 7.16,16 16,16 8.84,0 16,-7.16 16,-16" /><path
           id="path10958"
           style="fill:#000000;fill-opacity:1;fill-rule:nonzero;stroke:none"
           d="m 4132,5204 c 0,-8.84 -7.16,-16 -16,-16 -8.84,0 -16,7.16 -16,16 0,8.84 7.16,16 16,16 8.84,0 16,-7.16 16,-16" /><path
           id="path10960"
           style="fill:#000000;fill-opacity:1;fill-rule:nonzero;stroke:none"
           d="m 4260,5428 c 0,-8.84 -7.16,-16 -16,-16 -8.84,0 -16,7.16 -16,16 0,8.84 7.16,16 16,16 8.84,0 16,-7.16 16,-16" /><path
           id="path10962"
           style="fill:#000000;fill-opacity:1;fill-rule:nonzero;stroke:none"
           d="m 4388,5508 c 0,-8.84 -7.16,-16 -16,-16 -8.84,0 -16,7.16 -16,16 0,8.84 7.16,16 16,16 8.84,0 16,-7.16 16,-16" /><path
           id="path10964"
           style="fill:#000000;fill-opacity:1;fill-rule:nonzero;stroke:none"
           d="m 4516,5508 c 0,-8.84 -7.16,-16 -16,-16 -8.84,0 -16,7.16 -16,16 0,8.84 7.16,16 16,16 8.84,0 16,-7.16 16,-16" /><path
           id="path10966"
           style="fill:#000000;fill-opacity:1;fill-rule:nonzero;stroke:none"
           d="m 4644,5452 c 0,-8.84 -7.16,-16 -16,-16 -8.84,0 -16,7.16 -16,16 0,8.84 7.16,16 16,16 8.84,0 16,-7.16 16,-16" /><path
           id="path10968"
           style="fill:#000000;fill-opacity:1;fill-rule:nonzero;stroke:none"
           d="m 4772,5404 c 0,-8.84 -7.16,-16 -16,-16 -8.84,0 -16,7.16 -16,16 0,8.84 7.16,16 16,16 8.84,0 16,-7.16 16,-16" /><path
           id="path10970"
           style="fill:#000000;fill-opacity:1;fill-rule:nonzero;stroke:none"
           d="m 4900,5372 c 0,-8.84 -7.16,-16 -16,-16 -8.84,0 -16,7.16 -16,16 0,8.84 7.16,16 16,16 8.84,0 16,-7.16 16,-16" /><path
           id="path10972"
           style="fill:#000000;fill-opacity:1;fill-rule:nonzero;stroke:none"
           d="m 5028,5340 c 0,-8.84 -7.16,-16 -16,-16 -8.84,0 -16,7.16 -16,16 0,8.84 7.16,16 16,16 8.84,0 16,-7.16 16,-16" /><path
           id="path10974"
           style="fill:#000000;fill-opacity:1;fill-rule:nonzero;stroke:none"
           d="m 5156,5316 c 0,-8.84 -7.16,-16 -16,-16 -8.84,0 -16,7.16 -16,16 0,8.84 7.16,16 16,16 8.84,0 16,-7.16 16,-16" /><path
           id="path10976"
           style="fill:#000000;fill-opacity:1;fill-rule:nonzero;stroke:none"
           d="m 5284,5284 c 0,-8.84 -7.16,-16 -16,-16 -8.84,0 -16,7.16 -16,16 0,8.84 7.16,16 16,16 8.84,0 16,-7.16 16,-16" /></g><g
         id="g11637"><path
           id="path11014"
           style="fill:#ffffff;fill-opacity:1;fill-rule:evenodd;stroke:none"
           d="m 404,2332 5120,0 0,1464 -5120,0 0,-1464 z" /><path
           id="path11016"
           style="fill:none;stroke:#ffffff;stroke-opacity:1;stroke-width:5;stroke-linecap:butt;stroke-linejoin:round;stroke-miterlimit:10;stroke-dasharray:none"
           d="m 404,2332 0,1464 5120,0 0,-1464 -5120,0" /><path
           id="path11018"
           style="fill:none;stroke:#000000;stroke-opacity:1;stroke-width:5;stroke-linecap:butt;stroke-linejoin:round;stroke-miterlimit:10;stroke-dasharray:none"
           d="m 404,2332 5120,0" /><path
           id="path11020"
           style="fill:none;stroke:#000000;stroke-opacity:1;stroke-width:5;stroke-linecap:butt;stroke-linejoin:round;stroke-miterlimit:10;stroke-dasharray:none"
           d="m 404,3796 5120,0" /><path
           id="path11022"
           style="fill:none;stroke:#000000;stroke-opacity:1;stroke-width:5;stroke-linecap:butt;stroke-linejoin:round;stroke-miterlimit:10;stroke-dasharray:none"
           d="m 404,2332 0,1464" /><path
           id="path11024"
           style="fill:none;stroke:#000000;stroke-opacity:1;stroke-width:5;stroke-linecap:butt;stroke-linejoin:round;stroke-miterlimit:10;stroke-dasharray:none"
           d="m 5524,2332 0,1464" /><path
           id="path11026"
           style="fill:none;stroke:#000000;stroke-opacity:1;stroke-width:5;stroke-linecap:butt;stroke-linejoin:round;stroke-miterlimit:10;stroke-dasharray:none"
           d="m 404,2332 5120,0" /><path
           id="path11028"
           style="fill:none;stroke:#000000;stroke-opacity:1;stroke-width:5;stroke-linecap:butt;stroke-linejoin:round;stroke-miterlimit:10;stroke-dasharray:none"
           d="m 404,2332 0,1464" /><path
           id="path11030"
           style="fill:none;stroke:#000000;stroke-opacity:1;stroke-width:5;stroke-linecap:butt;stroke-linejoin:round;stroke-miterlimit:10;stroke-dasharray:none"
           d="m 404,2332 0,56" /><path
           id="path11032"
           style="fill:none;stroke:#000000;stroke-opacity:1;stroke-width:5;stroke-linecap:butt;stroke-linejoin:round;stroke-miterlimit:10;stroke-dasharray:none"
           d="m 404,3796 0,-48" /><path
           id="path11034"
           style="fill:#000000;fill-opacity:1;fill-rule:nonzero;stroke:none"
           d="m 407.5,2258.9 c -6.602,0 -12.602,-2.9 -16.301,-7.8 -4.597,-6.2 -6.898,-15.7 -6.898,-28.8 0,-23.9 8,-36.6 23.199,-36.6 15,0 23.199,12.7 23.199,36 0,13.8 -2.199,23 -6.898,29.4 -3.699,5 -9.602,7.8 -16.301,7.8 m 0,-7.8 c 9.5,0 14.199,-9.6 14.199,-28.6 0,-20.1 -4.597,-29.5 -14.398,-29.5 -9.301,0 -14,9.8 -14,29.2 0,19.4 4.699,28.9 14.199,28.9" /><path
           id="path11036"
           style="fill:none;stroke:#000000;stroke-opacity:1;stroke-width:5;stroke-linecap:butt;stroke-linejoin:round;stroke-miterlimit:10;stroke-dasharray:none"
           d="m 1044,2332 0,56" /><path
           id="path11038"
           style="fill:none;stroke:#000000;stroke-opacity:1;stroke-width:5;stroke-linecap:butt;stroke-linejoin:round;stroke-miterlimit:10;stroke-dasharray:none"
           d="m 1044,3796 0,-48" /><path
           id="path11040"
           style="fill:#000000;fill-opacity:1;fill-rule:nonzero;stroke:none"
           d="m 1038.6,2196.7 -37.3,0 c 0.9,5.8 4.1,9.5 12.8,14.6 l 10,5.4 c 9.9,5.4 15,12.7 15,21.4 0,5.9 -2.4,11.4 -6.6,15.2 -4.2,3.8 -9.4,5.6 -16.1,5.6 -9,0 -15.7,-3.2 -19.599,-9.2 -2.5,-3.8 -3.602,-8.2 -3.801,-15.4 l 8.8,0 c 0.3,4.8 0.9,7.7 2.1,10 2.3,4.3 6.9,6.9 12.2,6.9 8,0 14,-5.7 14,-13.3 0,-5.6 -3.3,-10.4 -9.6,-14 l -9.2,-5.2 c -14.8,-8.4 -19.101,-15.1 -19.902,-30.7 l 47.202,0 0,8.7" /><path
           id="path11042"
           style="fill:#000000;fill-opacity:1;fill-rule:nonzero;stroke:none"
           d="m 1071.1,2258.9 c -6.6,0 -12.6,-2.9 -16.3,-7.8 -4.6,-6.2 -6.9,-15.7 -6.9,-28.8 0,-23.9 8,-36.6 23.2,-36.6 15,0 23.2,12.7 23.2,36 0,13.8 -2.2,23 -6.9,29.4 -3.7,5 -9.6,7.8 -16.3,7.8 m 0,-7.8 c 9.5,0 14.2,-9.6 14.2,-28.6 0,-20.1 -4.6,-29.5 -14.4,-29.5 -9.3,0 -14,9.8 -14,29.2 0,19.4 4.7,28.9 14.2,28.9" /><path
           id="path11044"
           style="fill:none;stroke:#000000;stroke-opacity:1;stroke-width:5;stroke-linecap:butt;stroke-linejoin:round;stroke-miterlimit:10;stroke-dasharray:none"
           d="m 1684,2332 0,56" /><path
           id="path11046"
           style="fill:none;stroke:#000000;stroke-opacity:1;stroke-width:5;stroke-linecap:butt;stroke-linejoin:round;stroke-miterlimit:10;stroke-dasharray:none"
           d="m 1684,3796 0,-48" /><path
           id="path11048"
           style="fill:#000000;fill-opacity:1;fill-rule:nonzero;stroke:none"
           d="m 1660.7,2205 0,-17 8.8,0 0,17 10.5,0 0,7.9 -10.5,0 0,46 -6.5,0 -32.2,-44.6 0,-9.3 29.9,0 m 0,7.9 -22.2,0 22.2,31 0,-31" /><path
           id="path11050"
           style="fill:#000000;fill-opacity:1;fill-rule:nonzero;stroke:none"
           d="m 1711.1,2258.9 c -6.6,0 -12.6,-2.9 -16.3,-7.8 -4.6,-6.2 -6.9,-15.7 -6.9,-28.8 0,-23.9 8,-36.6 23.2,-36.6 15,0 23.2,12.7 23.2,36 0,13.8 -2.2,23 -6.9,29.4 -3.7,5 -9.6,7.8 -16.3,7.8 m 0,-7.8 c 9.5,0 14.2,-9.6 14.2,-28.6 0,-20.1 -4.6,-29.5 -14.4,-29.5 -9.3,0 -14,9.8 -14,29.2 0,19.4 4.7,28.9 14.2,28.9" /><path
           id="path11052"
           style="fill:none;stroke:#000000;stroke-opacity:1;stroke-width:5;stroke-linecap:butt;stroke-linejoin:round;stroke-miterlimit:10;stroke-dasharray:none"
           d="m 2324,2332 0,56" /><path
           id="path11054"
           style="fill:none;stroke:#000000;stroke-opacity:1;stroke-width:5;stroke-linecap:butt;stroke-linejoin:round;stroke-miterlimit:10;stroke-dasharray:none"
           d="m 2324,3796 0,-48" /><path
           id="path11056"
           style="fill:#000000;fill-opacity:1;fill-rule:nonzero;stroke:none"
           d="m 2317.8,2240.4 c -1.7,11.6 -9.3,18.5 -20.1,18.5 -7.8,0 -14.8,-3.8 -19,-10.1 -4.4,-6.9 -6.4,-15.6 -6.4,-28.5 0,-11.9 1.8,-19.5 6,-25.8 3.8,-5.7 10,-8.8 17.8,-8.8 13.5,0 23.2,10 23.2,23.9 0,13.2 -9,22.5 -21.7,22.5 -7,0 -12.5,-2.7 -16.3,-7.9 0.1,17.3 5.7,26.9 15.8,26.9 6.2,0 10.5,-3.9 11.9,-10.7 l 8.8,0 m -21.3,-16.1 c 8.5,0 13.8,-5.9 13.8,-15.4 0,-8.9 -6,-15.4 -14.1,-15.4 -8.2,0 -14.4,6.8 -14.4,15.9 0,8.8 6,14.9 14.7,14.9" /><path
           id="path11058"
           style="fill:#000000;fill-opacity:1;fill-rule:nonzero;stroke:none"
           d="m 2351.1,2258.9 c -6.6,0 -12.6,-2.9 -16.3,-7.8 -4.6,-6.2 -6.9,-15.7 -6.9,-28.8 0,-23.9 8,-36.6 23.2,-36.6 15,0 23.2,12.7 23.2,36 0,13.8 -2.2,23 -6.9,29.4 -3.7,5 -9.6,7.8 -16.3,7.8 m 0,-7.8 c 9.5,0 14.2,-9.6 14.2,-28.6 0,-20.1 -4.6,-29.5 -14.4,-29.5 -9.3,0 -14,9.8 -14,29.2 0,19.4 4.7,28.9 14.2,28.9" /><path
           id="path11060"
           style="fill:none;stroke:#000000;stroke-opacity:1;stroke-width:5;stroke-linecap:butt;stroke-linejoin:round;stroke-miterlimit:10;stroke-dasharray:none"
           d="m 2964,2332 0,56" /><path
           id="path11062"
           style="fill:none;stroke:#000000;stroke-opacity:1;stroke-width:5;stroke-linecap:butt;stroke-linejoin:round;stroke-miterlimit:10;stroke-dasharray:none"
           d="m 2964,3796 0,-48" /><path
           id="path11064"
           style="fill:#000000;fill-opacity:1;fill-rule:nonzero;stroke:none"
           d="m 2947.1,2225.3 c 7.3,4.4 9.7,8 9.7,14.7 0,11.1 -8.7,18.9 -21.3,18.9 -12.5,0 -21.3,-7.8 -21.3,-18.9 0,-6.6 2.4,-10.2 9.6,-14.7 -8.1,-3.9 -12.1,-9.8 -12.1,-17.6 0,-13 9.8,-22 23.8,-22 14,0 23.8,9 23.8,21.9 0,7.9 -4,13.8 -12.2,17.7 m -11.6,25.8 c 7.5,0 12.3,-4.4 12.3,-11.3 0,-6.6 -4.9,-11 -12.3,-11 -7.4,0 -12.3,4.4 -12.3,11.1 0,6.8 4.9,11.2 12.3,11.2 m 0,-29.7 c 8.8,0 14.8,-5.6 14.8,-13.9 0,-8.4 -6,-14 -15,-14 -8.6,0 -14.6,5.7 -14.6,14 0,8.3 6,13.9 14.8,13.9" /><path
           id="path11066"
           style="fill:#000000;fill-opacity:1;fill-rule:nonzero;stroke:none"
           d="m 2991.1,2258.9 c -6.6,0 -12.6,-2.9 -16.3,-7.8 -4.6,-6.2 -6.9,-15.7 -6.9,-28.8 0,-23.9 8,-36.6 23.2,-36.6 15,0 23.2,12.7 23.2,36 0,13.8 -2.2,23 -6.9,29.4 -3.7,5 -9.6,7.8 -16.3,7.8 m 0,-7.8 c 9.5,0 14.2,-9.6 14.2,-28.6 0,-20.1 -4.6,-29.5 -14.4,-29.5 -9.3,0 -14,9.8 -14,29.2 0,19.4 4.7,28.9 14.2,28.9" /><path
           id="path11068"
           style="fill:none;stroke:#000000;stroke-opacity:1;stroke-width:5;stroke-linecap:butt;stroke-linejoin:round;stroke-miterlimit:10;stroke-dasharray:none"
           d="m 3604,2332 0,56" /><path
           id="path11070"
           style="fill:none;stroke:#000000;stroke-opacity:1;stroke-width:5;stroke-linecap:butt;stroke-linejoin:round;stroke-miterlimit:10;stroke-dasharray:none"
           d="m 3604,3796 0,-48" /><path
           id="path11072"
           style="fill:#000000;fill-opacity:1;fill-rule:nonzero;stroke:none"
           d="m 3549.9,2238.5 0,-50.5 8.8,0 0,70.9 -5.8,0 c -3.1,-10.9 -5.1,-12.4 -18.7,-14.1 l 0,-6.3 15.7,0" /><path
           id="path11074"
           style="fill:#000000;fill-opacity:1;fill-rule:nonzero;stroke:none"
           d="m 3607.1,2258.9 c -6.6,0 -12.6,-2.9 -16.3,-7.8 -4.6,-6.2 -6.9,-15.7 -6.9,-28.8 0,-23.9 8,-36.6 23.2,-36.6 15,0 23.2,12.7 23.2,36 0,13.8 -2.2,23 -6.9,29.4 -3.7,5 -9.6,7.8 -16.3,7.8 m 0,-7.8 c 9.5,0 14.2,-9.6 14.2,-28.6 0,-20.1 -4.6,-29.5 -14.4,-29.5 -9.3,0 -14,9.8 -14,29.2 0,19.4 4.7,28.9 14.2,28.9" /><path
           id="path11076"
           style="fill:#000000;fill-opacity:1;fill-rule:nonzero;stroke:none"
           d="m 3662.7,2258.9 c -6.6,0 -12.6,-2.9 -16.3,-7.8 -4.6,-6.2 -6.9,-15.7 -6.9,-28.8 0,-23.9 8,-36.6 23.2,-36.6 15,0 23.2,12.7 23.2,36 0,13.8 -2.2,23 -6.9,29.4 -3.7,5 -9.6,7.8 -16.3,7.8 m 0,-7.8 c 9.5,0 14.2,-9.6 14.2,-28.6 0,-20.1 -4.6,-29.5 -14.4,-29.5 -9.3,0 -14,9.8 -14,29.2 0,19.4 4.7,28.9 14.2,28.9" /><path
           id="path11078"
           style="fill:none;stroke:#000000;stroke-opacity:1;stroke-width:5;stroke-linecap:butt;stroke-linejoin:round;stroke-miterlimit:10;stroke-dasharray:none"
           d="m 4244,2332 0,56" /><path
           id="path11080"
           style="fill:none;stroke:#000000;stroke-opacity:1;stroke-width:5;stroke-linecap:butt;stroke-linejoin:round;stroke-miterlimit:10;stroke-dasharray:none"
           d="m 4244,3796 0,-48" /><path
           id="path11082"
           style="fill:#000000;fill-opacity:1;fill-rule:nonzero;stroke:none"
           d="m 4189.9,2238.5 0,-50.5 8.8,0 0,70.9 -5.8,0 c -3.1,-10.9 -5.1,-12.4 -18.7,-14.1 l 0,-6.3 15.7,0" /><path
           id="path11084"
           style="fill:#000000;fill-opacity:1;fill-rule:nonzero;stroke:none"
           d="m 4270.2,2196.7 -37.3,0 c 0.9,5.8 4.1,9.5 12.8,14.6 l 10,5.4 c 9.9,5.4 15,12.7 15,21.4 0,5.9 -2.4,11.4 -6.6,15.2 -4.2,3.8 -9.4,5.6 -16.1,5.6 -9,0 -15.7,-3.2 -19.6,-9.2 -2.5,-3.8 -3.6,-8.2 -3.8,-15.4 l 8.8,0 c 0.3,4.8 0.9,7.7 2.1,10 2.3,4.3 6.9,6.9 12.2,6.9 8,0 14,-5.7 14,-13.3 0,-5.6 -3.3,-10.4 -9.6,-14 l -9.2,-5.2 c -14.8,-8.4 -19.1,-15.1 -19.9,-30.7 l 47.2,0 0,8.7" /><path
           id="path11086"
           style="fill:#000000;fill-opacity:1;fill-rule:nonzero;stroke:none"
           d="m 4302.7,2258.9 c -6.6,0 -12.6,-2.9 -16.3,-7.8 -4.6,-6.2 -6.9,-15.7 -6.9,-28.8 0,-23.9 8,-36.6 23.2,-36.6 15,0 23.2,12.7 23.2,36 0,13.8 -2.2,23 -6.9,29.4 -3.7,5 -9.6,7.8 -16.3,7.8 m 0,-7.8 c 9.5,0 14.2,-9.6 14.2,-28.6 0,-20.1 -4.6,-29.5 -14.4,-29.5 -9.3,0 -14,9.8 -14,29.2 0,19.4 4.7,28.9 14.2,28.9" /><path
           id="path11088"
           style="fill:none;stroke:#000000;stroke-opacity:1;stroke-width:5;stroke-linecap:butt;stroke-linejoin:round;stroke-miterlimit:10;stroke-dasharray:none"
           d="m 4884,2332 0,56" /><path
           id="path11090"
           style="fill:none;stroke:#000000;stroke-opacity:1;stroke-width:5;stroke-linecap:butt;stroke-linejoin:round;stroke-miterlimit:10;stroke-dasharray:none"
           d="m 4884,3796 0,-48" /><path
           id="path11092"
           style="fill:#000000;fill-opacity:1;fill-rule:nonzero;stroke:none"
           d="m 4829.9,2238.5 0,-50.5 8.8,0 0,70.9 -5.8,0 c -3.1,-10.9 -5.1,-12.4 -18.7,-14.1 l 0,-6.3 15.7,0" /><path
           id="path11094"
           style="fill:#000000;fill-opacity:1;fill-rule:nonzero;stroke:none"
           d="m 4892.3,2205 0,-17 8.8,0 0,17 10.5,0 0,7.9 -10.5,0 0,46 -6.5,0 -32.2,-44.6 0,-9.3 29.9,0 m 0,7.9 -22.2,0 22.2,31 0,-31" /><path
           id="path11096"
           style="fill:#000000;fill-opacity:1;fill-rule:nonzero;stroke:none"
           d="m 4942.7,2258.9 c -6.6,0 -12.6,-2.9 -16.3,-7.8 -4.6,-6.2 -6.9,-15.7 -6.9,-28.8 0,-23.9 8,-36.6 23.2,-36.6 15,0 23.2,12.7 23.2,36 0,13.8 -2.2,23 -6.9,29.4 -3.7,5 -9.6,7.8 -16.3,7.8 m 0,-7.8 c 9.5,0 14.2,-9.6 14.2,-28.6 0,-20.1 -4.6,-29.5 -14.4,-29.5 -9.3,0 -14,9.8 -14,29.2 0,19.4 4.7,28.9 14.2,28.9" /><path
           id="path11098"
           style="fill:none;stroke:#000000;stroke-opacity:1;stroke-width:5;stroke-linecap:butt;stroke-linejoin:round;stroke-miterlimit:10;stroke-dasharray:none"
           d="m 5524,2332 0,56" /><path
           id="path11100"
           style="fill:none;stroke:#000000;stroke-opacity:1;stroke-width:5;stroke-linecap:butt;stroke-linejoin:round;stroke-miterlimit:10;stroke-dasharray:none"
           d="m 5524,3796 0,-48" /><path
           id="path11102"
           style="fill:#000000;fill-opacity:1;fill-rule:nonzero;stroke:none"
           d="m 5469.9,2238.5 0,-50.5 8.8,0 0,70.9 -5.8,0 c -3.1,-10.9 -5.1,-12.4 -18.7,-14.1 l 0,-6.3 15.7,0" /><path
           id="path11104"
           style="fill:#000000;fill-opacity:1;fill-rule:nonzero;stroke:none"
           d="m 5549.4,2240.4 c -1.7,11.6 -9.3,18.5 -20.1,18.5 -7.8,0 -14.8,-3.8 -19,-10.1 -4.4,-6.9 -6.4,-15.6 -6.4,-28.5 0,-11.9 1.8,-19.5 6,-25.8 3.8,-5.7 10,-8.8 17.8,-8.8 13.5,0 23.2,10 23.2,23.9 0,13.2 -9,22.5 -21.7,22.5 -7,0 -12.5,-2.7 -16.3,-7.9 0.1,17.3 5.7,26.9 15.8,26.9 6.2,0 10.5,-3.9 11.9,-10.7 l 8.8,0 m -21.3,-16.1 c 8.5,0 13.8,-5.9 13.8,-15.4 0,-8.9 -6,-15.4 -14.1,-15.4 -8.2,0 -14.4,6.8 -14.4,15.9 0,8.8 6,14.9 14.7,14.9" /><path
           id="path11106"
           style="fill:#000000;fill-opacity:1;fill-rule:nonzero;stroke:none"
           d="m 5582.7,2258.9 c -6.6,0 -12.6,-2.9 -16.3,-7.8 -4.6,-6.2 -6.9,-15.7 -6.9,-28.8 0,-23.9 8,-36.6 23.2,-36.6 15,0 23.2,12.7 23.2,36 0,13.8 -2.2,23 -6.9,29.4 -3.7,5 -9.6,7.8 -16.3,7.8 m 0,-7.8 c 9.5,0 14.2,-9.6 14.2,-28.6 0,-20.1 -4.6,-29.5 -14.4,-29.5 -9.3,0 -14,9.8 -14,29.2 0,19.4 4.7,28.9 14.2,28.9" /><path
           id="path11108"
           style="fill:none;stroke:#000000;stroke-opacity:1;stroke-width:5;stroke-linecap:butt;stroke-linejoin:round;stroke-miterlimit:10;stroke-dasharray:none"
           d="m 404,2340 48,0" /><path
           id="path11110"
           style="fill:none;stroke:#000000;stroke-opacity:1;stroke-width:5;stroke-linecap:butt;stroke-linejoin:round;stroke-miterlimit:10;stroke-dasharray:none"
           d="m 5524,2340 -56,0" /><path
           id="path11112"
           style="fill:#000000;fill-opacity:1;fill-rule:nonzero;stroke:none"
           d="m 263.5,2362.9 c -6.602,0 -12.602,-2.9 -16.301,-7.8 -4.597,-6.2 -6.898,-15.7 -6.898,-28.8 0,-23.9 8,-36.6 23.199,-36.6 15,0 23.199,12.7 23.199,36 0,13.8 -2.199,23 -6.898,29.4 -3.699,5 -9.602,7.8 -16.301,7.8 m 0,-7.8 c 9.5,0 14.199,-9.6 14.199,-28.6 0,-20.1 -4.597,-29.5 -14.398,-29.5 -9.301,0 -14,9.8 -14,29.2 0,19.4 4.699,28.9 14.199,28.9" /><path
           id="path11114"
           style="fill:#000000;fill-opacity:1;fill-rule:nonzero;stroke:none"
           d="m 300.301,2292 10.3984,0 0,10.3984 -10.3984,0 0,-10.3984 z" /><path
           id="path11116"
           style="fill:#000000;fill-opacity:1;fill-rule:nonzero;stroke:none"
           d="m 371.398,2362.9 -47.398,0 0,-8.7 38.301,0 C 345.398,2330.1 338.5,2315.3 333.199,2292 l 9.403,0 c 3.898,22.7 12.796,42.2 28.796,63.5 l 0,7.4" /><path
           id="path11118"
           style="fill:none;stroke:#000000;stroke-opacity:1;stroke-width:5;stroke-linecap:butt;stroke-linejoin:round;stroke-miterlimit:10;stroke-dasharray:none"
           d="m 404,2628 48,0" /><path
           id="path11120"
           style="fill:none;stroke:#000000;stroke-opacity:1;stroke-width:5;stroke-linecap:butt;stroke-linejoin:round;stroke-miterlimit:10;stroke-dasharray:none"
           d="m 5524,2628 -56,0" /><path
           id="path11122"
           style="fill:#000000;fill-opacity:1;fill-rule:nonzero;stroke:none"
           d="m 207.5,2650.9 c -6.602,0 -12.602,-2.9 -16.301,-7.8 -4.597,-6.2 -6.898,-15.7 -6.898,-28.8 0,-23.9 8,-36.6 23.199,-36.6 15,0 23.199,12.7 23.199,36 0,13.8 -2.199,23 -6.898,29.4 -3.699,5 -9.602,7.8 -16.301,7.8 m 0,-7.8 c 9.5,0 14.199,-9.6 14.199,-28.6 0,-20.1 -4.597,-29.5 -14.398,-29.5 -9.301,0 -14,9.8 -14,29.2 0,19.4 4.699,28.9 14.199,28.9" /><path
           id="path11124"
           style="fill:#000000;fill-opacity:1;fill-rule:nonzero;stroke:none"
           d="m 244.301,2580 10.3984,0 0,10.3984 -10.3984,0 0,-10.3984 z" /><path
           id="path11126"
           style="fill:#000000;fill-opacity:1;fill-rule:nonzero;stroke:none"
           d="m 315.398,2650.9 -47.398,0 0,-8.7 38.301,0 C 289.398,2618.1 282.5,2603.3 277.199,2580 l 9.403,0 c 3.898,22.7 12.796,42.2 28.796,63.5 l 0,7.4" /><path
           id="path11128"
           style="fill:#000000;fill-opacity:1;fill-rule:nonzero;stroke:none"
           d="m 369.602,2588.7 -37.301,0 c 0.898,5.8 4.097,9.5 12.801,14.6 l 10,5.4 c 9.898,5.4 15,12.7 15,21.4 0,5.9 -2.403,11.4 -6.602,15.2 -4.199,3.8 -9.398,5.6 -16.102,5.6 -9,0 -15.699,-3.2 -19.597,-9.2 -2.5,-3.8 -3.602,-8.2 -3.801,-15.4 l 8.801,0 c 0.301,4.8 0.898,7.7 2.097,10 2.301,4.3 6.903,6.9 12.204,6.9 8,0 14,-5.7 14,-13.3 0,-5.6 -3.301,-10.4 -9.602,-14 l -9.199,-5.2 c -14.801,-8.4 -19.102,-15.1 -19.903,-30.7 l 47.204,0 0,8.7" /><path
           id="path11130"
           style="fill:none;stroke:#000000;stroke-opacity:1;stroke-width:5;stroke-linecap:butt;stroke-linejoin:round;stroke-miterlimit:10;stroke-dasharray:none"
           d="m 404,2924 48,0" /><path
           id="path11132"
           style="fill:none;stroke:#000000;stroke-opacity:1;stroke-width:5;stroke-linecap:butt;stroke-linejoin:round;stroke-miterlimit:10;stroke-dasharray:none"
           d="m 5524,2924 -56,0" /><path
           id="path11134"
           style="fill:#000000;fill-opacity:1;fill-rule:nonzero;stroke:none"
           d="m 207.5,2946.9 c -6.602,0 -12.602,-2.9 -16.301,-7.8 -4.597,-6.2 -6.898,-15.7 -6.898,-28.8 0,-23.9 8,-36.6 23.199,-36.6 15,0 23.199,12.7 23.199,36 0,13.8 -2.199,23 -6.898,29.4 -3.699,5 -9.602,7.8 -16.301,7.8 m 0,-7.8 c 9.5,0 14.199,-9.6 14.199,-28.6 0,-20.1 -4.597,-29.5 -14.398,-29.5 -9.301,0 -14,9.8 -14,29.2 0,19.4 4.699,28.9 14.199,28.9" /><path
           id="path11136"
           style="fill:#000000;fill-opacity:1;fill-rule:nonzero;stroke:none"
           d="m 244.301,2876 10.3984,0 0,10.3984 -10.3984,0 0,-10.3984 z" /><path
           id="path11138"
           style="fill:#000000;fill-opacity:1;fill-rule:nonzero;stroke:none"
           d="m 315.398,2946.9 -47.398,0 0,-8.7 38.301,0 C 289.398,2914.1 282.5,2899.3 277.199,2876 l 9.403,0 c 3.898,22.7 12.796,42.2 28.796,63.5 l 0,7.4" /><path
           id="path11140"
           style="fill:#000000;fill-opacity:1;fill-rule:nonzero;stroke:none"
           d="m 351.699,2893 0,-17 8.801,0 0,17 10.5,0 0,7.9 -10.5,0 0,46 -6.5,0 -32.199,-44.6 0,-9.3 29.898,0 m 0,7.9 -22.199,0 22.199,31 0,-31" /><path
           id="path11142"
           style="fill:none;stroke:#000000;stroke-opacity:1;stroke-width:5;stroke-linecap:butt;stroke-linejoin:round;stroke-miterlimit:10;stroke-dasharray:none"
           d="m 404,3212 48,0" /><path
           id="path11144"
           style="fill:none;stroke:#000000;stroke-opacity:1;stroke-width:5;stroke-linecap:butt;stroke-linejoin:round;stroke-miterlimit:10;stroke-dasharray:none"
           d="m 5524,3212 -56,0" /><path
           id="path11146"
           style="fill:#000000;fill-opacity:1;fill-rule:nonzero;stroke:none"
           d="m 207.5,3234.9 c -6.602,0 -12.602,-2.9 -16.301,-7.8 -4.597,-6.2 -6.898,-15.7 -6.898,-28.8 0,-23.9 8,-36.6 23.199,-36.6 15,0 23.199,12.7 23.199,36 0,13.8 -2.199,23 -6.898,29.4 -3.699,5 -9.602,7.8 -16.301,7.8 m 0,-7.8 c 9.5,0 14.199,-9.6 14.199,-28.6 0,-20.1 -4.597,-29.5 -14.398,-29.5 -9.301,0 -14,9.8 -14,29.2 0,19.4 4.699,28.9 14.199,28.9" /><path
           id="path11148"
           style="fill:#000000;fill-opacity:1;fill-rule:nonzero;stroke:none"
           d="m 244.301,3164 10.3984,0 0,10.3984 -10.3984,0 0,-10.3984 z" /><path
           id="path11150"
           style="fill:#000000;fill-opacity:1;fill-rule:nonzero;stroke:none"
           d="m 315.398,3234.9 -47.398,0 0,-8.7 38.301,0 C 289.398,3202.1 282.5,3187.3 277.199,3164 l 9.403,0 c 3.898,22.7 12.796,42.2 28.796,63.5 l 0,7.4" /><path
           id="path11152"
           style="fill:#000000;fill-opacity:1;fill-rule:nonzero;stroke:none"
           d="m 368.801,3216.4 c -1.699,11.6 -9.301,18.5 -20.102,18.5 -7.801,0 -14.801,-3.8 -19,-10.1 -4.398,-6.9 -6.398,-15.6 -6.398,-28.5 0,-11.9 1.801,-19.5 6,-25.8 3.801,-5.7 10,-8.8 17.801,-8.8 13.5,0 23.199,10 23.199,23.9 0,13.2 -9,22.5 -21.699,22.5 -7,0 -12.5,-2.7 -16.301,-7.9 0.097,17.3 5.699,26.9 15.801,26.9 6.199,0 10.5,-3.9 11.898,-10.7 l 8.801,0 M 347.5,3200.3 c 8.5,0 13.801,-5.9 13.801,-15.4 0,-8.9 -6,-15.4 -14.102,-15.4 -8.199,0 -14.398,6.8 -14.398,15.9 0,8.8 6,14.9 14.699,14.9" /><path
           id="path11154"
           style="fill:none;stroke:#000000;stroke-opacity:1;stroke-width:5;stroke-linecap:butt;stroke-linejoin:round;stroke-miterlimit:10;stroke-dasharray:none"
           d="m 404,3508 48,0" /><path
           id="path11156"
           style="fill:none;stroke:#000000;stroke-opacity:1;stroke-width:5;stroke-linecap:butt;stroke-linejoin:round;stroke-miterlimit:10;stroke-dasharray:none"
           d="m 5524,3508 -56,0" /><path
           id="path11158"
           style="fill:#000000;fill-opacity:1;fill-rule:nonzero;stroke:none"
           d="m 207.5,3530.9 c -6.602,0 -12.602,-2.9 -16.301,-7.8 -4.597,-6.2 -6.898,-15.7 -6.898,-28.8 0,-23.9 8,-36.6 23.199,-36.6 15,0 23.199,12.7 23.199,36 0,13.8 -2.199,23 -6.898,29.4 -3.699,5 -9.602,7.8 -16.301,7.8 m 0,-7.8 c 9.5,0 14.199,-9.6 14.199,-28.6 0,-20.1 -4.597,-29.5 -14.398,-29.5 -9.301,0 -14,9.8 -14,29.2 0,19.4 4.699,28.9 14.199,28.9" /><path
           id="path11160"
           style="fill:#000000;fill-opacity:1;fill-rule:nonzero;stroke:none"
           d="m 244.301,3460 10.3984,0 0,10.3984 -10.3984,0 0,-10.3984 z" /><path
           id="path11162"
           style="fill:#000000;fill-opacity:1;fill-rule:nonzero;stroke:none"
           d="m 315.398,3530.9 -47.398,0 0,-8.7 38.301,0 C 289.398,3498.1 282.5,3483.3 277.199,3460 l 9.403,0 c 3.898,22.7 12.796,42.2 28.796,63.5 l 0,7.4" /><path
           id="path11164"
           style="fill:#000000;fill-opacity:1;fill-rule:nonzero;stroke:none"
           d="m 358.102,3497.3 c 7.296,4.4 9.699,8 9.699,14.7 0,11.1 -8.699,18.9 -21.301,18.9 -12.5,0 -21.301,-7.8 -21.301,-18.9 0,-6.6 2.403,-10.2 9.602,-14.7 -8.102,-3.9 -12.102,-9.8 -12.102,-17.6 0,-13 9.801,-22 23.801,-22 14,0 23.801,9 23.801,21.9 0,7.9 -4,13.8 -12.199,17.7 m -11.602,25.8 c 7.5,0 12.301,-4.4 12.301,-11.3 0,-6.6 -4.903,-11 -12.301,-11 -7.398,0 -12.301,4.4 -12.301,11.1 0,6.8 4.903,11.2 12.301,11.2 m 0,-29.7 c 8.801,0 14.801,-5.6 14.801,-13.9 0,-8.4 -6,-14 -15,-14 -8.602,0 -14.602,5.7 -14.602,14 0,8.3 6,13.9 14.801,13.9" /><path
           id="path11166"
           style="fill:none;stroke:#000000;stroke-opacity:1;stroke-width:5;stroke-linecap:butt;stroke-linejoin:round;stroke-miterlimit:10;stroke-dasharray:none"
           d="m 404,3796 48,0" /><path
           id="path11168"
           style="fill:none;stroke:#000000;stroke-opacity:1;stroke-width:5;stroke-linecap:butt;stroke-linejoin:round;stroke-miterlimit:10;stroke-dasharray:none"
           d="m 5524,3796 -56,0" /><path
           id="path11170"
           style="fill:#000000;fill-opacity:1;fill-rule:nonzero;stroke:none"
           d="m 263.5,3818.9 c -6.602,0 -12.602,-2.9 -16.301,-7.8 -4.597,-6.2 -6.898,-15.7 -6.898,-28.8 0,-23.9 8,-36.6 23.199,-36.6 15,0 23.199,12.7 23.199,36 0,13.8 -2.199,23 -6.898,29.4 -3.699,5 -9.602,7.8 -16.301,7.8 m 0,-7.8 c 9.5,0 14.199,-9.6 14.199,-28.6 0,-20.1 -4.597,-29.5 -14.398,-29.5 -9.301,0 -14,9.8 -14,29.2 0,19.4 4.699,28.9 14.199,28.9" /><path
           id="path11172"
           style="fill:#000000;fill-opacity:1;fill-rule:nonzero;stroke:none"
           d="m 300.301,3748 10.3984,0 0,10.3984 -10.3984,0 0,-10.3984 z" /><path
           id="path11174"
           style="fill:#000000;fill-opacity:1;fill-rule:nonzero;stroke:none"
           d="m 358.5,3785.3 c 7.301,4.4 9.699,8 9.699,14.7 0,11.1 -8.699,18.9 -21.301,18.9 -12.5,0 -21.296,-7.8 -21.296,-18.9 0,-6.6 2.398,-10.2 9.597,-14.7 -8.097,-3.9 -12.097,-9.8 -12.097,-17.6 0,-13 9.796,-22 23.796,-22 14,0 23.801,9 23.801,21.9 0,7.9 -4,13.8 -12.199,17.7 m -11.602,25.8 c 7.5,0 12.301,-4.4 12.301,-11.3 0,-6.6 -4.898,-11 -12.301,-11 -7.398,0 -12.296,4.4 -12.296,11.1 0,6.8 4.898,11.2 12.296,11.2 m 0,-29.7 c 8.801,0 14.801,-5.6 14.801,-13.9 0,-8.4 -6,-14 -15,-14 -8.597,0 -14.597,5.7 -14.597,14 0,8.3 6,13.9 14.796,13.9" /><path
           id="path11176"
           style="fill:none;stroke:#000000;stroke-opacity:1;stroke-width:5;stroke-linecap:butt;stroke-linejoin:round;stroke-miterlimit:10;stroke-dasharray:none"
           d="m 404,2332 5120,0" /><path
           id="path11178"
           style="fill:none;stroke:#000000;stroke-opacity:1;stroke-width:5;stroke-linecap:butt;stroke-linejoin:round;stroke-miterlimit:10;stroke-dasharray:none"
           d="m 404,3796 5120,0" /><path
           id="path11180"
           style="fill:none;stroke:#000000;stroke-opacity:1;stroke-width:5;stroke-linecap:butt;stroke-linejoin:round;stroke-miterlimit:10;stroke-dasharray:none"
           d="m 404,2332 0,1464" /><path
           id="path11182"
           style="fill:none;stroke:#000000;stroke-opacity:1;stroke-width:5;stroke-linecap:butt;stroke-linejoin:round;stroke-miterlimit:10;stroke-dasharray:none"
           d="m 5524,2332 0,1464" /><path
           id="path11184"
           style="fill:none;stroke:#000000;stroke-opacity:1;stroke-width:5;stroke-linecap:butt;stroke-linejoin:round;stroke-miterlimit:10;stroke-dasharray:none"
           d="m 404,2844 128,120 128,-56 128,40 128,32 128,-16 128,48 128,-56 128,-128 128,120 128,256 128,112 128,200 128,-152 128,-328 128,-96 128,64 128,16 128,-24 128,-72 128,176 128,-64 128,-16 128,-48 128,40 128,-192 128,96 128,248 128,184 128,112 128,-96 128,-352 128,-152 128,120 128,64 128,-32 128,-80 128,112 128,-24" /><path
           id="path11186"
           style="fill:#000000;fill-opacity:1;fill-rule:nonzero;stroke:none"
           d="m 420,2844 c 0,-8.84 -7.164,-16 -16,-16 -8.836,0 -16,7.16 -16,16 0,8.84 7.164,16 16,16 8.836,0 16,-7.16 16,-16" /><path
           id="path11188"
           style="fill:#000000;fill-opacity:1;fill-rule:nonzero;stroke:none"
           d="m 548,2964 c 0,-8.84 -7.164,-16 -16,-16 -8.836,0 -16,7.16 -16,16 0,8.84 7.164,16 16,16 8.836,0 16,-7.16 16,-16" /><path
           id="path11190"
           style="fill:#000000;fill-opacity:1;fill-rule:nonzero;stroke:none"
           d="m 676,2908 c 0,-8.84 -7.164,-16 -16,-16 -8.836,0 -16,7.16 -16,16 0,8.84 7.164,16 16,16 8.836,0 16,-7.16 16,-16" /><path
           id="path11192"
           style="fill:#000000;fill-opacity:1;fill-rule:nonzero;stroke:none"
           d="m 804,2948 c 0,-8.84 -7.164,-16 -16,-16 -8.836,0 -16,7.16 -16,16 0,8.84 7.164,16 16,16 8.836,0 16,-7.16 16,-16" /><path
           id="path11194"
           style="fill:#000000;fill-opacity:1;fill-rule:nonzero;stroke:none"
           d="m 932,2980 c 0,-8.84 -7.16,-16 -16,-16 -8.84,0 -16,7.16 -16,16 0,8.84 7.16,16 16,16 8.84,0 16,-7.16 16,-16" /><path
           id="path11196"
           style="fill:#000000;fill-opacity:1;fill-rule:nonzero;stroke:none"
           d="m 1060,2964 c 0,-8.84 -7.16,-16 -16,-16 -8.84,0 -16,7.16 -16,16 0,8.84 7.16,16 16,16 8.84,0 16,-7.16 16,-16" /><path
           id="path11198"
           style="fill:#000000;fill-opacity:1;fill-rule:nonzero;stroke:none"
           d="m 1188,3012 c 0,-8.84 -7.16,-16 -16,-16 -8.84,0 -16,7.16 -16,16 0,8.84 7.16,16 16,16 8.84,0 16,-7.16 16,-16" /><path
           id="path11200"
           style="fill:#000000;fill-opacity:1;fill-rule:nonzero;stroke:none"
           d="m 1316,2956 c 0,-8.84 -7.16,-16 -16,-16 -8.84,0 -16,7.16 -16,16 0,8.84 7.16,16 16,16 8.84,0 16,-7.16 16,-16" /><path
           id="path11202"
           style="fill:#000000;fill-opacity:1;fill-rule:nonzero;stroke:none"
           d="m 1444,2828 c 0,-8.84 -7.16,-16 -16,-16 -8.84,0 -16,7.16 -16,16 0,8.84 7.16,16 16,16 8.84,0 16,-7.16 16,-16" /><path
           id="path11204"
           style="fill:#000000;fill-opacity:1;fill-rule:nonzero;stroke:none"
           d="m 1572,2948 c 0,-8.84 -7.16,-16 -16,-16 -8.84,0 -16,7.16 -16,16 0,8.84 7.16,16 16,16 8.84,0 16,-7.16 16,-16" /><path
           id="path11206"
           style="fill:#000000;fill-opacity:1;fill-rule:nonzero;stroke:none"
           d="m 1700,3204 c 0,-8.84 -7.16,-16 -16,-16 -8.84,0 -16,7.16 -16,16 0,8.84 7.16,16 16,16 8.84,0 16,-7.16 16,-16" /><path
           id="path11208"
           style="fill:#000000;fill-opacity:1;fill-rule:nonzero;stroke:none"
           d="m 1828,3316 c 0,-8.84 -7.16,-16 -16,-16 -8.84,0 -16,7.16 -16,16 0,8.84 7.16,16 16,16 8.84,0 16,-7.16 16,-16" /><path
           id="path11210"
           style="fill:#000000;fill-opacity:1;fill-rule:nonzero;stroke:none"
           d="m 1956,3516 c 0,-8.84 -7.16,-16 -16,-16 -8.84,0 -16,7.16 -16,16 0,8.84 7.16,16 16,16 8.84,0 16,-7.16 16,-16" /><path
           id="path11212"
           style="fill:#000000;fill-opacity:1;fill-rule:nonzero;stroke:none"
           d="m 2084,3364 c 0,-8.84 -7.16,-16 -16,-16 -8.84,0 -16,7.16 -16,16 0,8.84 7.16,16 16,16 8.84,0 16,-7.16 16,-16" /><path
           id="path11214"
           style="fill:#000000;fill-opacity:1;fill-rule:nonzero;stroke:none"
           d="m 2212,3036 c 0,-8.84 -7.16,-16 -16,-16 -8.84,0 -16,7.16 -16,16 0,8.84 7.16,16 16,16 8.84,0 16,-7.16 16,-16" /><path
           id="path11216"
           style="fill:#000000;fill-opacity:1;fill-rule:nonzero;stroke:none"
           d="m 2340,2940 c 0,-8.84 -7.16,-16 -16,-16 -8.84,0 -16,7.16 -16,16 0,8.84 7.16,16 16,16 8.84,0 16,-7.16 16,-16" /><path
           id="path11218"
           style="fill:#000000;fill-opacity:1;fill-rule:nonzero;stroke:none"
           d="m 2468,3004 c 0,-8.84 -7.16,-16 -16,-16 -8.84,0 -16,7.16 -16,16 0,8.84 7.16,16 16,16 8.84,0 16,-7.16 16,-16" /><path
           id="path11220"
           style="fill:#000000;fill-opacity:1;fill-rule:nonzero;stroke:none"
           d="m 2596,3020 c 0,-8.84 -7.16,-16 -16,-16 -8.84,0 -16,7.16 -16,16 0,8.84 7.16,16 16,16 8.84,0 16,-7.16 16,-16" /><path
           id="path11222"
           style="fill:#000000;fill-opacity:1;fill-rule:nonzero;stroke:none"
           d="m 2724,2996 c 0,-8.84 -7.16,-16 -16,-16 -8.84,0 -16,7.16 -16,16 0,8.84 7.16,16 16,16 8.84,0 16,-7.16 16,-16" /><path
           id="path11224"
           style="fill:#000000;fill-opacity:1;fill-rule:nonzero;stroke:none"
           d="m 2852,2924 c 0,-8.84 -7.16,-16 -16,-16 -8.84,0 -16,7.16 -16,16 0,8.84 7.16,16 16,16 8.84,0 16,-7.16 16,-16" /><path
           id="path11226"
           style="fill:#000000;fill-opacity:1;fill-rule:nonzero;stroke:none"
           d="m 2980,3100 c 0,-8.84 -7.16,-16 -16,-16 -8.84,0 -16,7.16 -16,16 0,8.84 7.16,16 16,16 8.84,0 16,-7.16 16,-16" /><path
           id="path11228"
           style="fill:#000000;fill-opacity:1;fill-rule:nonzero;stroke:none"
           d="m 3108,3036 c 0,-8.84 -7.16,-16 -16,-16 -8.84,0 -16,7.16 -16,16 0,8.84 7.16,16 16,16 8.84,0 16,-7.16 16,-16" /><path
           id="path11230"
           style="fill:#000000;fill-opacity:1;fill-rule:nonzero;stroke:none"
           d="m 3236,3020 c 0,-8.84 -7.16,-16 -16,-16 -8.84,0 -16,7.16 -16,16 0,8.84 7.16,16 16,16 8.84,0 16,-7.16 16,-16" /><path
           id="path11232"
           style="fill:#000000;fill-opacity:1;fill-rule:nonzero;stroke:none"
           d="m 3364,2972 c 0,-8.84 -7.16,-16 -16,-16 -8.84,0 -16,7.16 -16,16 0,8.84 7.16,16 16,16 8.84,0 16,-7.16 16,-16" /><path
           id="path11234"
           style="fill:#000000;fill-opacity:1;fill-rule:nonzero;stroke:none"
           d="m 3492,3012 c 0,-8.84 -7.16,-16 -16,-16 -8.84,0 -16,7.16 -16,16 0,8.84 7.16,16 16,16 8.84,0 16,-7.16 16,-16" /><path
           id="path11236"
           style="fill:#000000;fill-opacity:1;fill-rule:nonzero;stroke:none"
           d="m 3620,2820 c 0,-8.84 -7.16,-16 -16,-16 -8.84,0 -16,7.16 -16,16 0,8.84 7.16,16 16,16 8.84,0 16,-7.16 16,-16" /><path
           id="path11238"
           style="fill:#000000;fill-opacity:1;fill-rule:nonzero;stroke:none"
           d="m 3748,2916 c 0,-8.84 -7.16,-16 -16,-16 -8.84,0 -16,7.16 -16,16 0,8.84 7.16,16 16,16 8.84,0 16,-7.16 16,-16" /><path
           id="path11240"
           style="fill:#000000;fill-opacity:1;fill-rule:nonzero;stroke:none"
           d="m 3876,3164 c 0,-8.84 -7.16,-16 -16,-16 -8.84,0 -16,7.16 -16,16 0,8.84 7.16,16 16,16 8.84,0 16,-7.16 16,-16" /><path
           id="path11242"
           style="fill:#000000;fill-opacity:1;fill-rule:nonzero;stroke:none"
           d="m 4004,3348 c 0,-8.84 -7.16,-16 -16,-16 -8.84,0 -16,7.16 -16,16 0,8.84 7.16,16 16,16 8.84,0 16,-7.16 16,-16" /><path
           id="path11244"
           style="fill:#000000;fill-opacity:1;fill-rule:nonzero;stroke:none"
           d="m 4132,3460 c 0,-8.84 -7.16,-16 -16,-16 -8.84,0 -16,7.16 -16,16 0,8.84 7.16,16 16,16 8.84,0 16,-7.16 16,-16" /><path
           id="path11246"
           style="fill:#000000;fill-opacity:1;fill-rule:nonzero;stroke:none"
           d="m 4260,3364 c 0,-8.84 -7.16,-16 -16,-16 -8.84,0 -16,7.16 -16,16 0,8.84 7.16,16 16,16 8.84,0 16,-7.16 16,-16" /><path
           id="path11248"
           style="fill:#000000;fill-opacity:1;fill-rule:nonzero;stroke:none"
           d="m 4388,3012 c 0,-8.84 -7.16,-16 -16,-16 -8.84,0 -16,7.16 -16,16 0,8.84 7.16,16 16,16 8.84,0 16,-7.16 16,-16" /><path
           id="path11250"
           style="fill:#000000;fill-opacity:1;fill-rule:nonzero;stroke:none"
           d="m 4516,2860 c 0,-8.84 -7.16,-16 -16,-16 -8.84,0 -16,7.16 -16,16 0,8.84 7.16,16 16,16 8.84,0 16,-7.16 16,-16" /><path
           id="path11252"
           style="fill:#000000;fill-opacity:1;fill-rule:nonzero;stroke:none"
           d="m 4644,2980 c 0,-8.84 -7.16,-16 -16,-16 -8.84,0 -16,7.16 -16,16 0,8.84 7.16,16 16,16 8.84,0 16,-7.16 16,-16" /><path
           id="path11254"
           style="fill:#000000;fill-opacity:1;fill-rule:nonzero;stroke:none"
           d="m 4772,3044 c 0,-8.84 -7.16,-16 -16,-16 -8.84,0 -16,7.16 -16,16 0,8.84 7.16,16 16,16 8.84,0 16,-7.16 16,-16" /><path
           id="path11256"
           style="fill:#000000;fill-opacity:1;fill-rule:nonzero;stroke:none"
           d="m 4900,3012 c 0,-8.84 -7.16,-16 -16,-16 -8.84,0 -16,7.16 -16,16 0,8.84 7.16,16 16,16 8.84,0 16,-7.16 16,-16" /><path
           id="path11258"
           style="fill:#000000;fill-opacity:1;fill-rule:nonzero;stroke:none"
           d="m 5028,2932 c 0,-8.84 -7.16,-16 -16,-16 -8.84,0 -16,7.16 -16,16 0,8.84 7.16,16 16,16 8.84,0 16,-7.16 16,-16" /><path
           id="path11260"
           style="fill:#000000;fill-opacity:1;fill-rule:nonzero;stroke:none"
           d="m 5156,3044 c 0,-8.84 -7.16,-16 -16,-16 -8.84,0 -16,7.16 -16,16 0,8.84 7.16,16 16,16 8.84,0 16,-7.16 16,-16" /><path
           id="path11262"
           style="fill:#000000;fill-opacity:1;fill-rule:nonzero;stroke:none"
           d="m 5284,3020 c 0,-8.84 -7.16,-16 -16,-16 -8.84,0 -16,7.16 -16,16 0,8.84 7.16,16 16,16 8.84,0 16,-7.16 16,-16" /></g><g
         id="g11562"><path
           id="path11280"
           style="fill:#ffffff;fill-opacity:1;fill-rule:evenodd;stroke:none"
           d="m 404,300 5120,0 0,1464 -5120,0 0,-1464 z" /><path
           id="path11282"
           style="fill:none;stroke:#ffffff;stroke-opacity:1;stroke-width:5;stroke-linecap:butt;stroke-linejoin:round;stroke-miterlimit:10;stroke-dasharray:none"
           d="m 404,300 0,1464 5120,0 0,-1464 -5120,0" /><path
           id="path11284"
           style="fill:none;stroke:#000000;stroke-opacity:1;stroke-width:5;stroke-linecap:butt;stroke-linejoin:round;stroke-miterlimit:10;stroke-dasharray:none"
           d="m 404,300 5120,0" /><path
           id="path11286"
           style="fill:none;stroke:#000000;stroke-opacity:1;stroke-width:5;stroke-linecap:butt;stroke-linejoin:round;stroke-miterlimit:10;stroke-dasharray:none"
           d="m 404,1764 5120,0" /><path
           id="path11288"
           style="fill:none;stroke:#000000;stroke-opacity:1;stroke-width:5;stroke-linecap:butt;stroke-linejoin:round;stroke-miterlimit:10;stroke-dasharray:none"
           d="m 404,300 0,1464" /><path
           id="path11290"
           style="fill:none;stroke:#000000;stroke-opacity:1;stroke-width:5;stroke-linecap:butt;stroke-linejoin:round;stroke-miterlimit:10;stroke-dasharray:none"
           d="m 5524,300 0,1464" /><path
           id="path11292"
           style="fill:none;stroke:#000000;stroke-opacity:1;stroke-width:5;stroke-linecap:butt;stroke-linejoin:round;stroke-miterlimit:10;stroke-dasharray:none"
           d="m 404,300 5120,0" /><path
           id="path11294"
           style="fill:none;stroke:#000000;stroke-opacity:1;stroke-width:5;stroke-linecap:butt;stroke-linejoin:round;stroke-miterlimit:10;stroke-dasharray:none"
           d="m 404,300 0,1464" /><path
           id="path11296"
           style="fill:none;stroke:#000000;stroke-opacity:1;stroke-width:5;stroke-linecap:butt;stroke-linejoin:round;stroke-miterlimit:10;stroke-dasharray:none"
           d="m 404,300 0,56" /><path
           id="path11298"
           style="fill:none;stroke:#000000;stroke-opacity:1;stroke-width:5;stroke-linecap:butt;stroke-linejoin:round;stroke-miterlimit:10;stroke-dasharray:none"
           d="m 404,1764 0,-48" /><path
           id="path11300"
           style="fill:#000000;fill-opacity:1;fill-rule:nonzero;stroke:none"
           d="m 407.5,226.898 c -6.602,0 -12.602,-2.898 -16.301,-7.796 -4.597,-6.204 -6.898,-15.704 -6.898,-28.801 0,-23.903 8,-36.602 23.199,-36.602 15,0 23.199,12.699 23.199,36 0,13.801 -2.199,23 -6.898,29.403 -3.699,5 -9.602,7.796 -16.301,7.796 m 0,-7.796 c 9.5,0 14.199,-9.602 14.199,-28.602 0,-20.102 -4.597,-29.5 -14.398,-29.5 -9.301,0 -14,9.801 -14,29.199 0,19.403 4.699,28.903 14.199,28.903" /><path
           id="path11302"
           style="fill:none;stroke:#000000;stroke-opacity:1;stroke-width:5;stroke-linecap:butt;stroke-linejoin:round;stroke-miterlimit:10;stroke-dasharray:none"
           d="m 1044,300 0,56" /><path
           id="path11304"
           style="fill:none;stroke:#000000;stroke-opacity:1;stroke-width:5;stroke-linecap:butt;stroke-linejoin:round;stroke-miterlimit:10;stroke-dasharray:none"
           d="m 1044,1764 0,-48" /><path
           id="path11306"
           style="fill:#000000;fill-opacity:1;fill-rule:nonzero;stroke:none"
           d="m 1038.6,164.699 -37.3,0 c 0.9,5.801 4.1,9.5 12.8,14.602 l 10,5.398 c 9.9,5.403 15,12.699 15,21.403 0,5.898 -2.4,11.398 -6.6,15.199 -4.2,3.801 -9.4,5.597 -16.1,5.597 -9,0 -15.7,-3.199 -19.599,-9.199 -2.5,-3.801 -3.602,-8.199 -3.801,-15.398 l 8.8,0 c 0.3,4.801 0.9,7.699 2.1,10 2.3,4.301 6.9,6.898 12.2,6.898 8,0 14,-5.699 14,-13.301 0,-5.597 -3.3,-10.398 -9.6,-14 l -9.2,-5.199 C 996.5,178.301 992.199,171.602 991.398,156 l 47.202,0 0,8.699" /><path
           id="path11308"
           style="fill:#000000;fill-opacity:1;fill-rule:nonzero;stroke:none"
           d="m 1071.1,226.898 c -6.6,0 -12.6,-2.898 -16.3,-7.796 -4.6,-6.204 -6.9,-15.704 -6.9,-28.801 0,-23.903 8,-36.602 23.2,-36.602 15,0 23.2,12.699 23.2,36 0,13.801 -2.2,23 -6.9,29.403 -3.7,5 -9.6,7.796 -16.3,7.796 m 0,-7.796 c 9.5,0 14.2,-9.602 14.2,-28.602 0,-20.102 -4.6,-29.5 -14.4,-29.5 -9.3,0 -14,9.801 -14,29.199 0,19.403 4.7,28.903 14.2,28.903" /><path
           id="path11310"
           style="fill:none;stroke:#000000;stroke-opacity:1;stroke-width:5;stroke-linecap:butt;stroke-linejoin:round;stroke-miterlimit:10;stroke-dasharray:none"
           d="m 1684,300 0,56" /><path
           id="path11312"
           style="fill:none;stroke:#000000;stroke-opacity:1;stroke-width:5;stroke-linecap:butt;stroke-linejoin:round;stroke-miterlimit:10;stroke-dasharray:none"
           d="m 1684,1764 0,-48" /><path
           id="path11314"
           style="fill:#000000;fill-opacity:1;fill-rule:nonzero;stroke:none"
           d="m 1660.7,173 0,-17 8.8,0 0,17 10.5,0 0,7.898 -10.5,0 0,46 -6.5,0 -32.2,-44.597 0,-9.301 29.9,0 m 0,7.898 -22.2,0 22.2,31 0,-31" /><path
           id="path11316"
           style="fill:#000000;fill-opacity:1;fill-rule:nonzero;stroke:none"
           d="m 1711.1,226.898 c -6.6,0 -12.6,-2.898 -16.3,-7.796 -4.6,-6.204 -6.9,-15.704 -6.9,-28.801 0,-23.903 8,-36.602 23.2,-36.602 15,0 23.2,12.699 23.2,36 0,13.801 -2.2,23 -6.9,29.403 -3.7,5 -9.6,7.796 -16.3,7.796 m 0,-7.796 c 9.5,0 14.2,-9.602 14.2,-28.602 0,-20.102 -4.6,-29.5 -14.4,-29.5 -9.3,0 -14,9.801 -14,29.199 0,19.403 4.7,28.903 14.2,28.903" /><path
           id="path11318"
           style="fill:none;stroke:#000000;stroke-opacity:1;stroke-width:5;stroke-linecap:butt;stroke-linejoin:round;stroke-miterlimit:10;stroke-dasharray:none"
           d="m 2324,300 0,56" /><path
           id="path11320"
           style="fill:none;stroke:#000000;stroke-opacity:1;stroke-width:5;stroke-linecap:butt;stroke-linejoin:round;stroke-miterlimit:10;stroke-dasharray:none"
           d="m 2324,1764 0,-48" /><path
           id="path11322"
           style="fill:#000000;fill-opacity:1;fill-rule:nonzero;stroke:none"
           d="m 2317.8,208.398 c -1.7,11.602 -9.3,18.5 -20.1,18.5 -7.8,0 -14.8,-3.796 -19,-10.097 -4.4,-6.903 -6.4,-15.602 -6.4,-28.5 0,-11.903 1.8,-19.5 6,-25.801 3.8,-5.699 10,-8.801 17.8,-8.801 13.5,0 23.2,10 23.2,23.903 0,13.199 -9,22.5 -21.7,22.5 -7,0 -12.5,-2.704 -16.3,-7.903 0.1,17.301 5.7,26.903 15.8,26.903 6.2,0 10.5,-3.903 11.9,-10.704 l 8.8,0 m -21.3,-16.097 c 8.5,0 13.8,-5.903 13.8,-15.403 0,-8.898 -6,-15.398 -14.1,-15.398 -8.2,0 -14.4,6.801 -14.4,15.898 0,8.801 6,14.903 14.7,14.903" /><path
           id="path11324"
           style="fill:#000000;fill-opacity:1;fill-rule:nonzero;stroke:none"
           d="m 2351.1,226.898 c -6.6,0 -12.6,-2.898 -16.3,-7.796 -4.6,-6.204 -6.9,-15.704 -6.9,-28.801 0,-23.903 8,-36.602 23.2,-36.602 15,0 23.2,12.699 23.2,36 0,13.801 -2.2,23 -6.9,29.403 -3.7,5 -9.6,7.796 -16.3,7.796 m 0,-7.796 c 9.5,0 14.2,-9.602 14.2,-28.602 0,-20.102 -4.6,-29.5 -14.4,-29.5 -9.3,0 -14,9.801 -14,29.199 0,19.403 4.7,28.903 14.2,28.903" /><path
           id="path11326"
           style="fill:none;stroke:#000000;stroke-opacity:1;stroke-width:5;stroke-linecap:butt;stroke-linejoin:round;stroke-miterlimit:10;stroke-dasharray:none"
           d="m 2964,300 0,56" /><path
           id="path11328"
           style="fill:none;stroke:#000000;stroke-opacity:1;stroke-width:5;stroke-linecap:butt;stroke-linejoin:round;stroke-miterlimit:10;stroke-dasharray:none"
           d="m 2964,1764 0,-48" /><path
           id="path11330"
           style="fill:#000000;fill-opacity:1;fill-rule:nonzero;stroke:none"
           d="m 2947.1,193.301 c 7.3,4.398 9.7,8 9.7,14.699 0,11.102 -8.7,18.898 -21.3,18.898 -12.5,0 -21.3,-7.796 -21.3,-18.898 0,-6.602 2.4,-10.199 9.6,-14.699 -8.1,-3.903 -12.1,-9.801 -12.1,-17.602 0,-13 9.8,-22 23.8,-22 14,0 23.8,9 23.8,21.903 0,7.898 -4,13.796 -12.2,17.699 m -11.6,25.801 c 7.5,0 12.3,-4.403 12.3,-11.301 0,-6.602 -4.9,-11 -12.3,-11 -7.4,0 -12.3,4.398 -12.3,11.097 0,6.801 4.9,11.204 12.3,11.204 m 0,-29.704 c 8.8,0 14.8,-5.597 14.8,-13.898 0,-8.398 -6,-14 -15,-14 -8.6,0 -14.6,5.699 -14.6,14 0,8.301 6,13.898 14.8,13.898" /><path
           id="path11332"
           style="fill:#000000;fill-opacity:1;fill-rule:nonzero;stroke:none"
           d="m 2991.1,226.898 c -6.6,0 -12.6,-2.898 -16.3,-7.796 -4.6,-6.204 -6.9,-15.704 -6.9,-28.801 0,-23.903 8,-36.602 23.2,-36.602 15,0 23.2,12.699 23.2,36 0,13.801 -2.2,23 -6.9,29.403 -3.7,5 -9.6,7.796 -16.3,7.796 m 0,-7.796 c 9.5,0 14.2,-9.602 14.2,-28.602 0,-20.102 -4.6,-29.5 -14.4,-29.5 -9.3,0 -14,9.801 -14,29.199 0,19.403 4.7,28.903 14.2,28.903" /><path
           id="path11334"
           style="fill:none;stroke:#000000;stroke-opacity:1;stroke-width:5;stroke-linecap:butt;stroke-linejoin:round;stroke-miterlimit:10;stroke-dasharray:none"
           d="m 3604,300 0,56" /><path
           id="path11336"
           style="fill:none;stroke:#000000;stroke-opacity:1;stroke-width:5;stroke-linecap:butt;stroke-linejoin:round;stroke-miterlimit:10;stroke-dasharray:none"
           d="m 3604,1764 0,-48" /><path
           id="path11338"
           style="fill:#000000;fill-opacity:1;fill-rule:nonzero;stroke:none"
           d="m 3549.9,206.5 0,-50.5 8.8,0 0,70.898 -5.8,0 C 3549.8,216 3547.8,214.5 3534.2,212.801 l 0,-6.301 15.7,0" /><path
           id="path11340"
           style="fill:#000000;fill-opacity:1;fill-rule:nonzero;stroke:none"
           d="m 3607.1,226.898 c -6.6,0 -12.6,-2.898 -16.3,-7.796 -4.6,-6.204 -6.9,-15.704 -6.9,-28.801 0,-23.903 8,-36.602 23.2,-36.602 15,0 23.2,12.699 23.2,36 0,13.801 -2.2,23 -6.9,29.403 -3.7,5 -9.6,7.796 -16.3,7.796 m 0,-7.796 c 9.5,0 14.2,-9.602 14.2,-28.602 0,-20.102 -4.6,-29.5 -14.4,-29.5 -9.3,0 -14,9.801 -14,29.199 0,19.403 4.7,28.903 14.2,28.903" /><path
           id="path11342"
           style="fill:#000000;fill-opacity:1;fill-rule:nonzero;stroke:none"
           d="m 3662.7,226.898 c -6.6,0 -12.6,-2.898 -16.3,-7.796 -4.6,-6.204 -6.9,-15.704 -6.9,-28.801 0,-23.903 8,-36.602 23.2,-36.602 15,0 23.2,12.699 23.2,36 0,13.801 -2.2,23 -6.9,29.403 -3.7,5 -9.6,7.796 -16.3,7.796 m 0,-7.796 c 9.5,0 14.2,-9.602 14.2,-28.602 0,-20.102 -4.6,-29.5 -14.4,-29.5 -9.3,0 -14,9.801 -14,29.199 0,19.403 4.7,28.903 14.2,28.903" /><path
           id="path11344"
           style="fill:none;stroke:#000000;stroke-opacity:1;stroke-width:5;stroke-linecap:butt;stroke-linejoin:round;stroke-miterlimit:10;stroke-dasharray:none"
           d="m 4244,300 0,56" /><path
           id="path11346"
           style="fill:none;stroke:#000000;stroke-opacity:1;stroke-width:5;stroke-linecap:butt;stroke-linejoin:round;stroke-miterlimit:10;stroke-dasharray:none"
           d="m 4244,1764 0,-48" /><path
           id="path11348"
           style="fill:#000000;fill-opacity:1;fill-rule:nonzero;stroke:none"
           d="m 4189.9,206.5 0,-50.5 8.8,0 0,70.898 -5.8,0 C 4189.8,216 4187.8,214.5 4174.2,212.801 l 0,-6.301 15.7,0" /><path
           id="path11350"
           style="fill:#000000;fill-opacity:1;fill-rule:nonzero;stroke:none"
           d="m 4270.2,164.699 -37.3,0 c 0.9,5.801 4.1,9.5 12.8,14.602 l 10,5.398 c 9.9,5.403 15,12.699 15,21.403 0,5.898 -2.4,11.398 -6.6,15.199 -4.2,3.801 -9.4,5.597 -16.1,5.597 -9,0 -15.7,-3.199 -19.6,-9.199 -2.5,-3.801 -3.6,-8.199 -3.8,-15.398 l 8.8,0 c 0.3,4.801 0.9,7.699 2.1,10 2.3,4.301 6.9,6.898 12.2,6.898 8,0 14,-5.699 14,-13.301 0,-5.597 -3.3,-10.398 -9.6,-14 l -9.2,-5.199 C 4228.1,178.301 4223.8,171.602 4223,156 l 47.2,0 0,8.699" /><path
           id="path11352"
           style="fill:#000000;fill-opacity:1;fill-rule:nonzero;stroke:none"
           d="m 4302.7,226.898 c -6.6,0 -12.6,-2.898 -16.3,-7.796 -4.6,-6.204 -6.9,-15.704 -6.9,-28.801 0,-23.903 8,-36.602 23.2,-36.602 15,0 23.2,12.699 23.2,36 0,13.801 -2.2,23 -6.9,29.403 -3.7,5 -9.6,7.796 -16.3,7.796 m 0,-7.796 c 9.5,0 14.2,-9.602 14.2,-28.602 0,-20.102 -4.6,-29.5 -14.4,-29.5 -9.3,0 -14,9.801 -14,29.199 0,19.403 4.7,28.903 14.2,28.903" /><path
           id="path11354"
           style="fill:none;stroke:#000000;stroke-opacity:1;stroke-width:5;stroke-linecap:butt;stroke-linejoin:round;stroke-miterlimit:10;stroke-dasharray:none"
           d="m 4884,300 0,56" /><path
           id="path11356"
           style="fill:none;stroke:#000000;stroke-opacity:1;stroke-width:5;stroke-linecap:butt;stroke-linejoin:round;stroke-miterlimit:10;stroke-dasharray:none"
           d="m 4884,1764 0,-48" /><path
           id="path11358"
           style="fill:#000000;fill-opacity:1;fill-rule:nonzero;stroke:none"
           d="m 4829.9,206.5 0,-50.5 8.8,0 0,70.898 -5.8,0 C 4829.8,216 4827.8,214.5 4814.2,212.801 l 0,-6.301 15.7,0" /><path
           id="path11360"
           style="fill:#000000;fill-opacity:1;fill-rule:nonzero;stroke:none"
           d="m 4892.3,173 0,-17 8.8,0 0,17 10.5,0 0,7.898 -10.5,0 0,46 -6.5,0 -32.2,-44.597 0,-9.301 29.9,0 m 0,7.898 -22.2,0 22.2,31 0,-31" /><path
           id="path11362"
           style="fill:#000000;fill-opacity:1;fill-rule:nonzero;stroke:none"
           d="m 4942.7,226.898 c -6.6,0 -12.6,-2.898 -16.3,-7.796 -4.6,-6.204 -6.9,-15.704 -6.9,-28.801 0,-23.903 8,-36.602 23.2,-36.602 15,0 23.2,12.699 23.2,36 0,13.801 -2.2,23 -6.9,29.403 -3.7,5 -9.6,7.796 -16.3,7.796 m 0,-7.796 c 9.5,0 14.2,-9.602 14.2,-28.602 0,-20.102 -4.6,-29.5 -14.4,-29.5 -9.3,0 -14,9.801 -14,29.199 0,19.403 4.7,28.903 14.2,28.903" /><path
           id="path11364"
           style="fill:none;stroke:#000000;stroke-opacity:1;stroke-width:5;stroke-linecap:butt;stroke-linejoin:round;stroke-miterlimit:10;stroke-dasharray:none"
           d="m 5524,300 0,56" /><path
           id="path11366"
           style="fill:none;stroke:#000000;stroke-opacity:1;stroke-width:5;stroke-linecap:butt;stroke-linejoin:round;stroke-miterlimit:10;stroke-dasharray:none"
           d="m 5524,1764 0,-48" /><path
           id="path11368"
           style="fill:#000000;fill-opacity:1;fill-rule:nonzero;stroke:none"
           d="m 5469.9,206.5 0,-50.5 8.8,0 0,70.898 -5.8,0 C 5469.8,216 5467.8,214.5 5454.2,212.801 l 0,-6.301 15.7,0" /><path
           id="path11370"
           style="fill:#000000;fill-opacity:1;fill-rule:nonzero;stroke:none"
           d="m 5549.4,208.398 c -1.7,11.602 -9.3,18.5 -20.1,18.5 -7.8,0 -14.8,-3.796 -19,-10.097 -4.4,-6.903 -6.4,-15.602 -6.4,-28.5 0,-11.903 1.8,-19.5 6,-25.801 3.8,-5.699 10,-8.801 17.8,-8.801 13.5,0 23.2,10 23.2,23.903 0,13.199 -9,22.5 -21.7,22.5 -7,0 -12.5,-2.704 -16.3,-7.903 0.1,17.301 5.7,26.903 15.8,26.903 6.2,0 10.5,-3.903 11.9,-10.704 l 8.8,0 m -21.3,-16.097 c 8.5,0 13.8,-5.903 13.8,-15.403 0,-8.898 -6,-15.398 -14.1,-15.398 -8.2,0 -14.4,6.801 -14.4,15.898 0,8.801 6,14.903 14.7,14.903" /><path
           id="path11372"
           style="fill:#000000;fill-opacity:1;fill-rule:nonzero;stroke:none"
           d="m 5582.7,226.898 c -6.6,0 -12.6,-2.898 -16.3,-7.796 -4.6,-6.204 -6.9,-15.704 -6.9,-28.801 0,-23.903 8,-36.602 23.2,-36.602 15,0 23.2,12.699 23.2,36 0,13.801 -2.2,23 -6.9,29.403 -3.7,5 -9.6,7.796 -16.3,7.796 m 0,-7.796 c 9.5,0 14.2,-9.602 14.2,-28.602 0,-20.102 -4.6,-29.5 -14.4,-29.5 -9.3,0 -14,9.801 -14,29.199 0,19.403 4.7,28.903 14.2,28.903" /><path
           id="path11374"
           style="fill:none;stroke:#000000;stroke-opacity:1;stroke-width:5;stroke-linecap:butt;stroke-linejoin:round;stroke-miterlimit:10;stroke-dasharray:none"
           d="m 404,300 48,0" /><path
           id="path11376"
           style="fill:none;stroke:#000000;stroke-opacity:1;stroke-width:5;stroke-linecap:butt;stroke-linejoin:round;stroke-miterlimit:10;stroke-dasharray:none"
           d="m 5524,300 -56,0" /><path
           id="path11378"
           style="fill:#000000;fill-opacity:1;fill-rule:nonzero;stroke:none"
           d="m 230.602,260.699 -37.301,0 c 0.898,5.801 4.097,9.5 12.801,14.602 l 10,5.398 c 9.898,5.403 15,12.699 15,21.403 0,5.898 -2.403,11.398 -6.602,15.199 -4.199,3.801 -9.398,5.597 -16.102,5.597 -9,0 -15.699,-3.199 -19.597,-9.199 -2.5,-3.801 -3.602,-8.199 -3.801,-15.398 l 8.801,0 c 0.301,4.801 0.898,7.699 2.097,10 2.301,4.301 6.903,6.898 12.204,6.898 8,0 14,-5.699 14,-13.301 0,-5.597 -3.301,-10.398 -9.602,-14 l -9.199,-5.199 C 188.5,274.301 184.199,267.602 183.398,252 l 47.204,0 0,8.699" /><path
           id="path11380"
           style="fill:#000000;fill-opacity:1;fill-rule:nonzero;stroke:none"
           d="m 263.102,322.898 c -6.602,0 -12.602,-2.898 -16.301,-7.796 -4.602,-6.204 -6.903,-15.704 -6.903,-28.801 0,-23.903 8,-36.602 23.204,-36.602 15,0 23.199,12.699 23.199,36 0,13.801 -2.199,23 -6.903,29.403 -3.699,5 -9.597,7.796 -16.296,7.796 m 0,-7.796 c 9.5,0 14.199,-9.602 14.199,-28.602 0,-20.102 -4.602,-29.5 -14.403,-29.5 -9.296,0 -14,9.801 -14,29.199 0,19.403 4.704,28.903 14.204,28.903" /><path
           id="path11382"
           style="fill:#000000;fill-opacity:1;fill-rule:nonzero;stroke:none"
           d="m 299.898,252 10.4023,0 0,10.3984 -10.4023,0 0,-10.3984 z" /><path
           id="path11384"
           style="fill:#000000;fill-opacity:1;fill-rule:nonzero;stroke:none"
           d="m 366.602,322.898 -36.602,0 -5.301,-38.597 8.102,0 c 4.097,4.898 7.5,6.597 13,6.597 9.5,0 15.5,-6.5 15.5,-17 0,-10.199 -5.903,-16.398 -15.5,-16.398 -7.699,0 -12.403,3.898 -14.5,11.898 l -8.801,0 c 1.199,-5.796 2.199,-8.597 4.301,-11.199 4,-5.398 11.199,-8.5 19.199,-8.5 14.301,0 24.301,10.403 24.301,25.403 0,14 -9.301,23.597 -22.903,23.597 -5,0 -9,-1.301 -13.097,-4.301 l 2.801,19.801 29.5,0 0,8.699" /><path
           id="path11386"
           style="fill:none;stroke:#000000;stroke-opacity:1;stroke-width:5;stroke-linecap:butt;stroke-linejoin:round;stroke-miterlimit:10;stroke-dasharray:none"
           d="m 404,788 48,0" /><path
           id="path11388"
           style="fill:none;stroke:#000000;stroke-opacity:1;stroke-width:5;stroke-linecap:butt;stroke-linejoin:round;stroke-miterlimit:10;stroke-dasharray:none"
           d="m 5524,788 -56,0" /><path
           id="path11390"
           style="fill:#000000;fill-opacity:1;fill-rule:nonzero;stroke:none"
           d="m 310.602,748.699 -37.301,0 c 0.898,5.801 4.097,9.5 12.801,14.602 l 10,5.398 c 9.898,5.403 15,12.699 15,21.403 0,5.898 -2.403,11.398 -6.602,15.199 -4.199,3.801 -9.398,5.597 -16.102,5.597 -9,0 -15.699,-3.199 -19.597,-9.199 -2.5,-3.801 -3.602,-8.199 -3.801,-15.398 l 8.801,0 c 0.301,4.801 0.898,7.699 2.097,10 2.301,4.301 6.903,6.898 12.204,6.898 8,0 14,-5.699 14,-13.301 0,-5.597 -3.301,-10.398 -9.602,-14 l -9.199,-5.199 C 268.5,762.301 264.199,755.602 263.398,740 l 47.204,0 0,8.699" /><path
           id="path11392"
           style="fill:#000000;fill-opacity:1;fill-rule:nonzero;stroke:none"
           d="m 341.5,790.5 0,-50.5 8.801,0 0,70.898 -5.801,0 C 341.398,800 339.398,798.5 325.801,796.801 l 0,-6.301 15.699,0" /><path
           id="path11394"
           style="fill:none;stroke:#000000;stroke-opacity:1;stroke-width:5;stroke-linecap:butt;stroke-linejoin:round;stroke-miterlimit:10;stroke-dasharray:none"
           d="m 404,1276 48,0" /><path
           id="path11396"
           style="fill:none;stroke:#000000;stroke-opacity:1;stroke-width:5;stroke-linecap:butt;stroke-linejoin:round;stroke-miterlimit:10;stroke-dasharray:none"
           d="m 5524,1276 -56,0" /><path
           id="path11398"
           style="fill:#000000;fill-opacity:1;fill-rule:nonzero;stroke:none"
           d="m 230.602,1236.7 -37.301,0 c 0.898,5.8 4.097,9.5 12.801,14.6 l 10,5.4 c 9.898,5.4 15,12.7 15,21.4 0,5.9 -2.403,11.4 -6.602,15.2 -4.199,3.8 -9.398,5.6 -16.102,5.6 -9,0 -15.699,-3.2 -19.597,-9.2 -2.5,-3.8 -3.602,-8.2 -3.801,-15.4 l 8.801,0 c 0.301,4.8 0.898,7.7 2.097,10 2.301,4.3 6.903,6.9 12.204,6.9 8,0 14,-5.7 14,-13.3 0,-5.6 -3.301,-10.4 -9.602,-14 l -9.199,-5.2 c -14.801,-8.4 -19.102,-15.1 -19.903,-30.7 l 47.204,0 0,8.7" /><path
           id="path11400"
           style="fill:#000000;fill-opacity:1;fill-rule:nonzero;stroke:none"
           d="m 261.5,1278.5 0,-50.5 8.801,0 0,70.9 -5.801,0 c -3.102,-10.9 -5.102,-12.4 -18.699,-14.1 l 0,-6.3 15.699,0" /><path
           id="path11402"
           style="fill:#000000;fill-opacity:1;fill-rule:nonzero;stroke:none"
           d="m 299.898,1228 10.4023,0 0,10.3984 -10.4023,0 0,-10.3984 z" /><path
           id="path11404"
           style="fill:#000000;fill-opacity:1;fill-rule:nonzero;stroke:none"
           d="m 366.602,1298.9 -36.602,0 -5.301,-38.6 8.102,0 c 4.097,4.9 7.5,6.6 13,6.6 9.5,0 15.5,-6.5 15.5,-17 0,-10.2 -5.903,-16.4 -15.5,-16.4 -7.699,0 -12.403,3.9 -14.5,11.9 l -8.801,0 c 1.199,-5.8 2.199,-8.6 4.301,-11.2 4,-5.4 11.199,-8.5 19.199,-8.5 14.301,0 24.301,10.4 24.301,25.4 0,14 -9.301,23.6 -22.903,23.6 -5,0 -9,-1.3 -13.097,-4.3 l 2.801,19.8 29.5,0 0,8.7" /><path
           id="path11406"
           style="fill:none;stroke:#000000;stroke-opacity:1;stroke-width:5;stroke-linecap:butt;stroke-linejoin:round;stroke-miterlimit:10;stroke-dasharray:none"
           d="m 404,1764 48,0" /><path
           id="path11408"
           style="fill:none;stroke:#000000;stroke-opacity:1;stroke-width:5;stroke-linecap:butt;stroke-linejoin:round;stroke-miterlimit:10;stroke-dasharray:none"
           d="m 5524,1764 -56,0" /><path
           id="path11410"
           style="fill:#000000;fill-opacity:1;fill-rule:nonzero;stroke:none"
           d="m 310.602,1724.7 -37.301,0 c 0.898,5.8 4.097,9.5 12.801,14.6 l 10,5.4 c 9.898,5.4 15,12.7 15,21.4 0,5.9 -2.403,11.4 -6.602,15.2 -4.199,3.8 -9.398,5.6 -16.102,5.6 -9,0 -15.699,-3.2 -19.597,-9.2 -2.5,-3.8 -3.602,-8.2 -3.801,-15.4 l 8.801,0 c 0.301,4.8 0.898,7.7 2.097,10 2.301,4.3 6.903,6.9 12.204,6.9 8,0 14,-5.7 14,-13.3 0,-5.6 -3.301,-10.4 -9.602,-14 l -9.199,-5.2 c -14.801,-8.4 -19.102,-15.1 -19.903,-30.7 l 47.204,0 0,8.7" /><path
           id="path11412"
           style="fill:#000000;fill-opacity:1;fill-rule:nonzero;stroke:none"
           d="m 366.199,1724.7 -37.301,0 c 0.903,5.8 4.102,9.5 12.801,14.6 l 10,5.4 c 9.903,5.4 15,12.7 15,21.4 0,5.9 -2.398,11.4 -6.597,15.2 -4.204,3.8 -9.403,5.6 -16.102,5.6 -9,0 -15.699,-3.2 -19.602,-9.2 -2.5,-3.8 -3.597,-8.2 -3.796,-15.4 l 8.796,0 c 0.301,4.8 0.903,7.7 2.102,10 2.301,4.3 6.898,6.9 12.199,6.9 8,0 14,-5.7 14,-13.3 0,-5.6 -3.301,-10.4 -9.597,-14 l -9.204,-5.2 C 324.102,1738.3 319.801,1731.6 319,1716 l 47.199,0 0,8.7" /><path
           id="path11414"
           style="fill:none;stroke:#000000;stroke-opacity:1;stroke-width:5;stroke-linecap:butt;stroke-linejoin:round;stroke-miterlimit:10;stroke-dasharray:none"
           d="m 404,300 5120,0" /><path
           id="path11416"
           style="fill:none;stroke:#000000;stroke-opacity:1;stroke-width:5;stroke-linecap:butt;stroke-linejoin:round;stroke-miterlimit:10;stroke-dasharray:none"
           d="m 404,1764 5120,0" /><path
           id="path11418"
           style="fill:none;stroke:#000000;stroke-opacity:1;stroke-width:5;stroke-linecap:butt;stroke-linejoin:round;stroke-miterlimit:10;stroke-dasharray:none"
           d="m 404,300 0,1464" /><path
           id="path11420"
           style="fill:none;stroke:#000000;stroke-opacity:1;stroke-width:5;stroke-linecap:butt;stroke-linejoin:round;stroke-miterlimit:10;stroke-dasharray:none"
           d="m 5524,300 0,1464" /><path
           id="path11422"
           style="fill:none;stroke:#000000;stroke-opacity:1;stroke-width:5;stroke-linecap:butt;stroke-linejoin:round;stroke-miterlimit:10;stroke-dasharray:none"
           d="m 2388,1276 32,128 96,0 32,-128 192,0 32,-120 160,0 32,-120 128,0 32,-120 128,0 32,-128 256,0 32,-120 480,0 32,120 64,0 32,128 64,0 32,120 32,0 32,120 64,0 32,120 160,0 32,128 32,-128 32,128 32,-128 192,0 32,-120 128,0 32,-120 160,0 32,-120 160,0 32,-128 40,0" /><path
           id="path11424"
           style="fill:none;stroke:#000000;stroke-opacity:1;stroke-width:5;stroke-linecap:butt;stroke-linejoin:round;stroke-miterlimit:10;stroke-dasharray:none"
           d="m 436,1404 160,0 32,-128 128,0 32,-120 96,0 32,-120 128,0 32,-120 160,0 32,-128 192,0 32,-120 352,0 32,120 64,0 32,128 64,0 32,120 32,0 32,120 64,0 32,120 160,0" /></g><text
         xml:space="preserve"
         style="font-size:160px;font-style:normal;font-weight:normal;line-height:125%;letter-spacing:0px;word-spacing:0px;fill:#000000;fill-opacity:1;stroke:none;font-family:Latin Modern Roman;-inkscape-font-specification:Latin Modern Roman"
         x="4390.4727"
         y="24.899588"
         id="text11494"
         sodipodi:linespacing="125%"
         transform="matrix(0,1,1,0,0,0)"><tspan
           sodipodi:role="line"
           id="tspan11496"
           x="4390.4727"
           y="24.899588"
           style="font-size:136px">Center position (mm)</tspan></text>
<text
         xml:space="preserve"
         style="font-size:160px;font-style:normal;font-weight:normal;line-height:125%;letter-spacing:0px;word-spacing:0px;fill:#000000;fill-opacity:1;stroke:none;font-family:Latin Modern Roman;-inkscape-font-specification:Latin Modern Roman"
         x="2590.2009"
         y="24.899588"
         id="text11494-1"
         sodipodi:linespacing="125%"
         transform="matrix(0,1,1,0,0,0)"><tspan
           sodipodi:role="line"
           id="tspan11496-3"
           x="2590.2009"
           y="24.899588"
           style="font-size:136px">FWHM (mm)</tspan></text>
<text
         xml:space="preserve"
         style="font-size:160px;font-style:normal;font-weight:normal;line-height:125%;letter-spacing:0px;word-spacing:0px;fill:#000000;fill-opacity:1;stroke:none;font-family:Latin Modern Roman;-inkscape-font-specification:Latin Modern Roman"
         x="467.81668"
         y="24.899588"
         id="text11519"
         sodipodi:linespacing="125%"
         transform="matrix(0,1,1,0,0,0)"><tspan
           sodipodi:role="line"
           id="tspan11521"
           x="467.81668"
           y="24.899588"
           style="font-size:136px">Temperature (C)</tspan></text>
<text
         xml:space="preserve"
         style="font-size:160px;font-style:normal;font-weight:normal;line-height:125%;letter-spacing:0px;word-spacing:0px;fill:#000000;fill-opacity:1;stroke:none;font-family:Latin Modern Roman;-inkscape-font-specification:Latin Modern Roman"
         x="2405.4214"
         y="254.58847"
         id="text11523"
         sodipodi:linespacing="125%"
         transform="scale(1,-1)"><tspan
           sodipodi:role="line"
           id="tspan11525"
           x="2405.4214"
           y="254.58847">Time (minutes)</tspan></text>
<flowRoot
         xml:space="preserve"
         id="flowRoot11546"
         style="font-size:20px;font-style:normal;font-weight:normal;line-height:125%;letter-spacing:0px;word-spacing:0px;fill:#000000;fill-opacity:1;stroke:none;font-family:Latin Modern Roman;-inkscape-font-specification:Latin Modern Roman"
         transform="matrix(8,0,0,-8,422.07626,5873.3685)"><flowRegion
           id="flowRegion11548"><rect
             id="rect11550"
             width="99.322037"
             height="86.906776"
             x="-136.56779"
             y="90.01059" /></flowRegion><flowPara
           id="flowPara11552">(a)</flowPara></flowRoot><text
         xml:space="preserve"
         style="font-size:160px;font-style:normal;font-weight:normal;line-height:125%;letter-spacing:0px;word-spacing:0px;fill:#000000;fill-opacity:1;stroke:none;font-family:Latin Modern Roman;-inkscape-font-specification:Latin Modern Roman"
         x="-670.42377"
         y="-2962.3"
         id="text11554"
         sodipodi:linespacing="125%"
         transform="scale(1,-1)"><tspan
           sodipodi:role="line"
           id="tspan11556"
           x="-670.42377"
           y="-2962.3">(b)</tspan></text>
<text
         xml:space="preserve"
         style="font-size:160px;font-style:normal;font-weight:normal;line-height:125%;letter-spacing:0px;word-spacing:0px;fill:#000000;fill-opacity:1;stroke:none;font-family:Latin Modern Roman;-inkscape-font-specification:Latin Modern Roman"
         x="-670.42377"
         y="-930.2995"
         id="text11558"
         sodipodi:linespacing="125%"
         transform="scale(1,-1)"><tspan
           sodipodi:role="line"
           id="tspan11560"
           x="-670.42377"
           y="-930.2995">(c)</tspan></text>
</g></g></svg>