<?xml version="1.0" encoding="UTF-8" standalone="no"?>
<!-- Created with Inkscape (http://www.inkscape.org/) -->

<svg
   xmlns:dc="http://purl.org/dc/elements/1.1/"
   xmlns:cc="http://creativecommons.org/ns#"
   xmlns:rdf="http://www.w3.org/1999/02/22-rdf-syntax-ns#"
   xmlns:svg="http://www.w3.org/2000/svg"
   xmlns="http://www.w3.org/2000/svg"
   version="1.2"
   width="744.09448"
   height="1052.3622"
   id="svg2">
  <defs
     id="defs4">
    <marker
       refX="0"
       refY="0"
       orient="auto"
       id="Arrow2Mend"
       style="overflow:visible">
      <path
         d="M 8.7185878,4.0337352 -2.2072895,0.01601326 8.7185884,-4.0017078 c -1.7454984,2.3720609 -1.7354408,5.6174519 -6e-7,8.035443 z"
         transform="scale(-0.6,-0.6)"
         id="path3910"
         style="fill-rule:evenodd;stroke-width:0.625;stroke-linejoin:round" />
    </marker>
    <marker
       refX="0"
       refY="0"
       orient="auto"
       id="Arrow2Mstart"
       style="overflow:visible">
      <path
         d="M 8.7185878,4.0337352 -2.2072895,0.01601326 8.7185884,-4.0017078 c -1.7454984,2.3720609 -1.7354408,5.6174519 -6e-7,8.035443 z"
         transform="scale(0.6,0.6)"
         id="path3907"
         style="fill-rule:evenodd;stroke-width:0.625;stroke-linejoin:round" />
    </marker>
    <marker
       refX="0"
       refY="0"
       orient="auto"
       id="Arrow2Sstart"
       style="overflow:visible">
      <path
         d="M 8.7185878,4.0337352 -2.2072895,0.01601326 8.7185884,-4.0017078 c -1.7454984,2.3720609 -1.7354408,5.6174519 -6e-7,8.035443 z"
         transform="matrix(0.3,0,0,0.3,-0.69,0)"
         id="path3913"
         style="fill-rule:evenodd;stroke-width:0.625;stroke-linejoin:round" />
    </marker>
    <marker
       refX="0"
       refY="0"
       orient="auto"
       id="Arrow1Lstart"
       style="overflow:visible">
      <path
         d="M 0,0 5,-5 -12.5,0 5,5 0,0 z"
         transform="matrix(0.8,0,0,0.8,10,0)"
         id="path3883"
         style="fill-rule:evenodd;stroke:#000000;stroke-width:1pt" />
    </marker>
  </defs>
  <metadata
     id="metadata7">
    <rdf:RDF>
      <cc:Work
         rdf:about="">
        <dc:format>image/svg+xml</dc:format>
        <dc:type
           rdf:resource="http://purl.org/dc/dcmitype/StillImage" />
        <dc:title></dc:title>
      </cc:Work>
    </rdf:RDF>
  </metadata>
  <g
     id="layer1">
    <rect
       width="14.285714"
       height="103.28787"
       x="178.91721"
       y="469.12546"
       id="rect2989"
       style="fill:#3771c8;fill-rule:evenodd;stroke:none" />
    <rect
       width="14.285714"
       height="41.163479"
       x="381.11462"
       y="531.24982"
       id="rect2989-8"
       style="fill:#3771c8;fill-rule:evenodd;stroke:none" />
    <rect
       width="14.285714"
       height="57.830997"
       x="352.22928"
       y="514.58234"
       id="rect2989-7"
       style="fill:#3771c8;fill-rule:evenodd;stroke:none" />
    <rect
       width="14.285714"
       height="78.539131"
       x="323.34393"
       y="493.87418"
       id="rect2989-5"
       style="fill:#3771c8;fill-rule:evenodd;stroke:none" />
    <rect
       width="14.285714"
       height="116.92493"
       x="294.45859"
       y="455.4884"
       id="rect2989-89"
       style="fill:#3771c8;fill-rule:evenodd;stroke:none" />
    <rect
       width="14.285714"
       height="145.71428"
       x="265.57324"
       y="426.69904"
       id="rect2989-9"
       style="fill:#3771c8;fill-rule:evenodd;stroke:none" />
    <rect
       width="14.285714"
       height="129.55183"
       x="236.6879"
       y="442.86148"
       id="rect2989-86"
       style="fill:#3771c8;fill-rule:evenodd;stroke:none" />
    <rect
       width="14.285714"
       height="108.8437"
       x="207.80255"
       y="463.56961"
       id="rect2989-6"
       style="fill:#3771c8;fill-rule:evenodd;stroke:none" />
    <rect
       width="14.285714"
       height="26.516266"
       x="409.99997"
       y="545.89703"
       id="rect2989-3"
       style="fill:#3771c8;fill-rule:evenodd;stroke:none" />
    <rect
       width="14.285714"
       height="42.173634"
       x="150.03186"
       y="530.23969"
       id="rect2989-54"
       style="fill:#3771c8;fill-rule:evenodd;stroke:none" />
    <rect
       width="14.285714"
       height="24.49597"
       x="121.14651"
       y="547.91736"
       id="rect2989-54-3"
       style="fill:#3771c8;fill-rule:evenodd;stroke:none" />
    <path
       d="m 102.02541,557.89251 c 0,0 59.09393,-23.23351 85.86296,-52.02285 27.66221,-29.74992 53.49849,-61.51559 76.26652,-62.12439 27.2729,-0.72926 52.25528,36.608 90.91373,67.17515 43.43656,34.34519 75.76144,38.38579 79.29697,37.88072"
       id="path3851"
       style="fill:none;stroke:#000000;stroke-width:4;stroke-linecap:butt;stroke-linejoin:miter;stroke-miterlimit:4;stroke-opacity:1;stroke-dasharray:none" />
    <path
       d="m 264.15489,444.75543 0,125.54983"
       id="path3857"
       style="fill:#ff0000;stroke:#ff0000;stroke-width:4;stroke-linecap:butt;stroke-linejoin:miter;stroke-miterlimit:4;stroke-opacity:1;stroke-dasharray:4, 4;stroke-dashoffset:0" />
    <path
       d="m 262.67159,444.25034 -161.96407,1e-5"
       id="path3857-5"
       style="fill:#ff0000;stroke:#ff0000;stroke-width:4;stroke-linecap:butt;stroke-linejoin:miter;stroke-miterlimit:4;stroke-opacity:1;stroke-dasharray:4, 4;stroke-dashoffset:0" />
    <path
       d="m 100,346.6479 0,225.71428 375.71428,0"
       id="path3877"
       style="fill:none;stroke:#000000;stroke-width:2;stroke-linecap:butt;stroke-linejoin:miter;stroke-miterlimit:4;stroke-opacity:1;stroke-dasharray:none;marker-start:url(#Arrow2Mstart);marker-mid:none;marker-end:url(#Arrow2Mend)" />
    <g
       transform="matrix(0,-1,1,0,-192.78153,685.56662)"
       id="flowRoot5111"
       style="font-size:40px;font-style:normal;font-weight:normal;line-height:125%;letter-spacing:0px;word-spacing:0px;fill:#000000;fill-opacity:1;stroke:none;font-family:Sans">
      <path
         d="m 195.0575,260.09423 c 0,-0.28 0,-0.476 -0.364,-0.476 -0.308,0 -0.308,0.168 -0.336,0.448 -0.224,4.004 -3.22,6.3 -6.272,6.3 -1.708,0 -7.196,-0.95201 -7.196,-9.296 0,-8.37199 5.46,-9.324 7.168,-9.324 3.052,0 5.544,2.548 6.104,6.636 0.056,0.392 0.056,0.476 0.448,0.476 0.448,0 0.448,-0.084 0.448,-0.672 l 0,-6.636 c 0,-0.476 0,-0.672 -0.308,-0.672 -0.112,0 -0.224,0 -0.448,0.336 l -1.4,2.072 c -1.036,-1.008 -2.464,-2.408 -5.152,-2.408 -5.23599,0 -9.744,4.45201 -9.744,10.164 0,5.79599 4.53601,10.192 9.744,10.192 4.564,0 7.308,-3.892 7.308,-7.14"
         id="path5147"
         style="font-size:28px;font-variant:normal;font-stretch:normal;font-family:LMRoman10;-inkscape-font-specification:LMRoman10" />
      <path
         d="m 209.85987,260.62623 c 0,-3.584 -2.8,-6.552 -6.188,-6.552 -3.49999,0 -6.216,3.052 -6.216,6.552 0,3.612 2.91201,6.3 6.188,6.3 3.388,0 6.216,-2.744 6.216,-6.3 m -2.324,-0.224 c 0,1.008 0,2.52 -0.616,3.752 -0.61599,1.26 -1.848,2.072 -3.248,2.072 -1.20399,0 -2.436,-0.588 -3.192,-1.876 -0.69999,-1.232 -0.7,-2.94 -0.7,-3.948 0,-1.092 1e-5,-2.604 0.672,-3.836 0.756,-1.288 2.07201,-1.876 3.192,-1.876 1.232,0 2.43601,0.616 3.164,1.82 0.728,1.204 0.728,2.828 0.728,3.892"
         id="path5149"
         style="font-size:28px;font-variant:normal;font-stretch:normal;font-family:LMRoman10;-inkscape-font-specification:LMRoman10" />
      <path
         d="m 225.65187,266.61823 0,-0.868 c -1.95999,0 -2.184,-0.196 -2.184,-1.568 l 0,-9.94 -4.116,0.308 0,0.868 c 1.96,0 2.184,0.196 2.184,1.568 l 0,4.984 c 0,2.436 -1.344,4.34 -3.388,4.34 -2.35199,0 -2.464,-1.316 -2.464,-2.772 l 0,-9.296 -4.116,0.308 0,0.868 c 2.184,0 2.184,0.084 2.184,2.576 l 0,4.2 c 0,2.184 1e-5,4.732 4.25601,4.732 1.56799,0 2.8,-0.784 3.61199,-2.52 l 0,2.52 4.032,-0.308"
         id="path5151"
         style="font-size:28px;font-variant:normal;font-stretch:normal;font-family:LMRoman10;-inkscape-font-specification:LMRoman10" />
      <path
         d="m 241.23781,266.61823 0,-0.868 c -1.456,0 -2.156,0 -2.184,-0.84 l 0,-5.348 c 0,-2.408 0,-3.276 -0.868,-4.284 -0.392,-0.476 -1.316,-1.036 -2.94,-1.036 -2.044,0 -3.36,1.204 -4.144,2.94 l 0,-2.94 -3.948,0.308 0,0.868 c 1.96,0 2.184,0.196 2.184,1.568 l 0,7.504 c 0,1.26 -0.308,1.26 -2.184,1.26 l 0,0.868 3.164,-0.084 3.136,0.084 0,-0.868 c -1.876,0 -2.184,0 -2.184,-1.26 l 0,-5.152 c 0,-2.912 1.988,-4.48 3.78,-4.48 1.764,0 2.072,1.512 2.072,3.108 l 0,6.524 c 0,1.26 -0.308,1.26 -2.184,1.26 l 0,0.868 3.164,-0.084 3.136,0.084"
         id="path5153"
         style="font-size:28px;font-variant:normal;font-stretch:normal;font-family:LMRoman10;-inkscape-font-specification:LMRoman10" />
      <path
         d="m 251.13975,263.14623 0,-1.596 -0.7,0 0,1.54 c 0,2.072 -0.84,3.136 -1.876,3.136 -1.876,0 -1.876,-2.548 -1.876,-3.024 l 0,-7.784 4.004,0 0,-0.868 -4.004,0 0,-5.152 -0.7,0 c -0.028,2.296 -0.868,5.292 -3.612,5.404 l 0,0.616 2.38,0 0,7.728 c 0,3.444 2.604,3.78 3.612,3.78 1.988,0 2.772,-1.988 2.772,-3.78"
         id="path5155"
         style="font-size:28px;font-variant:normal;font-stretch:normal;font-family:LMRoman10;-inkscape-font-specification:LMRoman10" />
      <path
         d="m 262.80656,263.03423 c 0,-1.484 -0.84,-2.324 -1.176,-2.66 -0.924,-0.896 -2.016,-1.12 -3.192,-1.344 -1.568,-0.308 -3.444,-0.672 -3.444,-2.296 0,-0.98 0.728,-2.128 3.136,-2.128 3.08,0 3.22,2.52 3.276,3.388 0.028,0.252 0.336,0.252 0.336,0.252 0.364,0 0.364,-0.14 0.364,-0.672 l 0,-2.828 c 0,-0.476 0,-0.672 -0.308,-0.672 -0.14,0 -0.196,0 -0.56,0.336 -0.084,0.112 -0.364,0.364 -0.476,0.448 -1.064,-0.784 -2.212,-0.784 -2.632,-0.784 -3.41599,0 -4.48,1.876 -4.48,3.444 0,0.98 0.448,1.764 1.204,2.38 0.896,0.728 1.68,0.896 3.696,1.288 0.616,0.112 2.912,0.56 2.912,2.576 0,1.428 -0.98,2.548 -3.164,2.548 -2.352,0 -3.36,-1.596 -3.892,-3.976 -0.084,-0.364 -0.112,-0.476 -0.392,-0.476 -0.364,0 -0.364,0.196 -0.364,0.7 l 0,3.696 c 0,0.476 0,0.672 0.308,0.672 0.14,0 0.168,-0.028 0.7,-0.56 0.056,-0.056 0.056,-0.112 0.56,-0.644 1.232,1.176 2.492,1.204 3.08,1.204 3.22,0 4.508,-1.876 4.508,-3.892"
         id="path5157"
         style="font-size:28px;font-variant:normal;font-stretch:normal;font-family:LMRoman10;-inkscape-font-specification:LMRoman10" />
    </g>
    <g
       transform="translate(-150.71429,256.42857)"
       id="flowRoot5119"
       style="font-size:40px;font-style:normal;font-weight:normal;line-height:125%;letter-spacing:0px;word-spacing:0px;fill:#000000;fill-opacity:1;stroke:none;font-family:Sans">
      <path
         d="m 374.18,347.55598 -0.532,-6.3 -17.108,0 -0.532,6.3 0.7,0 c 0.392,-4.508 0.812,-5.432 5.04,-5.432 0.504,0 1.232,0 1.512,0.056 0.588,0.112 0.588,0.42 0.588,1.064 l 0,14.756 c 0,0.952 0,1.344 -2.94,1.344 l -1.12,0 0,0.868 c 1.148,-0.084 4.004,-0.084 5.292,-0.084 1.288,0 4.172,0 5.32,0.084 l 0,-0.868 -1.12,0 c -2.94,0 -2.94,-0.392 -2.94,-1.344 l 0,-14.756 c 0,-0.56 0,-0.952 0.504,-1.064 0.308,-0.056 1.064,-0.056 1.596,-0.056 4.228,0 4.648,0.924 5.04,5.432 l 0.7,0"
         id="path5128"
         style="font-size:28px;font-variant:normal;font-stretch:normal;font-family:LMRoman10;-inkscape-font-specification:LMRoman10" />
      <path
         d="m 382.15037,360.21198 0,-0.868 c -1.84799,0 -1.95999,-0.14 -1.95999,-1.232 l 0,-10.276 -3.92001,0.308 0,0.868 c 1.82,0 2.072,0.168 2.072,1.54 l 0,7.532 c 0,1.26 -0.308,1.26 -2.184,1.26 l 0,0.868 3.08001,-0.084 c 0.97999,0 1.96,0.056 2.91199,0.084 m -1.54,-16.912 c 0,-0.756 -0.644,-1.484 -1.484,-1.484 -0.95199,0 -1.512,0.784 -1.512,1.484 0,0.756 0.64401,1.484 1.484,1.484 0.952,0 1.512,-0.784 1.512,-1.484"
         id="path5130"
         style="font-size:28px;font-variant:normal;font-stretch:normal;font-family:LMRoman10;-inkscape-font-specification:LMRoman10" />
      <path
         d="m 405.764,360.21198 0,-0.868 c -1.456,0 -2.156,0 -2.184,-0.84 l 0,-5.348 c 0,-2.408 0,-3.276 -0.868,-4.284 -0.392,-0.476 -1.316,-1.036 -2.94,-1.036 -2.352,0 -3.584,1.68 -4.06,2.744 -0.392,-2.436 -2.464,-2.744 -3.724,-2.744 -2.044,0 -3.36,1.204 -4.144,2.94 l 0,-2.94 -3.948,0.308 0,0.868 c 1.96,0 2.184,0.196 2.184,1.568 l 0,7.504 c 0,1.26 -0.308,1.26 -2.184,1.26 l 0,0.868 3.164,-0.084 3.136,0.084 0,-0.868 c -1.876,0 -2.184,0 -2.184,-1.26 l 0,-5.152 c 0,-2.912 1.988,-4.48 3.78,-4.48 1.764,0 2.072,1.512 2.072,3.108 l 0,6.524 c 0,1.26 -0.308,1.26 -2.184,1.26 l 0,0.868 3.164,-0.084 3.136,0.084 0,-0.868 c -1.876,0 -2.184,0 -2.184,-1.26 l 0,-5.152 c 0,-2.912 1.988,-4.48 3.78,-4.48 1.764,0 2.072,1.512 2.072,3.108 l 0,6.524 c 0,1.26 -0.308,1.26 -2.184,1.26 l 0,0.868 3.164,-0.084 3.136,0.084"
         id="path5132"
         style="font-size:28px;font-variant:normal;font-stretch:normal;font-family:LMRoman10;-inkscape-font-specification:LMRoman10" />
      <path
         d="m 417.97156,356.87998 c 0,-0.28 -0.224,-0.336 -0.364,-0.336 -0.252,0 -0.308,0.168 -0.364,0.392 -0.98,2.884 -3.5,2.884 -3.78,2.884 -1.4,0 -2.52,-0.84 -3.164,-1.876 -0.84,-1.344 -0.84,-3.192 -0.84,-4.2 l 7.812,0 c 0.616,0 0.7,0 0.7,-0.588 0,-2.772 -1.512,-5.488 -5.012,-5.488 -3.24799,0 -5.824,2.884 -5.824,6.384 0,3.752 2.94001,6.468 6.16,6.468 3.416,0 4.676,-3.108 4.676,-3.64 m -1.848,-3.724 -6.636,0 c 0.168,-4.172 2.52,-4.872 3.472,-4.872 2.884,0 3.164,3.78 3.164,4.872"
         id="path5134"
         style="font-size:28px;font-variant:normal;font-stretch:normal;font-family:LMRoman10;-inkscape-font-specification:LMRoman10" />
      <path
         d="m 442.87319,360.21198 0,-0.868 c -1.96,0 -2.184,-0.196 -2.184,-1.568 l 0,-16.996 -4.032,0.308 0,0.868 c 1.96,0 2.184,0.196 2.184,1.568 l 0,6.048 c -0.812,-1.008 -2.016,-1.736 -3.528,-1.736 -3.304,0 -6.244,2.744 -6.244,6.356 0,3.556 2.744,6.328 5.936,6.328 1.792,0 3.052,-0.952 3.752,-1.848 l 0,1.848 4.116,-0.308 m -4.116,-3.304 c 0,0.504 0,0.56 -0.308,1.036 -0.84,1.344 -2.1,1.96 -3.304,1.96 -1.26,0 -2.268,-0.728 -2.94,-1.792 -0.728,-1.148 -0.812,-2.744 -0.812,-3.892 0,-1.036 0.056,-2.716 0.868,-3.976 0.588,-0.868 1.652,-1.792 3.164,-1.792 0.98,0 2.156,0.42 3.024,1.68 0.308,0.476 0.308,0.532 0.308,1.036 l 0,5.74"
         id="path5136"
         style="font-size:28px;font-variant:normal;font-stretch:normal;font-family:LMRoman10;-inkscape-font-specification:LMRoman10" />
      <path
         d="m 455.32312,356.87998 c 0,-0.28 -0.224,-0.336 -0.364,-0.336 -0.25199,0 -0.308,0.168 -0.364,0.392 -0.97999,2.884 -3.5,2.884 -3.77999,2.884 -1.4,0 -2.52001,-0.84 -3.16401,-1.876 -0.83999,-1.344 -0.84,-3.192 -0.84,-4.2 l 7.81201,0 c 0.61599,0 0.69999,0 0.69999,-0.588 0,-2.772 -1.512,-5.488 -5.012,-5.488 -3.24799,0 -5.824,2.884 -5.824,6.384 0,3.752 2.94001,6.468 6.16001,6.468 3.41599,0 4.67599,-3.108 4.67599,-3.64 m -1.848,-3.724 -6.63599,0 c 0.16799,-4.172 2.52,-4.872 3.47199,-4.872 2.884,0 3.164,3.78 3.164,4.872"
         id="path5138"
         style="font-size:28px;font-variant:normal;font-stretch:normal;font-family:LMRoman10;-inkscape-font-specification:LMRoman10" />
      <path
         d="m 463.25719,360.21198 0,-0.868 c -1.876,0 -2.184,0 -2.184,-1.26 l 0,-17.304 -4.032,0.308 0,0.868 c 1.96,0 2.184,0.196 2.184,1.568 l 0,14.56 c 0,1.26 -0.308,1.26 -2.184,1.26 l 0,0.868 3.108,-0.084 3.108,0.084"
         id="path5140"
         style="font-size:28px;font-variant:normal;font-stretch:normal;font-family:LMRoman10;-inkscape-font-specification:LMRoman10" />
      <path
         d="m 477.40681,357.71998 0,-1.568 -0.7,0 0,1.568 c 0,1.624 -0.7,1.792 -1.008,1.792 -0.924,0 -1.036,-1.26 -1.036,-1.4 l 0,-5.6 c 0,-1.176 0,-2.268 -1.008,-3.304 -1.092,-1.092 -2.492,-1.54 -3.836,-1.54 -2.296,0 -4.228,1.316 -4.228,3.164 0,0.84 0.56,1.316 1.288,1.316 0.784,0 1.288,-0.56 1.288,-1.288 0,-0.336 -0.14,-1.26 -1.428,-1.288 0.756,-0.98 2.128,-1.288 3.024,-1.288 1.372,0 2.968,1.092 2.968,3.584 l 0,1.036 c -1.428,0.084 -3.388,0.168 -5.152,1.008 -2.1,0.952 -2.8,2.408 -2.8,3.64 0,2.268 2.716,2.968 4.48,2.968 1.848,0 3.136,-1.12 3.668,-2.436 0.112,1.12 0.868,2.296 2.184,2.296 0.588,0 2.296,-0.392 2.296,-2.66 m -4.676,-1.428 c 0,2.66 -2.016,3.612 -3.276,3.612 -1.372,0 -2.52,-0.98 -2.52,-2.38 0,-1.54 1.17601,-3.864 5.796,-4.032 l 0,2.8"
         id="path5142"
         style="font-size:28px;font-variant:normal;font-stretch:normal;font-family:LMRoman10;-inkscape-font-specification:LMRoman10" />
      <path
         d="m 492.10681,349.01198 0,-0.868 c -0.644,0.056 -1.456,0.084 -2.1,0.084 l -2.436,-0.084 0,0.868 c 0.868,0.028 1.316,0.504 1.316,1.204 0,0.28 -0.028,0.336 -0.168,0.672 l -2.828,6.888 -3.108,-7.532 c -0.112,-0.28 -0.168,-0.392 -0.168,-0.504 0,-0.728 1.036,-0.728 1.568,-0.728 l 0,-0.868 -3.052,0.084 c -0.756,0 -1.876,-0.028 -2.716,-0.084 l 0,0.868 c 1.344,0 1.876,0 2.268,0.98 l 4.2,10.22 -0.7,1.652 c -0.616,1.54 -1.4,3.472 -3.192,3.472 -0.14,0 -0.784,0 -1.316,-0.504 0.868,-0.112 1.092,-0.728 1.092,-1.176 0,-0.728 -0.532,-1.176 -1.176,-1.176 -0.56,0 -1.176,0.364 -1.176,1.204 0,1.26 1.176,2.268 2.576,2.268 1.764,0 2.912,-1.596 3.584,-3.192 l 4.928,-11.956 c 0.728,-1.764 2.156,-1.792 2.604,-1.792"
         id="path5144"
         style="font-size:28px;font-variant:normal;font-stretch:normal;font-family:LMRoman10;-inkscape-font-specification:LMRoman10" />
    </g>
  </g>
</svg>
